<svg xmlns="http://www.w3.org/2000/svg" width="64" height="64" fill="none" viewBox="0 0 64 64">
    <g clip-path="url(#a)">
        <path fill="#3F3F3F" d="M53.725 55.537l-8.2-8.2.9-.9c3.863-3.85 5.988-8.975 5.988-14.437v-1.275H64V32c0 8.55-3.325 16.587-9.375 22.625l-.9.912zm-4.6-8.225l4.575 4.575c4.713-5.125 7.413-11.662 7.713-18.612h-6.475a22.765 22.765 0 0 1-5.813 14.037zM23.013 13.637l-4.425-10.7 1.175-.487A31.397 31.397 0 0 1 31.988 0h1.275v11.588h-1.275c-2.7 0-5.325.525-7.8 1.55l-1.175.5zm-1.088-9.3l2.475 5.976a22.641 22.641 0 0 1 6.3-1.25V2.587a28.749 28.749 0 0 0-8.775 1.75z"/>
        <path fill="#FC4945" d="M51.387 25.6h11.962C60.787 13.088 50.912 3.2 38.387.65v11.975a20.48 20.48 0 0 1 13 12.975z"/>
        <path fill="#43D3E8" d="M41.175 50.237a20.254 20.254 0 0 1-9.187 2.175c-11.25 0-20.4-9.162-20.4-20.412 0-6.063 2.662-11.65 7.087-15.45L14.087 5.487C5.376 11.337 0 21.187 0 32c0 17.637 14.35 32 31.988 32 6.374 0 12.474-1.85 17.662-5.288l-8.475-8.475z"/>
        <path fill="#3F3F3F" d="M39.036 23.158l-15.87 15.881 1.813 1.811 15.87-15.88-1.813-1.812zM36.937 41.213a4.281 4.281 0 0 1-4.275-4.275 4.281 4.281 0 0 1 4.275-4.275 4.273 4.273 0 0 1 4.275 4.275 4.273 4.273 0 0 1-4.275 4.275zm0-5.975c-.937 0-1.712.763-1.712 1.713 0 .95.762 1.712 1.712 1.712s1.713-.775 1.713-1.712c0-.95-.763-1.713-1.713-1.713zM27.05 31.325a4.281 4.281 0 0 1-4.275-4.275 4.273 4.273 0 0 1 4.275-4.275 4.281 4.281 0 0 1 4.275 4.275 4.273 4.273 0 0 1-4.275 4.275zm0-5.987c-.95 0-1.712.762-1.712 1.712s.762 1.713 1.712 1.713 1.713-.763 1.713-1.713c0-.937-.763-1.712-1.713-1.712z"/>
    </g>
    <defs>
        <clipPath id="a">
            <path fill="#fff" d="M0 0h64v64H0z"/>
        </clipPath>
    </defs>
</svg>
