<svg xmlns="http://www.w3.org/2000/svg" width="43" height="65" fill="none" viewBox="0 0 43 65">
    <path fill="#FC4945" d="M24.578 12.427c0 3.883-3.18 7.027-7.107 7.027-3.928 0-7.108-3.144-7.108-7.027 0-3.884 3.18-7.028 7.108-7.028 3.914 0 7.107 3.144 7.107 7.028z"/>
    <path fill="#3F3F3F" d="M40.148 52.923h-25.92a1.13 1.13 0 0 1-1.14-1.127c0-4.748-3.903-8.606-8.704-8.606C1.964 43.19 0 41.25 0 38.87c0-2.393 1.964-4.334 4.384-4.334 3.103 0 6.068.789 8.703 2.304V12.426c0-1.165.456-2.255 1.28-3.07a4.377 4.377 0 0 1 3.091-1.264c1.166 0 2.268.45 3.091 1.265a4.278 4.278 0 0 1 1.28 3.056v11.199a4.374 4.374 0 0 1 2.103-.539c1.166 0 2.268.451 3.091 1.265.05.05.102.1.14.15l.152-.15a4.376 4.376 0 0 1 3.09-1.265c1.166 0 2.269.451 3.092 1.265.05.05.102.1.14.15l.152-.15a4.376 4.376 0 0 1 3.09-1.265c1.166 0 2.269.451 3.092 1.265a4.328 4.328 0 0 1 1.28 3.07v24.388c.038.626-.47 1.127-1.102 1.127zm-24.844-2.242h23.704V27.42c0-.552-.215-1.078-.62-1.478a2.114 2.114 0 0 0-1.483-.614c-.557 0-1.09.213-1.482.614-.406.4-.62.914-.62 1.478a1.13 1.13 0 0 1-1.141 1.127 1.13 1.13 0 0 1-1.14-1.127c0-.552-.216-1.078-.621-1.478a2.114 2.114 0 0 0-1.482-.614c-.558 0-1.09.213-1.483.614-.405.4-.62.914-.62 1.478a1.13 1.13 0 0 1-1.14 1.127c-.634 0-1.14-.501-1.14-1.127 0-.564-.216-1.09-.61-1.478a2.113 2.113 0 0 0-2.976 0 2.053 2.053 0 0 0-.608 1.465 1.13 1.13 0 0 1-1.14 1.128 1.13 1.13 0 0 1-1.14-1.128V12.426c0-.551-.216-1.077-.622-1.466a2.113 2.113 0 0 0-1.482-.614 2.06 2.06 0 0 0-1.482.614c-.393.389-.621.915-.621 1.466v26.518c0 .426-.24.814-.633 1.002-.393.188-.85.15-1.191-.113a15.142 15.142 0 0 0-9.16-3.044c-1.153 0-2.103.927-2.103 2.08 0 1.152.937 2.079 2.103 2.079 5.676 0 10.363 4.271 10.933 9.733z"/>
    <path fill="#242D3C" d="M36.17 55.616c1.001 0 1.8.802 1.8 1.779a1.78 1.78 0 0 1-1.8 1.778c-.988 0-1.799-.801-1.799-1.778-.013-.965.798-1.779 1.8-1.779z"/>
    <path fill="#3F3F3F" d="M43 64.135H11.365V50.68H43v13.454zM13.646 61.88h27.086v-8.956H13.646v8.956zM18.612 0h-2.28v3.57h2.28V0zM12.174 1.101L10.199 2.23l1.807 3.092 1.974-1.128L12.174 1.1zM7.158 5.237l-1.14 1.952 3.126 1.785 1.14-1.952-3.126-1.785zM8.515 11.299h-3.61v2.255h3.61v-2.255zM9.148 15.877l-3.127 1.786 1.141 1.952 3.127-1.786-1.141-1.952zM25.791 15.874l-1.14 1.952 3.126 1.786 1.14-1.952-3.126-1.786zM30.025 11.299h-3.611v2.255h3.61v-2.255zM27.78 5.23l-3.126 1.786 1.141 1.952 3.126-1.786-1.14-1.952zM22.758 1.094l-1.805 3.092 1.975 1.127 1.805-3.092-1.975-1.127z"/>
</svg>
