<svg xmlns="http://www.w3.org/2000/svg" width="63" height="64" fill="none" viewBox="0 0 63 64">
    <path fill="#FC4945" d="M31.095 27.712c-5.568 0-10.103-4.55-10.103-10.15 0-5.587 4.535-10.137 10.103-10.137 5.581 0 10.116 4.55 10.116 10.137-.012 5.6-4.547 10.15-10.116 10.15z"/>
    <path fill="#3F3F3F" d="M31.094 47.8L17.178 28.25c-2.392-3.375-3.6-6.962-3.6-10.688C13.578 7.887 21.438 0 31.094 0c9.654 0 17.515 7.875 17.515 17.563 0 3.675-1.246 7.362-3.6 10.675L31.094 47.8zm0-45.487c-8.384 0-15.211 6.85-15.211 15.262 0 3.225 1.071 6.375 3.177 9.338l12.034 16.924 12.034-16.925c2.105-2.962 3.176-6.1 3.176-9.337 0-8.425-6.826-15.262-15.21-15.262zM39.141 50.85H23.033v2.313h16.108v-2.312z"/>
    <path fill="#43D3E8" d="M8.085 37.7C3.625 37.7 0 41.338 0 45.813c0 1.875.673 3.55 1.67 4.95l6.415 9.025 6.416-9.025c.996-1.4 1.67-3.088 1.67-4.95.012-4.475-3.614-8.113-8.086-8.113z"/>
    <path fill="#fff" d="M8.085 50.625c-2.64 0-4.796-2.163-4.796-4.813S5.444 41 8.085 41c2.641 0 4.796 2.163 4.796 4.813s-2.142 4.812-4.796 4.812zm0-7.313a2.503 2.503 0 0 0-2.491 2.5c0 1.376 1.12 2.5 2.491 2.5a2.503 2.503 0 0 0 2.492-2.5c0-1.374-1.109-2.5-2.492-2.5z"/>
    <path fill="#3F3F3F" d="M12.083 61.688H4.098V64h7.985v-2.313z"/>
    <path fill="#43D3E8" d="M54.09 37.7c-4.459 0-8.084 3.638-8.084 8.113 0 1.875.673 3.55 1.67 4.95l6.415 9.025 6.416-9.025c.996-1.4 1.669-3.088 1.669-4.95.012-4.475-3.613-8.113-8.085-8.113z"/>
    <path fill="#fff" d="M54.091 50.625c-2.64 0-4.796-2.163-4.796-4.813S51.45 41 54.09 41c2.641 0 4.796 2.163 4.796 4.813s-2.142 4.812-4.796 4.812zm0-7.313a2.503 2.503 0 0 0-2.491 2.5c0 1.376 1.12 2.5 2.491 2.5a2.503 2.503 0 0 0 2.492-2.5c0-1.374-1.11-2.5-2.492-2.5z"/>
    <path fill="#3F3F3F" d="M58.09 61.688h-7.985V64h7.986v-2.313z"/>
</svg>
