<svg xmlns="http://www.w3.org/2000/svg" width="91" height="78" fill="none" viewBox="0 0 91 78">
    <path fill="#70396D" fill-opacity=".15" d="M0 58.29V19.059C0 13.232 1.812 8.6 5.438 5.16 9.064 1.72 14.24 0 20.964 0c6.662 0 11.838 1.689 15.525 5.067 3.595 3.44 5.393 8.103 5.393 13.991v39.233c0 5.888-1.829 10.52-5.486 13.898-3.687 3.41-8.832 5.114-15.432 5.114-6.725 0-11.9-1.705-15.526-5.114C1.812 68.813 0 64.18 0 58.291zm16.966-40.487V59.5c0 1.86.341 3.146 1.023 3.859.712.681 1.704 1.022 2.975 1.022 1.084 0 1.999-.294 2.742-.883.837-.806 1.255-2.138 1.255-3.998V17.803c0-1.828-.356-3.083-1.069-3.765-.681-.713-1.658-1.069-2.928-1.069-1.333 0-2.324.31-2.975.93-.682.712-1.023 2.014-1.023 3.904zm32.632 2.092V9.25c3.13 0 6.027-.635 8.692-1.906 2.603-1.27 4.4-3.3 5.392-6.089H78v74.84H61.591v-56.2H49.598z"/>
</svg>
