<svg xmlns="http://www.w3.org/2000/svg" width="91" height="78" fill="none" viewBox="0 0 91 78">
    <path fill="#70396D" fill-opacity=".15" d="M0 58.7V19.193C0 13.325 1.825 8.66 5.476 5.196 9.128 1.732 14.34 0 21.111 0c6.71 0 11.921 1.7 15.635 5.102 3.62 3.464 5.43 8.161 5.43 14.09v39.509c0 5.929-1.841 10.594-5.524 13.996-3.713 3.433-8.894 5.15-15.54 5.15-6.773 0-11.984-1.717-15.636-5.15C1.826 69.295 0 64.63 0 58.701zm17.085-40.772v41.99c0 1.872.344 3.167 1.03 3.885.718.687 1.717 1.03 2.996 1.03 1.092 0 2.013-.297 2.762-.89.843-.811 1.264-2.153 1.264-4.025v-41.99c0-1.84-.359-3.105-1.077-3.791-.686-.718-1.67-1.077-2.949-1.077-1.342 0-2.34.312-2.996.936-.686.718-1.03 2.029-1.03 3.932zm31.55 9.784v-5.945c0-7.334 1.733-12.795 5.197-16.384C57.265 1.794 62.757 0 70.309 0c6.585 0 11.703 1.638 15.354 4.915C89.221 8.223 91 13.263 91 20.035c0 6.023-1.498 11.203-4.494 15.541-.78 1.155-1.966 2.59-3.558 4.307-1.654 1.81-3.792 3.932-6.413 6.366-4.743 4.4-8.13 8.395-10.158 11.983l-.983 2.107-.749 2.107h25.793v14.183H47.09v-4.728c0-9.206 2.31-17.054 6.928-23.545.125-.281 4.431-4.76 12.92-13.435 4.68-4.869 7.021-9.8 7.021-14.792 0-2.872-.39-4.775-1.17-5.711-.842-.905-2.028-1.358-3.558-1.358-1.903 0-3.151.577-3.744 1.732-.624 1.217-.936 2.996-.936 5.337v7.583H48.636z"/>
</svg>
