<svg xmlns="http://www.w3.org/2000/svg" width="91" height="78" fill="none" viewBox="0 0 91 78">
    <path fill="#70396D" fill-opacity=".15" d="M0 58.598v-39.44C0 13.303 1.822 8.646 5.467 5.188 9.112 1.729 14.314 0 21.074 0c6.698 0 11.9 1.698 15.608 5.093 3.613 3.458 5.42 8.147 5.42 14.066v39.44c0 5.918-1.838 10.575-5.514 13.971-3.707 3.427-8.878 5.14-15.514 5.14-6.76 0-11.962-1.713-15.607-5.14C1.822 69.175 0 64.517 0 58.598zm17.056-40.7v41.915c0 1.87.342 3.162 1.028 3.879.716.685 1.713 1.028 2.99 1.028 1.09 0 2.01-.296 2.757-.888.841-.81 1.262-2.15 1.262-4.019V17.897c0-1.838-.358-3.1-1.075-3.785-.685-.716-1.666-1.075-2.944-1.075-1.34 0-2.336.312-2.99.935-.686.716-1.028 2.025-1.028 3.925zm30.233 40.42V51.12h16.496v7.851c0 1.713.342 3.084 1.028 4.112.716 1.09 1.9 1.636 3.551 1.636 1.526 0 2.68-.546 3.458-1.636.748-1.028 1.121-2.399 1.121-4.112v-5.374c0-4.206-.67-7.134-2.009-8.785-.498-.592-1.51-1.106-3.037-1.542-1.59-.374-3.505-.56-5.748-.56V30.28h2.944c1.87 0 3.567-.483 5.093-1.45 1.465-.965 2.197-2.43 2.197-4.392v-6.215c0-1.028-.031-1.76-.094-2.196-.062-.467-.311-1.075-.747-1.822-.468-.78-1.527-1.169-3.178-1.169-2.866 0-4.3 1.854-4.3 5.561v4.767H47.71c0-7.851 1.37-13.552 4.112-17.103C54.999 2.087 60.607 0 68.644 0c6.636 0 11.651 1.37 15.047 4.112 3.832 3.084 5.748 8.069 5.748 14.953 0 4.206-.483 7.461-1.449 9.767-1.277 2.99-3.614 5.28-7.01 6.869 3.334 1.153 5.795 3.427 7.384 6.822 1.09 2.742 1.635 6.34 1.635 10.795 0 8.224-1.432 14.252-4.299 18.084-3.27 4.206-8.956 6.308-17.056 6.308-6.698 0-11.931-1.588-15.7-4.766-3.77-3.178-5.655-8.053-5.655-14.626z"/>
</svg>
