<svg xmlns="http://www.w3.org/2000/svg" width="91" height="78" fill="none" viewBox="0 0 91 78">
    <path fill="#70396D" fill-opacity=".15" d="M0 58.58V19.153C0 13.298 1.82 8.643 5.465 5.185 9.11 1.728 14.31 0 21.068 0c6.695 0 11.896 1.697 15.602 5.092 3.613 3.457 5.42 8.144 5.42 14.061V58.58c0 5.917-1.838 10.573-5.513 13.968-3.706 3.425-8.876 5.138-15.51 5.138-6.757 0-11.958-1.713-15.602-5.138C1.821 69.153 0 64.498 0 58.58zm17.05-40.688v41.903c0 1.868.343 3.16 1.028 3.877.716.685 1.713 1.028 2.99 1.028 1.09 0 2.008-.296 2.756-.888.84-.81 1.261-2.149 1.261-4.017V17.892c0-1.838-.358-3.099-1.074-3.784-.685-.716-1.666-1.075-2.943-1.075-1.34 0-2.336.312-2.99.935-.685.716-1.028 2.024-1.028 3.924zm29.757 44.332v-15.79c3.052-6.57 5.637-14.076 7.755-22.516a132.64 132.64 0 0 0 2.29-11.632c.653-4.018.98-7.692.98-11.025h17.705c0 3.644-.545 7.412-1.635 11.305-1.152 3.893-2.819 8.378-4.999 13.454-3.052 7.537-7.194 15.073-12.426 22.61H68.81V38.306a65.563 65.563 0 0 0 3.177-4.905c.965-1.65 1.915-3.535 2.85-5.653 1.868-3.892 3.207-7.676 4.017-11.351h6.4V48.63h5.745v13.594h-5.745v14.248H68.81V62.224H46.807z"/>
</svg>
