<svg xmlns="http://www.w3.org/2000/svg" width="612" height="432" fill="none" viewBox="0 0 612 432">
    <g fill="#E2D7E2" fill-opacity=".3" clip-path="url(#a)">
        <path d="M122.587 272.545c.477.184 1.486.226 2.76.197 0 0-.078-.292-.211-.256-1.009-.042-1.939.207-2.549.059zM184.866 363.563l.266-.072c-.531.143-.719.505-.266.072zM196.358 363.918l-.266.071c.078.291.344.22.266-.071zM122.587 272.544c-.133.036-.344-.22-.344-.22-.531.143-.32.398.344.22zM151.633 368.721c.134-.036.212.256.212.256s-.078-.292-.212-.256z"/>
        <path d="M576.75 180.198c-1.04.903-2.025 1.479-3.331 2.453-.61-.148-1.618-.19-2.838-.488-.453.434-1.04.903-1.681 1.699a18.845 18.845 0 0 1-1.774-.773c-.852.54-1.893 1.443-2.933 2.347-.742-.114-1.485-.227-2.172-.667-.454.434-.775.832-1.416 1.628-1.086-.333-1.962-.411-3.181-.709-.72.505-1.494 1.337-2.534 2.24-.61-.148-1.43-.553-2.306-.631-.242.69-.407 1.67-.571 2.651l-1.595.427c-.422-.511-.844-1.022-1.555-2.08-.43 1.051-.595 2.032-1.08 3.411a43.478 43.478 0 0 1-4.291-1.66c-.188.362-.454.434-.774.832a94.456 94.456 0 0 0-3.291-.055l-3.987 1.068c.641-.796-1.376-.88-3.182-.708.376-.725.806-1.777 1.315-2.538.953.369 1.641.809 2.462 1.214.719-.505 1.36-1.301 2.4-2.204.743.113 1.829.446 2.705.524 1.282-1.593 4.065-.777 4.573-1.538 1.549-1.664 3.488-1.871 5.481-2.405-.023-.618.032-.945.142-1.599.109-.654.563-1.088.751-1.45-4.745-1.226-9.24.603-13.36 1.707-3.58-.602-6.762-1.311-10.209-1.948.102.909.148 2.146.116 3.091-.664.178-1.196.32-2.048.861-.445-1.13-.945-1.932-1.601-3.317-.587.469-.907.867-1.283 1.592-1.806.172-3.69.052-5.417.515-1.861.499-3.433 1.544-5.348 2.37-.688-.44-1.298-.589-2.673-1.469 1.173-.939 2.401-2.205 3.409-2.163 2.017.084 3.268-.563 4.918-1.317 1.649-.755 3.588-.962 5.347-2.37 2.026-1.479 5.371-1.751 8.827-2.677-1.032-.66-1.508-.845-1.93-1.356.462-1.997 2.112-2.751 4.715-3.137l.546 2.039c.985-.576 2.681-.094 2.346-1.877 0 0-.133.036-.055.327-.477-.185-.82-.405-1.297-.589.133-.036.188-.363.32-.398.344.22.821.404 1.032.66 2.416-.023 2.878-2.02 3.972-3.25.61.149 1.298.589 1.908.738 2.158-1.515 4.316-3.03 7.006-4.687-2.815.13-5.73-.65-6.77.253-1.892 1.444-3.167 1.473-4.996 1.026-.719.505-1.493 1.337-2.346 1.878-.875-.078-1.618-.191-3.08.201-.586.469-1.251.647-1.329.356-.742-.113-.554-.476-.421-.512.265-.071.664-.178 1.008.042 1.228-1.265 1.47-1.955 1.713-2.644-1.055-1.278-2.055-2.883-3.398-4.709-1.017 1.521-1.979 2.716-3.317 4.635-.601-1.712-.968-2.55-1.413-3.68 1.837-1.116 3.675-2.233 5.833-3.748.656 1.385 1.101 2.515 1.835 4.191.829-1.159 1.416-1.628 1.791-2.353.454-.434.696-1.123 1.58-2.609.734 1.677 1.18 2.806 1.625 3.936-1.384.683-2.58 1.003-3.831 1.651l.468 1.747 10.234-2.742c-.258-1.492.071-3.453-2.312-4.375.508-.761.938-1.813 1.447-2.573 1.352.262 2.438.595 3.447.637 4.825-3.79 11.485-3.39 17.286-6.193-.977-.987-1.743-1.718-2.508-2.45l-8.506 2.28c-.266.071-.509.76-1.15 1.556-.711-1.058-1.344-1.825-1.422-2.116l-5.183 1.389c-1.563-.518-2.916-.78-4.346-1.333l.703 2.621c-1.962-.411-3.104-.417-4.456-.679l.939-1.813c-.743-.113-1.407.065-2.15-.048-.297 1.016-.462 1.997-.924 3.994l-1.561-5.826c-1.306.974-2.158 1.515-3.542 2.198-.765-.731-1.875-1.683-3.196-2.89l4.99-4.771c.898.696 1.797 1.392 2.907 2.343 1.173-.939 1.947-1.77 3.065-2.382.61.149 1.43.553 2.04.702 1.361-1.301 2.799-2.311 4.692-3.755l2.696 2.088c2.135-2.133 3.949-3.868 5.818-5.93-2.993-1.071-5.987-2.142-8.715-3.284-.508.76-.962 1.194-1.47 1.955-1.43-.554-2.916-.78-4.346-1.334-.32.399-.508.761-.829 1.159-.688-.44-1.43-.553-2.251-.958.055-.327.11-.653.298-1.016 1.759-1.408 3.519-2.816 5.223-3.897a43.962 43.962 0 0 1-2.852-2.67l-7.974 2.137c-.821-.405-1.431-.554-2.462-1.214.719-.505 1.306-.974 2.291-1.55-.156-.583-.335-1.783-.593-3.275-1.384.683-2.103 1.187-2.557 1.621-3.267.564-6.136 1.02-9.271 1.548-.289-.547-.367-.838-.734-1.676l15.417-4.131c.031-.945.141-1.599.173-2.544 1.063-.285 2.181-.897 4.096-1.722-2.172-.667-3.658-.893-5.088-1.447 1.768-2.971 1.597-5.735.129-9.088-2.557 1.622-6.097-1.488-8.506 2.279-.82-.404-1.508-.844-2.806-1.433 2.26-.606 5.207-.771 5.77-1.858 1.315-2.538 3.979.494 5.426-2.079.696-1.123 3.565-1.58 5.426-2.078l6.778-1.816c-5.565-1.63-10.404-.022-15.102-.012-4.698.01-9.593 1.946-14.322 2.901-.133.036-.344-.22-.344-.22.055-.327.188-.362.32-.398l11.297-3.027c.962-1.194 1.815-1.735 2.777-2.93-1.509-.844-3.095-1.98-3.549-1.546-2.236 1.224-5.12-.501-6.911 1.852-3.259-1-6.348.764-9.349 1.256-2.376-2.485 1.658-2.317 1.744-3.59 2.572.56 5.019-.407 7.732-1.447.54-1.705 1.135-3.738 1.84-6.424l-8.506 2.28-1.483-5.535c-.798.213-1.54.1-2.205.278-.109.654-.141 1.6-.361 2.907-.976-.987-1.875-1.683-2.43-2.159-1.36 1.301-1.814 1.735-2.533 2.24-1.22-.298-2.361-.304-3.58-.602-.509.76-.962 1.195-1.283 1.593-.953-.37-1.985-1.03-3.415-1.583-.298 1.017-.728 2.069-.948 3.376-1.234-2.479-5.236-3.592-3.757-7.11a85.194 85.194 0 0 0 4.314 2.278c.76-3.013 1.41-5.373 2.169-8.386l-5.582 1.496a92.98 92.98 0 0 0-1.936-5.1c-.407 1.67-.572 2.65-1.002 3.702-1.564-.518-2.916-.78-4.479-1.298-.962 1.195-2.057 2.425-3.932.742-.454.434-.775.832-1.283 1.592-1.361 1.302-2.829-2.051-4.62.302-1.15 1.556-3.291-.055-5.206.77-1.517.719-3.456.926-5.317 1.425l-.624-2.33c.954.368 1.43.553 2.173.666.751-1.45 1.502-2.9 2.386-4.385 4.502 1.915 6.333-2.946 10.179-2.416-.125-1.527-.171-2.764-.272-3.673l1.727-.463c.633.767 1.188 1.243 1.954 1.974.297-1.016.65-2.36 1.08-3.411-4.291-1.66-9.255-1.579-14.484-1.426-1.939.207-3.144 2.09-5.582 1.495-1.962-.41-4.464.884-6.513 1.745-4.839 1.61-10.28 1.506-14.518 4.827-3.947-1.44-7.951 2.755-11.234 1.137-2.978 1.11-5.293 2.042-7.662 3.302-.633-.767-1.054-1.279-1.765-2.337-.353 1.343-.783 2.395-.838 2.722-5.105 1.68-8.358 4.425-12.712 4.655-2.072.243-4.112-.46-6.129-.543-.187.362-.641.796-.962 1.194-.82-.404-1.641-.809-2.118-.993.165-.981.251-2.253.448-4.179-1.15 1.557-1.471 1.955-2.699 3.22.197-1.925.283-3.197.393-3.85 2.603-.386 4.675-.629 6.457-1.419 7.795-3.337 7.795-3.337 18.388-3.678 1.141.007 2.204-.278 3.267-.563 3.002-.492 5.068-4.48 8.827-2.677l9.835-2.636c3.323-.89 6.723-1.489 9.835-2.635 1.915-.825 3.58.602 5.339-.806 1.306-.974 3.034-1.438 5.747-2.477-3.424-.019-5.785-.323-8.411-.556.54-1.705.947-3.375 1.409-5.372-.609-.15-1.43-.554-1.985-1.03-6.348.765-12.126 4.186-18.653 3.75-.861 2.104-3.323.89-4.894 1.936-1.838 1.116-3.753 1.942-5.856 3.13-.133.035-.61-.149-1.642-.81-3.339 4.018-7.991 5.264-13.322 4.507.321-.398.563-1.087 1.392-2.246-4.894 1.936-9.803 1.69-12.735 4.037-4.629 1.864-9.177-1.288-12.649 2.765-.454.433-1.783.79-2.526.676-4.588-.643-8.74 1.406-13.071 2.254-1.86.499-3.588.962-5.347 2.37-1.705 1.08-5.707-.032-7.333 1.34-3.066 2.382-6.833 2.143-9.202 3.402-1.705 1.081-2.745 1.984-3.973 3.25-.344-.22-.821-.404-1.696-.482-1.173.939-2.557 1.622-3.918 2.923l1.327 4.952c-3.4.599-3.149-1.654-3.751-3.366-.93.25-1.594.427-2.392.64l1.405 5.244c-1.861.498-3.455.926-5.77 1.858.087-1.272.118-2.217.283-3.198-1.086-.333-2.439-.595-4.401-1.006.962-1.194 1.87-2.062 2.965-3.292-1.376-.88-2.618-1.796-3.994-2.676-1.283 1.593-2.245 2.787-3.637 5.033-.922-1.314-1.633-2.372-2.055-2.883-6.379 1.709-11.507 2.77-16.48 4.416-3.322.89-7.145.977-9.866 3.58-3.26-1-6.724 1.49-9.983.49l-18.607 4.985c-.687-.44-1.375-.88-2.251-.958-1.563-.518-3.236-.382-4.932-.864-.618 1.415-1.236 2.83-1.721 4.208-3.089 1.764-6.816-.984-9.249 2.166-3.181-.709-5.472.842-7.341 2.904.477.184 1.031.66 1.641.809-.65 2.359-1.167 4.683-2.059 7.732l-1.327-4.952c-2.681.094-5.426 2.078-7.48-.805.031-.945.173-2.544.314-4.143-1.563-.518-1.173.939-2.236 1.223-2.283-.012-4.909-.245-7.669-.442-.774.832-1.493 1.336-2.4 2.204-.766-.731-1.399-1.498-2.165-2.23-.696 1.123-1.47 1.955-2.111 2.751-1.11-.951-2.353-1.867-3.595-2.783-.298 1.016-.329 1.962-.439 2.615-1.032-.66-1.852-1.064-3.571-2.165.014 2.182-23.065 9.615-23.05 11.796-1.156-2.188-1.734-3.282-2.523-4.631-1.361 1.301-2.323 2.495-3.738 4.123-.532.143-2.104 1.188-3.057.819-2.65-.851-5.088-1.446-8.732-.158.133-.035-.641.797-1.525 2.282-.743-.113-1.618-.19-2.837-.488-.376.725-1.017 1.521-1.901 3.007 3.025.126 5.44.103 7.934.371-1.228 1.266-2.456 2.531-3.551 3.761-2.071.243-4.01.451-6.48.8-.196 1.926-.283 3.198-.479 5.124l3.189-.855.165-.981c.344.22.688.44.766.732l2.392-.641c.165-.981.407-1.67.705-2.687 1.101 2.515 1.101 2.515-.292 4.761-.82-.404-1.508-.844-2.672-1.469l-.931.249.781 2.913c-.829 1.159-1.658 2.318-2.167 3.078-5.839.004-11.352 3.354-16.408.963-1.04.903-1.627 1.372-2.268 2.168-.876-.077-1.962-.411-2.97-.453-.72.505-1.494 1.337-2.213 1.842-3.236-.381-3.236-.381-8.021.901-1.728.463-3.924-.822-5.394 1.133-2.063-1.321-3.878.414-5.816.622-3.236-.382-5.317 1.424-7.591-.152-.476-.184-1.837 1.117-2.9 1.402-1.861.498-3.8.706-5.739.913-1.672.136-3.423-.019-5.096.117-1.86.498-3.51 1.253-6.013 2.547-2.016-.084-4.963.082-8.919.205-.32.398-.884 1.486-1.26 2.211.5.802.657 1.385.922 1.314 2.15.048 4.057.786 6.371-.147 4.84-1.609 9.726-1.981 14.635-1.736l1.329-.356c4.229-1.757 8.552-1.042 12.883-1.891-.306 2.58-2.886 3.583-4.715 3.137-3.103-.417-5.761.295-8.341 1.298-2.049.861-4.667-.935-6.247 1.674-2.25-.958-4.62.301-6.903.289-.398.106-.82-.405-1.086-.334-2.51 2.858-5.668 2.768-9.381 2.202-.376.725-.884 1.485-1.37 2.864l5.317-1.424c-.11.654-.087 1.272-.22 1.307-2.181.897-4.362 1.794-6.997 3.124.031-.945.063-1.89.15-3.162-.133.036-.743-.113-1.618-.191-.408 1.67-.893 3.049-1.355 5.046 1.673-.136 2.87-.457 4.675-.628-.165.98-.196 1.925-.36 2.906 1.218.298 2.704.524 4.189.751.586-.47 1.095-1.23 1.814-1.735 2.415-.023 4.909.245 7.801.407.266-.071.72-.505 1.306-.974 4.01-.45 8.076-1.228 12.883-1.891 0 0 .587-.47 1.095-1.23l12.5.397c.453-.434.829-1.159.696-1.123 3.987-1.069 7.691 1.061 11.343-1.791 1.751.155 3.768.239 5.917.288.815-3.341 5.464.721 6.622-2.399 2.486 1.831 4.941-.7 7.7-.502 2.627.232 5.606-.878 9.139-1.513.344.22 1.298.589 2.595 1.178-.641.797-1.095 1.23-2.323 2.496.266-.071.61.149.876.077-.72.505-1.517.719-1.595.428-.743-.113-.555-.476-.422-.512l.532-.142c.219-1.308-.469-1.748-1.023-2.223-.642.796-1.228 1.265-1.87 2.061-.82-.404-1.563-.517-2.305-.631-.509.761-.884 1.486-1.471 1.955.477.185 1.032.661 1.985 1.029-1.993.535-3.51 1.253-4.706 1.574-1.454-1.172-2.485-1.832-3.806-3.039-.164.981-.196 1.926-.306 2.579-2.649-.851-4.839 1.609-7.466 1.377-1.274.029-4.94.699-7.567.466-.453.434-.962 1.195-1.736 2.026-6.042-1.815-11.672 3.752-17.902 2.3-.875-.078-2.126.569-3.323.89-2.658.712-5.558 2.114-7.919 1.81-2.837-.489-3.964 1.686-6.168 1.965-3.534.634-6.77.253-10.937.12-.242.69-.595 2.033-.892 3.049-2.76-.197-4.721-.608-6.738-.692-1.939.207-3.987 1.069-5.926 1.276-2.072.243-4.152 2.049-6.559.508-.485 1.379-1.048 2.467-1.721 4.208-.798.214-1.916.825-3.831 1.651 2.892.162 4.909.246 6.98.003.321-.398.775-.832 1.15-1.557.743.113 1.563.518 2.173.666 1.76-1.408 3.253-2.744 5.013-4.152 1.375.88 2.75 1.76 4.204 2.931 1.04-.903 1.892-1.443 2.533-2.239 2.017.084 3.823-.088 5.84-.004l.546 2.039c-1.274.029-2.15-.049-3.822.088l-1.173.938c-1.595.428-3.892-1.767-4.918 1.318-1.852-1.065-4.464.884-5.495.224-2.274-1.576-3.401.599-4.863.99-1.939.208-3.8.706-5.738.913-1.939.208-3.745.379-6.215.729-.242.69-.806 1.777-1.236 2.829-1.485-.226-2.439-.595-3.58-.602l-.384 2.288c1.939-.207 3.534-.634 5.206-.77.688.44 1.43.553 2.251.958-.641.796-1.282 1.592-1.979 2.715.977.987 1.743 1.719 2.93 2.961 2.003-2.097 4.083-3.903 6.085-6.001-.688-.44-1.165-.624-1.852-1.064.719-.505 1.25-.648 2.236-1.224.578 1.094.945 1.932 1.6 3.317l2.393-.641s-.133.036-.21-.255c.187-.363.508-.761.695-1.123.133-.036.344.22.477.184-.32.398-.508.761-1.04.903.078.291.156.583.18 1.201 0 0 .132-.036.054-.327.477.184.82.405 1.298.589-.133.036-.188.362-.321.398-.344-.22-.82-.404-1.032-.66l-1.727.463c-1.76 1.408-2.612 1.948-3.386 2.78 6.888-2.47 13.267-4.179 15.15-4.059-.164.98-7.583 3.593-14.792 6.461l.93-.25c8.882-3.004 21.883-7.112 22.79-7.979.39 1.456-26.753 9.666-26.441 10.831l-3.323.89-1.031-.66.531-.142c-3.964 1.686-6.943 2.797-7.052 3.45-4.135-1.077-3.692 5.36-8.46 3.516.165-.981.407-1.67.627-2.978-2.049.861-3.167 1.473-2.745 1.984-2.548.059-3.955.124-5.628.26-.376.725-.962 1.194-1.658 2.317.687.44 1.375.88 1.985 1.029 2.947-.165 6.082-.693 8.974-.531 2.15.048 3.643-1.289 5.527-1.169 2.15.048 4.034.168 6.261.508 2.026-1.48 4.129-2.668 5.966-3.784 2.838.488 5.464.721 8.169 1.245.852-.54 1.493-1.337 2.4-2.204.633.767 1.055 1.278 1.766 2.337.83-1.159 1.736-2.027 2.886-3.584l1.015 3.787 2.26-.605c.499.802 24.07-4.265 24.859-2.915.962-1.194 1.736-2.026 2.753-3.547l.936 3.495c-2.126.57-4.949 2.263-6.856 1.525-2.782-.816-3.597 2.525-5.582 1.495-2.118-.993-3.886 1.978-5.949.658l1.249 4.66c1.173-.938 2.025-1.479 3.065-2.382.367.838.812 1.968 1.257 3.097l-7.31 1.959c-.196 1.926-.47 3.56-.69 4.868-7.41 1.049-14.547.464-21.31 4.461-1.087-.333-2.705-.524-4.057-.786-1.04.903-2.026 1.479-3.331 2.454.765.731 1.32 1.207 2.219 1.902-.532.143-.985.577-1.97 1.153-.579-1.094-1.29-2.152-1.946-3.537l-.932 5.557-5.183 1.388.156.583c5.55-.551 10.89-1.357 16.971-2.05 3.496-3.434 8.428-2.57 13.736-2.432.985-.576 2.369-1.259 4.019-2.013l1.014 3.787c-1.618-.191-2.759-.198-4.588-.644-.829 1.159-1.791 2.353-2.753 3.547-.954-.369-1.563-.517-1.696-.482a110.929 110.929 0 0 0-3.074 3.946s.29.547.766.731c1.508.845 2.939 1.398 4.713 2.171-.43 1.052-.673 1.742-1.049 2.467.477.184.954.369 1.508.844-1.493 1.337-3.198 2.418-5.09 3.862 3.727 2.747 7.535.478 11.733-.334-.086 1.271-.173 2.543-.369 4.469.61.149 1.751.155 2.892.162-.187.362-.242.689-.43 1.052 2.181-.897 4.152-2.049 6.466-2.982.82.405 1.72 1.101 2.75 1.761l-.75 1.45c-2.182.896-4.519 1.211-6.544 2.69-1.76 1.408-4.863.991-8.13 1.554.132-.036-.321.398-.509.761-3.002.492-5.871.948-9.084 1.185l-.987 5.884c2.704.524 4.634 1.88 5.071 4.573-.508.76-1.017 1.521-1.205 1.883-2.196-1.284-4.525-2.534-6.377-3.598l-8.506 2.279c3.196 2.89 7.12 3.712 10.559 5.912l.858 3.204c.954.369 1.774.774 1.985 1.029 1.916-.825 3.3-1.508 5.16-2.007.047 1.237.336 1.784.015 2.182-.962 1.194-6.52 3.308-7.882 4.609 2.118.994 31.271-5.569 32.912-4.76.454-.434.907-.868 1.682-1.699 6.417 1.09 12.906-1.273 18.887-2.876 1.485.227 2.251.958 2.751 1.761 1.141.006 2.47-.35 3.877-.415.211.256.211.256.344.22-1.54.1-2.947.165-4.088.159l.078.291c-3.745.379-7.091.651-7.114.033-.266.071-.742-.113-1.008-.042-.376.725-.884 1.486-.994 2.14-.11.653 4.698-.011 9.506-.674l.156.582c-.055.327 1.939-.207 4.941-.699 1.063-.285 2.126-.57 3.4-.599l-3.721.997c-1.118.612-2.103 1.188-2.025 1.479l4.651-1.246c-.586.469-1.383.683-1.97 1.152l.07 1.854-5.848 1.567c-.5-.802-1.055-1.278-1.688-2.045-.852.541-1.626 1.372-2.612 1.949-.82-.405-1.907-.738-3.071-1.363-.141 1.599-.361 2.907-.557 4.832-1.595.428-2.979 1.111-4.84 1.609-.774.832-1.603 1.991-2.698 3.221-.953-.369-1.696-.482-2.517-.887-.32.398-.774.832-1.094 1.23-.954-.369-1.986-1.029-2.939-1.398-.587.47-1.173.939-1.814 1.735-.876-.077-1.962-.411-3.924-.822-.353 1.344-.627 2.978-1.034 4.648l-1.43-.553c.477.184 1.031.66 2.54 1.505-2.549.058-3.956.123-5.496.223-.618 1.415-1.103 2.793-1.854 4.243l-2.297-2.194c-.775.832-1.627 1.373-2.346 1.878-.422-.512-.977-.987-1.61-1.754-1.15 1.556-2.167 3.078-3.316 4.635-1.009-.042-2.017-.084-4.378-.389 1.665 1.428 2.563 2.123 2.907 2.343 7.943-1.191 15.299-1.914 22.843-2.998.711 1.058 6.018 1.197 6.94 2.511-.219 1.307-5.246 3.279-13.166 5.088-1.086-.333-2.25-.957-3.548-1.546-.032.945-.141 1.599-.494 2.942-1.11-.952-1.875-1.683-2.43-2.159-3.519 2.816-6.709 3.671-10.288 3.069l-.962 1.194c-1.494 1.337-3.15-1.653-4.808.664-.376.725-2.47.35-3.8.706l-5.847 1.567c1.054 1.278 1.82 2.01 2.375 2.486 3.502.31 6.622-2.399 9.881-1.399 1.87-2.062 4.918-1.318 7.42-2.613 2.768-1.366 6.09-2.256 9.67-1.654 1.962.41 4.464-.884 6.512-1.745 2.791-.748 5.504-1.787 8.177-.318-.384 2.288-6.402 1.091-5.287 5.787 1.306-.974 2.292-1.55 3.675-2.233 1.142.006 2.893.161 4.488-.266 1.727-.463 3.487-1.871 4.972-1.645 2.15.049 3.346-.272 4.495-1.829 1.087.334 2.251.958 3.072 1.363.852-.541 1.626-1.373 2.612-1.949.633.767 1.132 1.57 1.898 2.301a200.45 200.45 0 0 1 7.873-3.046c.266-.071 1.751.155 3.236.382-.054.326-.109.653-.242.689-2.182.897-3.817 3.832-6.778 1.816-1.916.826-4.066.777-6.013 2.548-2.611 1.948-5.7 3.712-9.444 4.091-1.806.172-3.433 1.544-6.146 2.584-.344-.22-1.43-.554-2.86-1.107l-5.715 1.531c.023.618-.22 1.308-.439 2.615-.977-.987-1.875-1.682-3.407-3.145-.33 1.961-.306 2.579-.416 3.233-1.384.683-2.69 1.657-4.66 2.81-.844-1.023-1.898-2.301-3.086-3.544l-3.19.855.703 2.621c-.907.868-1.76 1.408-2.878 2.02.766.731 1.454 1.171 2.087 1.938-.321.399-.697 1.124-1.017 1.522-.133.035-.321.398-.321.398-1.618-.191-3.369-.346-5.12-.501-.078-.292-.101-.91-.257-1.492 1.274-.03 2.282.012 3.767.239-.1-.91-.124-1.528-.147-2.146l-6.38 1.709c-.11.654-.22 1.308-.25 2.253-1.298-.589-2.385-.922-3.416-1.582-.641.796-1.205 1.883-1.979 2.715-.766-.731-1.453-1.171-2.774-2.378-.728 2.068-1.268 3.773-1.941 5.515 1.141.006 2.228.339 3.502.31-.165.981-.407 1.67-.705 2.686.477.185 1.165.625 2.118.994.165-.981.407-1.67.705-2.686.766.731 1.133 1.569 1.953 1.974.821.404 2.017.084 3.103.417.188-.363.642-.796 1.15-1.557.876.078 1.962.411 3.049.744.852-.54 1.892-1.443 3.198-2.418.5.803.922 1.314 1.687 2.046l-7.974 2.136 1.249 4.661 1.283-1.593c2.947-.165 5.683-.586 8.153-.936.83-1.158 1.205-1.883 1.713-2.644l-1.014-3.787-2.393.641-1.014-3.786c1.531 1.463 2.508 2.45 3.407 3.145l3.056-.819c-.352 1.343-.517 2.324-.869 3.667 1.297.589 2.994 1.071 4.69 1.553a26.227 26.227 0 0 0-2.855 2.638c-.774.832-1.337 1.92-2.3 3.114-.5-.802-.788-1.349-1.077-1.896l-6.247 1.673.703 2.622c2.415-.023 4.964-.081 7.434-.431.32-.398.774-.832 1.017-1.521 1.985 1.029 3.658.893 5.128-1.062 1.774.773 3.291.054 4.652-1.247 2.485 1.832 3.01-2.055 5.183-1.389.211.256.633.767 1.555 2.081.352-1.343.783-2.395.838-2.722a367.43 367.43 0 0 0 9.716-.418c.454-.434.775-.832 1.017-1.521.61.149 1.165.624 2.04.702.72-.505 1.494-1.337 2.135-2.133 2.017.084 4.167.132 6.582.11-.751 1.45-1.369 2.864-1.932 3.951 1.086.334 2.172.667 3.736 1.185-2.291 1.55-4.129 2.667-5.966 3.784-.477-.185-1.087-.334-2.04-.703-.376.725-.884 1.486-1.581 2.609 1.032.66 2.064 1.321 3.228 1.945.719-.505 1.439-1.01 2.213-1.842 1.884.12 4.245.424 7.004.621-3.253 2.745-7.732 1.448-10.031 4.561-3.791-.857-2.711-4.269-4.078-6.712a83.85 83.85 0 0 0-6.316-.181c-.43 1.052-.994 2.14-1.369 2.865-1.485-.227-2.439-.596-4.057-.786.257 1.492.359 2.401.46 3.31 2.017.084 4.033.168 6.66.401.164-.98.517-2.324.924-3.994 1.742 1.719 2.508 2.45 3.751 3.366-.454.434-1.173.939-1.815 1.735-.133.036-.609-.149-1.164-.625-.454.434-1.04.903-1.682 1.7-.875-.078-1.961-.411-2.837-.489-3.542 2.198-7.084 4.396-10.493 6.558l-1.43-.553c-.72.505-1.572 1.045-2.479 1.913l-3.095-1.981c-2.034 3.043-5.645 3.386-7.928 3.373-3.025-.126-4.05 2.959-7.122 1.596-.65 2.36-1.245 4.392-1.84 6.425 9.584-.383 18.489-2.769 28.315-3.841 4.747-4.081 11.375-2.735 17.989-3.571.399-.107 1.173-.939 2.103-1.188 4.84-1.609 9.913-2.344 14.932-2.752.532-.143 1.563.518 1.563.518 1.635-2.936 4.253-1.14 6.325-1.383.453-.434.829-1.159 1.337-1.919.367.838.656 1.385.945 1.932-3.143 2.091-7.544 1.085-9.843 4.198-4.51-.352-8.044.283-12.329 2.367l-.384 2.288c-1.687-2.045-3.297-3.799-6.784-1.928 1.243.916 2.352 1.867 4.017 3.294-1.939.208-3.346.273-4.753.337l1.092 4.078c4.378.388 8.677.485 12.649-2.765 1.041-.903 3.268-.563 4.863-.99 1.063-.285 2.072-.243 3.08-.201l1.855-4.243c1.031.66 1.719 1.1 2.617 1.796.188-.363.509-.761.697-1.124.133-.035.344.221.476.185-.32.398-.508.761-1.04.903.688.44 1.454 1.172 2.142 1.612 4.807-.664 8.959-2.713 12.345-5.494 5.198.793 10.428.64 15.822-.493l3.854-1.033.399-.106c1.595-.428 3.112-1.146 4.652-1.247l-3.589.962c.93-.25 1.939-.208 2.97.453 1.509.844 2.104-1.188 3.566-1.58.609.149 1.141.006 1.751.155l.132-.036c1.142.007 2.956-1.728 4.551-2.155 1.595-.428 3.346-.272 5.816-.622 0 0 .508-.761 1.361-1.301 1.517-.719 4.025 1.731 5.261-1.098 1.875 1.683 4.143-.486 6.371-.146 1.563.518 3.276-2.127 5.417-.515.587-.469.908-.868 1.361-1.301.321-.398.774-.832.985-.577 1.775.774 2.924-.783 4.253-1.139 2.072-.243 4.034.168 6.184.216.883-1.485 2.345-1.877 4.198-.812 2.799-2.311 6.021-4.111 9.702-2.6.774-.832 1.36-1.301 2.002-2.097 1.008.042 1.962.41 3.314.672.453-.433.962-1.194 1.869-2.061.445 1.129.812 1.967 1.413 3.679-1.407.065-2.415.023-3.822.088-3.011 2.056-6.865 3.088-11.164 2.992-.61-.149-1.485-.227-1.884-.12-4.637 3.428-10.679 1.613-15.417 4.131-1.251.647-2.635 1.33-4.074 2.34-1.086-.333-2.384-.922-4.025-1.731-.586.469-1.306.974-1.947 1.77-.344-.22-.953-.368-1.297-.588-2.58 1.003-5.082 2.298-7.53 3.266-1.297-.589-2.25-.958-3.071-1.363-1.65.755-3.112 1.146-4.55 2.156-.72.505-1.65.755-2.448.968-.187.363-.508.761-.696 1.123l-1.43-.553-.93.249c-.454.434-.908.868-1.627 1.373-4.987-.537-9.514 2.237-14.51 3.263-1.329.356-2.713 1.039-4.761 1.9-.344-.22-1.243-.915-1.587-1.136-5.417.515-9.733 3.545-14.611 2.355-1.103 2.793-3.909 1.359-5.824 2.185-2.182.896-4.496 1.829-6.888 2.47-1.462.391-3.643 1.288-4.464.884-2.329-1.25-2.002 2.097-3.776 1.324-.61-.149-1.165-.625-1.641-.809-2.369 1.259-4.606 2.482-7.108 3.777a69.324 69.324 0 0 1 2.907 2.343l12.493-3.347c.289.547.578 1.093 1.078 1.896 1.384-.683 2.644-2.894 4.175-1.431 1.384-.683 2.635-1.33 3.753-1.942 1.321 1.207 2.352 1.867 3.118 2.599 3.002-.492 5.472-.842 8.685-1.079 1.947-1.77 5.215-2.334 8.561-2.606 5.55-.55 10.812-1.648 16.027-3.982l2.063 1.32c.508-.76 1.017-1.521 1.47-1.955 1.407-.064 3.08-.2 4.62-.301.188-.362.564-1.087 1.017-1.521.688.44 1.376.88 2.141 1.611.985-.576 1.705-1.081 2.612-1.948 1.43.553 2.97.453 4.253-1.14 2.485 1.832 3.166-1.472 5.105-1.68.821.405 1.641.809 2.329 1.249 6.145-2.583 12.048-4.477 19.084-4.801.132-.036.907-.867 1.759-1.408 1.219.298 2.361.304 3.58.602.508-.761.962-1.195 1.283-1.593.344.22.687.44 1.164.625.477.184 1.141.006 1.141.006.971-2.757 5.464.722 5.591-3.059 1.485.227 2.571.56 3.791.858.586-.47.962-1.195 1.548-1.664.61.149 1.165.625 1.774.773 5.473-.841 10.454-4.049 16.183-3.399 1.791-2.353 5.105-1.68 7.131-3.16 1.837-1.116 3.923.822 5.793-1.24.696-1.123 3.58.602 4.784-1.282 10.061-.198 19.162-4.509 28.887-6.491.93-.249 2.017.084 3.103.417 1.251-.647 2.346-1.877 3.753-1.942 1.595-.427 3.346-.272 5.097-.117 1.54-.1 2.135-2.133 4.253-1.139.953.368 1.924-2.389 4.12-1.104 1.375.88 2.213-1.842 4.308-1.467 1.618.191 3.4-.599 5.206-.77l5.316-1.425c.798-.214 1.306-.974 1.893-1.444.476.185 1.086.334 1.774.774 2.666-2.276 5.622-4.004 9.436-2.529.852-.54 1.494-1.336 2.534-2.239.609.148 1.43.553 2.173.666.32-.398.774-.832.696-1.123 3.533-.635 6.746-.871 10.28-1.506.829-1.159 1.392-2.246 2.221-3.405 1.485.227 3.314.673 5.065.828.72-.505 1.361-1.301 2.346-1.877.633.767 1.133 1.57 1.766 2.337.985-.577 1.892-1.444 3.276-2.127.61.149 1.618.191 2.838.488.453-.433 1.04-.903 1.681-1.699 1.563.518 3.204 1.327 3.776-1.324.821.405 1.43.554 2.118.994.907-.868 1.892-1.444 2.8-2.311.953.368 1.696.482 2.571.559 1.627-1.372 3.198-2.418 5.544-4.295.578 1.094 1.289 2.152 1.867 3.246 1.549-1.664 2.002-2.097 2.135-2.133 3.401-.599 6.536-1.127 9.725-1.981.783-2.396 5.065.828 5.325-2.988 2.751 1.76 24.056-6.446 26.705-5.595 6.388-3.272 15.027-5.587 20.867-5.591.875.078 1.805-.172 2.658-.712 5.082-2.298 4.949-2.263 12.227-3.276 1.196-.321 2.979-1.111 4.363-1.794a7.734 7.734 0 0 1 3.588-.961c.532-.143 1.563.517 1.751.155 2.534-2.24 6.16-.402 8.772-2.35.453-.434.774-.832 1.227-1.266 6.816.983 12.251-2.658 18.075-4.843 1.298.589 2.462 1.213 3.072 1.362 1.525-2.282 3.051-4.564 4.654-6.554-.344-.22-.821-.405-1.774-.774-.829 1.159-1.604 1.991-2.753 3.548-.766-.732-1.454-1.172-2.485-1.832l-9.57 2.564c-.109.654-.141 1.599-.251 2.253l-1.594.427-1.266-1.534c-.399.107-.876-.077-1.274.029-4.253 1.14-8.483 2.898-13.071 2.254-.61-.149-1.384.683-2.502 1.295-1.54.1-3.557.016-5.918-.288-.321.398-.618 1.415-.939 1.813-4.675.628-8.74 1.405-13.415 2.033-.132.036-.719.505-1.227 1.266-4.644-.317-6.903.289-9.648 2.273-1.672.136-11.585 2.48-12.86 2.509-2.47.35-23.688 7.284-26.361 5.815-1.447 2.573-4.285 2.084-6.544 2.69-.532.142-1.352-.262-2.04-.702-1.274.029-2.627-.233-4.776-.282 1.242.916 1.664 1.428 2.563 2.123-3.987 1.069-7.443 1.995-10.843 2.594a476.976 476.976 0 0 0 2.981-6.419c3.423.02 6.581.11 9.607.236l.468 1.748 2.126-.57.384-2.288c.743.113 1.353.262 2.439.595.907-.868 1.736-2.026 2.776-2.929 2.15.048 23.039-4.925 25.666-4.692.32-.398.907-.867 1.603-1.991.743.114 10.468-1.868 11.953-1.641.43-1.052.861-2.104 1.103-2.794 4.409-.557 8.154-.936 12.43-1.457 2.268-2.169 5.458-3.023 9.248-2.166.627-2.978 3.91-1.36 5.88-2.512 1.705-1.081 4.941-.699 7.544-1.085 2.525-.676 5.339-.806 7.263-3.195.743.114 1.431.554 2.306.631l.563-1.087 4.62-.302c.595-2.032 1.002-3.702 1.574-6.353 2.274 1.576 3.994 2.676 5.924 4.032l8.506-2.279a71.835 71.835 0 0 0-4.612-1.262c.055-.327.11-.654.298-1.016 1.141.006 2.204-.279 3.611-.343.266-.072.775-.832 1.549-1.664 1.297.589 2.595 1.178 3.681 1.511.563-1.087 1.338-1.919 2.276-3.732.734 1.677 1.312 2.771 1.758 3.9l3.721-.997c-.234-.874-.39-1.456-.492-2.366 0 0-.133.036-.054.327-.477-.184-.821-.404-1.298-.589.133-.036.188-.362.321-.398.344.22.82.404 1.031.66.775-.832 1.682-1.699 3.097-3.327 1.861-.499 4.73-.955 8.529-1.661.555.476 2.064 1.32 4.205 2.932-.148-2.146-.249-3.056-.374-4.583l6.646-1.781c-1.165-.624-1.642-.809-2.329-1.249-1.939.207-3.629 3.47-5.871.949-.642.796-1.228 1.265-1.869 2.062-1.587-1.136-2.962-2.016-4.549-3.152-.907.867-1.759 1.408-2.666 2.275-.477-.184-1.298-.589-1.618-.191-1.916.826-3.753 1.943-6.388 3.273-.344-.22-1.376-.88-2.618-1.796-1.04.903-1.814 1.735-2.667 2.275-.875-.077-1.962-.41-2.97-.452-1.97 1.152-3.73 2.56-5.833 3.748-.821-.405-1.774-.774-3.072-1.363-1.837 1.117-4.065.778-6.278 2.619-2.744 1.984-6.567 2.072-9.295.93-3.221 1.8-6.122 3.201-9.077 4.93-.844-1.023-1.266-1.534-1.766-2.337-5.073.735-9.28 3.111-13.541 5.814-4.401-1.006-8.53 1.661-13.072 2.254-.289-.547-.71-1.059-1.343-1.826-.454.434-.775.832-.775.832-2.337.314-4.331.848-6.402 1.091-.665.178-1.352-.262-1.907-.737 0 0-.133.035-.055.326-.477-.184-.821-.404-1.297-.588.132-.036.187-.363.32-.399.344.22.821.405 1.032.661 1.384-.683 2.822-1.693 4.339-2.412 1.65-.754 3.456-.926 4.519-1.211 1.485.227 2.415-.023 3.103.418.821.404 1.321 1.207 2.141 1.611.477.185 1.462-.392 2.526-.677-1.032-.66-1.509-.844-2.673-1.469 3.135-.527 5.426-2.078 8.419-1.007 2.08-1.806 2.08-1.806 5.183-1.389.642-.796 1.205-1.883 1.846-2.68 3.777-1.324 7.631-2.356 11.312-.845 2.112-2.751 5.692-2.15 8.46-3.516 2.845-1.075 6.214-.728 8.404-3.188 3.259.999 5.894-.331 8.295-2.535.876.077 1.962.411 3.314.673.587-.47.962-1.195 1.604-1.991 2.149.049 4.432.061 7.191.259.509-.761 1.416-1.629 2.245-2.787 1.219.297 2.228.339 3.447.637.586-.469.962-1.194 1.548-1.664.477.185 1.087.334 1.907.738.587-.469 1.306-.974 2.081-1.806.132-.036.82.405 1.086.333 1.517-.718 2.823-1.693 4.418-2.12 1.329-.356 3.103.417 4.354-.23 2.181-.897 4.151-2.049 6.255-3.237-1.509-.845-2.806-1.434-4.447-2.243-3.707 3.179-8.116 3.736-12.369 4.876-.531.142-1.086-.334-1.696-.483-1.314 2.538-4.23 1.758-6.333 2.946a82.112 82.112 0 0 0-2.806-1.433c-3.299 1.508-6.466 2.981-10.219 4.923-.953-.369-2.251-.958-3.892-1.767-.852.541-1.97 1.153-3.01 2.056-.853.54-2.04-.703-2.924.783-.376.725-2.447.968-3.643 1.289-1.064.284-2.713 1.039-3.135.527-1.454-1.171-1.971 1.153-2.924.784-1.032-.66-1.907-.738-2.869.456-.642.797-2.025 1.48-2.768 1.366-3.713-.566-6.764 3.998-10.202 1.797-1.838 1.117-3.487 1.871-5.137 2.626l-.633-.767c1.04-.903 1.947-1.771 3.198-2.418a60.522 60.522 0 0 1 4.684-2.192c3.337 1.291 6.48-.8 9.546-3.182.141-1.599.36-2.906.502-4.505l5.449-1.46c2.378-2.823 4.38-4.92 6.515-7.053l-.703-2.622c-2.204.279-4.909-.245-6.481.8-2.158 1.515-5.136 2.625-6.833 2.143-2.438-.595-4.128 2.668-6.292.438-.431 1.052-.939 1.812-1.315 2.537-3.213.237-6.027.367-9.052.241-.454.433-.907.867-2.401 2.204.462-1.997.76-3.013 1.112-4.357l19.005-5.092c.798-.214 1.751.155 2.494.268 2.493.269 3.721-.997 4.66-2.809-1.297-.589-2.728-1.143-4.502-1.916l-4.784 1.282c.829-1.159 1.126-2.175 1.658-2.317l10.234-2.743c1.196-.32 3.158.091 3.533-.634 1.658-2.318 4.441-1.502 6.732-3.053-.627 2.978-.8 5.522 3.069 6.67 2.268-2.168 5.036-3.534 8.85-2.059.43-1.052.861-2.103 1.346-3.482-2.15-.049-4.354.23-6.77.253l-.78-2.913c3.002-.492 5.746-2.476 8.951-1.15 4.05-2.958 8.436-4.133 13.478-3.923a435.39 435.39 0 0 1 9.93-5.471l-.39-1.456c-.477-.185-.876-.078-1.274.029-3.057.819-5.279 4.224-9.015 3.04-3.126-1.036-5.824 2.185-9.029.858-.82-.404-3.08.201-3.799.706-2.566 3.185-5.692 2.15-9.593 1.946 1.041-.903 2.026-1.479 3.597-2.525 1.806-.171 4.941-.699 7.622-.793 1.815-1.735 3.175-3.036 4.724-4.7-1.852-1.065-3.361-1.909-4.736-2.79-.509.761-.962 1.195-1.471 1.955-.953-.368-1.961-.41-3.048-.744-.719.505-1.494 1.337-2.534 2.24-.609-.149-1.43-.553-1.563-.518-1.595.428-2.9 1.402-3.51 1.253-1.774-.773-1.572 1.046-2.369 1.259-1.274.03-2.471.35-4.143.486-.454.434-1.306.974-3.41 2.162.595-2.032.893-3.048 1.112-4.356 7.88.698 13.51-4.869 20.655-5.847l1.456-4.136c.477.184.954.369 1.563.518.188-.363.509-.761.829-1.159 2.65.851 4.909.246 6.013-2.548-.743-.113-1.54.101-2.549.059-.234-.874-19.286 2.982-19.676 1.526 1.485.226 21.233-4.753 21.71-4.569.641-.796-17.246 3.685-16.284 2.49-1.164-.624-1.985-1.029-3.017-1.689l-15.018 4.024c1.69-3.262 1.69-3.262 5.403-2.696.453-.434.696-1.123 1.283-1.592.742.113 1.485.226 2.759.197.188-.363.641-.796 1.228-1.266 3.377-1.217 6.888-2.47 10.398-3.723.266-.071.821.405 1.164.625.509-.761.962-1.194 1.471-1.955-.555-.476-1.11-.951-1.876-1.683.376-.725.884-1.485 1.581-2.609l2.531 3.068c1.641.809 3.51-1.252 4.293-3.647l6.645-1.781c.344.22 1.431.553 2.462 1.213.055-.326-.101-.909-.069-1.854.797-.214 1.86-.499 2.845-1.075.72-.505 1.095-1.23 1.682-1.699 1.219.298 2.095.375 3.103.417.321-.398.43-1.052.751-1.45.61.149 1.297.589 1.907.738 2.3-3.114 3.028-5.182 1.395-7.554zm-33.736-24.365c.179 1.201.148 2.146.327 3.347-.954-.369-.977-.988-1.321-1.208-.422-.511-1.031-.66-2.329-1.249l3.323-.89zm-8.775-26.37c.476.184 1.164.624 1.852 1.064-.376.725-.829 1.159-1.338 1.92-1.141-.007-2.149-.049-3.158-.091-1.008-.042-2.071.243-4.276.522 3.034-1.437 4.949-2.263 6.92-3.415zm-2.453-22.445l.398-.107.313 1.165-.399.107-.312-1.165zm-7.231 55.946l-.399.107-.312-1.165.399-.107.312 1.165zm-5.463-59.725l2.26-.606c.078.292.156.583.101.91-.797.213-1.54.1-2.337.314.133-.036.055-.327-.024-.618zm2.428 7.466l-4.917 1.318.494-2.942c1.563.517 2.649.851 4.423 1.624zm-9.484-13.068c.665-.178 1.54-.1 2.205-.279.078.292-.055.327.023.619l-2.26.605c.266-.071.188-.362.032-.945zm2.472 14.01l.399-.106.312 1.165-.399.107-.312-1.166zm-6.381-12.65l2.259-.606c.078.291.024.618.102.91-.665.178-1.54.1-2.205.278-.211-.256-.211-.256-.156-.582zm-4.175 1.43l1.329-.356.078.292-1.329.356-.078-.292zm18.546 45.294c.743.113 1.697.482 2.572.559.641-.796.962-1.194 1.337-1.919 1.032.66 1.853 1.065 3.228 1.945a54.732 54.732 0 0 1-2.112 2.751c-1.843-2.628-3.166 1.473-5.284.479-1.907-.737-4.629 1.865-6.394-.472 1.97-1.152 4.284-2.084 6.653-3.343zm-8.193 3.444c.101.909.046 1.236.124 1.527-.82-.404-1.641-.809-2.118-.993l1.994-.534zm-5.293 2.042l-1.329.357-.078-.292 1.329-.356.078.291zm-19.544-71.874l1.405 5.243a75.804 75.804 0 0 1-3.063-2.925c.453-.434.962-1.195 1.658-2.318zm-5.957 2.22l2.392-.64c.234.874.601 1.712.702 2.621.023.618-.563 1.088-1.017 1.521-.187.363-.453.434-.985.577l-1.092-4.078zm-37.019-25.982l2.658-.712.156.582-2.658.712-.156-.582zm-3.978-.495l.664-.178.624 2.33-.664.178-.624-2.33zm-3.855 1.033l.399-.107.312 1.165-.399.107-.312-1.165zm-5.371 1.751l2.26-.605.468 1.747c-1.008-.042-2.017-.084-3.103-.417.055-.327.109-.654.375-.725zm-4.065.777l.665-.178.624 2.33-.665.178-.624-2.33zm-3.839 3.214c.187-.362.508-.76.696-1.123.133-.035.344.22.476.185-.32.398-.641.796-1.172.938.132-.035.132-.035.343.22-.187.363-.508.761-.696 1.123-.133.036-.344-.22-.477-.184.321-.398.509-.76 1.173-.939-.133.036-.343-.22-.343-.22zM85.786 157.53l-2.658.712-.156-.582 2.658-.713.156.583zm4.034.168l-1.196.32c-.023-.618-.047-1.236.063-1.89l.665-.178.468 1.748zm9.569-2.564l-1.33.356-.077-.291 1.329-.356.078.291zm9.162-.894l-.399.107-.312-1.165.399-.107.312 1.165zm5.504-1.787l-1.595.427.439-2.615c.133-.035.477.185.61.149l.546 2.039zm-46.83 70.303l-2.26.606-.468-1.748c1.008.042 2.017.084 3.103.417-.188.363-.242.69-.375.725zm2.29-1.55l-.664.178-.624-2.33.664-.178.625 2.33zm7.692 1.061c.563-1.088 1.072-1.848 1.447-2.573.821.404 1.642.809 3.627 1.838-2.47.35-3.667.67-5.074.735zm-3.4 34.627l-1.328.356-.078-.291 1.329-.356.078.291zm23.353-43.095l-.399.107-.312-1.166.399-.106.312 1.165zm-1.827-5.755c-.867-1.64-.867-1.64 2.4-2.204-1.172.939-1.892 1.444-2.4 2.204zm5.793-1.24l-.665.178-.624-2.33.665-.178.624 2.33zm-.169 84.961l-1.329.357-.078-.292 1.329-.356.078.291zm8.263 18.079c.188-.363.454-.434.985-.576-.187.362-.32.398-.508.76-.133.036-.266.071-.477-.184zm1.306-.975l-1.015-3.786c1.829.446 3.049.744 4.667.935-1.228 1.265-2.002 2.097-3.652 2.851zm25.134-4.549l-2.26.606c-.078-.292-.023-.619-.101-.91.743.113 1.54-.1 2.283.013.133-.036.211.256.078.291zm-35.499 21.687l-.399.107-.312-1.165.399-.107.312 1.165zm11.476-1.826c-1.86.499-3.103-.417-3.415-1.582a33 33 0 0 0 3.415 1.582zm-6.9-5.019l1.196-.321c.023.619-.086 1.272-.063 1.891l-.665.178-.468-1.748zm-2.762 5.111c1.009.042 1.673-.136 2.948-.166-.697 1.123-1.072 1.848-2.011 3.661l-.937-3.495zm8.15 9.679c1.274-.029 2.47-.349 3.4-.599.844 1.023 1.61 1.754 2.243 2.521l-6.114 1.638c-1.133-1.569-2.399-3.103-3.531-4.673-.743-.113-1.54.101-2.416.023.642-.796 1.017-1.521 1.791-2.353 1.032.66 1.931 1.356 2.618 1.796l5.715-1.531c.133-.036.555.476.899.696-1.65.754-3.378 1.217-4.894 1.935.078.292.289.547.289.547zm13.453-18.902l.664-.178.625 2.33-.665.178-.624-2.33zm1.617 19.859c-.343-.22-.82-.404-.976-.987-.133.036-.055.327-.188.363-.477-.185-.821-.405-1.297-.589.132-.036.187-.363.32-.398.344.22.821.404.977.987.133-.036.055-.327.188-.363.476.185.82.405 1.297.589-.133.036-.188.363-.321.398zm3.644-1.288c-1.422-2.117-2.477-3.395-3.266-4.745-.211-.255.165-.98.462-1.997 1.43.554 2.517.887 3.127 1.036-.064 1.89-.072 3.453-.323 5.706zm-19.774 29.337l-1.329.356-.078-.291 1.329-.356.078.291zm63.989-33.38l.398-.107.313 1.165-.399.107-.312-1.165zm-40.625-148.956c-1.173.939-1.815 1.735-2.401 2.204-.789-1.349-.789-1.349 2.401-2.204zm-2.587-2.741c-1.485-.227-2.892-.162-4.299-.097l1.525-2.282c.899.696 1.876 1.683 2.774 2.379zm31.48 146.724l.078.291-1.329.356-.078-.291 1.329-.356zm-6.645 1.78l2.658-.712.156.582-2.658.713-.156-.583zm-30.613-125.415l.078.292-1.329.356-.078-.291 1.329-.357zm-4.464.884l.312 1.165-.399.107-.312-1.165.399-.107zm-5.152.444l.078.291-1.329.356-.078-.291 1.329-.356zm-3.835-7.401a77.058 77.058 0 0 0-1.487 5.081c-1.032-.66-1.642-.809-3.017-1.689 1.173-.939 2.291-1.551 4.504-3.392zm-23.819-17.657l1.33-.356.077.291-1.329.356-.078-.291zm-9.71 23.831c.164-.981.54-1.706.759-3.013 2.453 2.777.57 2.657-.76 3.013zm14.904-12.423c-.156-.582-.367-.838-.445-1.129l-3.057.819-.399.107-10.898 2.92c.243-.689 9.07-3.367 16.754-6.05.188-.363.321-.399.509-.761.133-.036.344.22.477.184-.133.036-.188.363-.321.399 1.462-.392 2.713-1.04 3.909-1.36.211.256.633.767 1.11.951-1.65.755-3.51 1.253-5.504 1.787-.642.797-1.361 1.302-2.135 2.133zm12.305 16.683l-.469-1.747c.931-.249 1.54-.101 3.479-.308-1.572 1.046-2.424 1.586-3.01 2.055zm6.478 4.508l-2.658.713-.156-.583 2.658-.712.156.582zm-1.787-8.262c1.399 1.498 2.298 2.194 2.93 2.961-.375.725-.751 1.45-1.369 2.864a12323.1 12323.1 0 0 0-1.561-5.825zm19.341 70.055c.133-.035.211.256.344.22-.133.036-.344-.22-.344-.22zm8.732.158l.266-.071-.665.178.399-.107zm14.017 53.375l1.093 4.078c-.931.249-1.54.101-2.205.279.352-1.343.572-2.651 1.112-4.357zm-5.848 1.567c1.298.589 2.173.667 4.08 1.405l-3.987 1.068-.093-2.473zm-6.896-15.635l.399-.107.312 1.166-.399.106-.312-1.165zm-2.179 15.257l2.658-.712.156.583-2.658.712-.156-.583zm-.118 2.217l1.196-.32c.976.987 2.164 2.23 3.274 3.181-.188.362-.454.434-.642.796-.609-.149-1.164-.624-1.774-.773-.742-.113-1.407.065-2.415.023.297-1.017.329-1.962.361-2.907zm-2.108 11.804c.563-1.088 1.259-2.211 1.744-3.59 1.618.191 2.971.453 3.713.567 1.118-.612.939-1.813 2.158-1.515.079.291.368.838.524 1.421-2.502 1.294-4.137 4.23-8.139 3.117zm4.51.352l1.093 4.078c-1.142-.006-1.806.172-3.213.237.673-1.742 1.103-2.793 2.12-4.315zm3.396 10.017a42.48 42.48 0 0 0-3.635-.275c2.979-1.11 5.27-2.661 8.428-2.57-2.291 1.55-4.073 2.34-4.793 2.845zm8.584-1.988l-.664.178-.625-2.33.665-.178.624 2.33zm-6.436-12.324c1.682-1.699 1.814-1.735 4.972-1.644.454-.434.83-1.159 1.471-1.955l1.327 4.951c-2.916-.779-5.143-1.119-7.77-1.352zm9.288 14.994c1.142.006 1.884.12 3.158.09l-2.065 3.988-1.093-4.078zm5.742 8.139l-1.462.392c.11-.654.142-1.599.173-2.544.133-.035.477.185.61.149.367.838.523 1.421.679 2.003zm1.022-12.137c-2.416.023-4.565-.025-6.848-.038l-.07-1.854c2.416-.023 4.566.025 6.848.038l.07 1.854zm-5.561-12.246l-.468-1.748c.93-.249 1.54-.1 3.479-.307-1.439 1.009-2.291 1.55-3.011 2.055zm9.47 10.887l-1.196.32c-.024-.618.086-1.272.063-1.89l.665-.178.468 1.748zm6.872 15.017l-1.196.32c-.023-.618.087-1.272.064-1.89l.664-.178.468 1.748zm-13.511-29.16c.642-.796 1.361-1.301 1.869-2.062 1.298.589 2.806 1.434 4.869 2.754-3.221 1.8-5.105 1.68-6.738-.692zm11.767 13.081l-.664.178-.469-1.748 1.197-.32c-.055.327-.165.98-.064 1.89zm3.392.964c-.28-2.11-.248-3.055-.506-4.547 1.298.589 1.985 1.029 2.728 1.142-.43 1.052-.939 1.813-2.222 3.405zm7.272 14.91l-1.093-4.078c.93-.249 1.806-.172 3.135-.528-.673 1.742-1.103 2.793-2.042 4.606zm-3.417-15.943c-.102-.909-.281-2.11-.46-3.311.61.149 1.141.007 1.618.191l.797-.213.078.291c.266-.071.61.149.876.077-1.095 1.23-.705 2.687-2.909 2.965zm6.59-1.453l-1.196.32c-.023-.618.086-1.272.063-1.89l-.312-1.165 1.196-.321c.023.619-.086 1.272-.063 1.89l.312 1.166zm6.276-16.98l.399-.106.312 1.165-.398.107-.313-1.166zm5.04 25.186c-.133.036-.133.036 0 0-.211-.255-.078-.291 0 0zm-10.489-23.725l.665-.179.468 1.748-1.196.321c-.023-.619.087-1.272.063-1.89zm3.842 11.146l.468 1.747-1.196.321c-.023-.618.086-1.272.063-1.89l.665-.178zm-45.882-158.475l1.329-.356.078.292-1.329.356-.078-.292zm43.802 160.281l1.196-.321c.023.618-.087 1.272-.064 1.89l-.664.178-.468-1.747zm8.741 12.955l-.797.213c-.023-.618-.257-1.492.783-2.395-.11.654-.009 1.564.014 2.182zm-.358-2.402c.188-.362.375-.725.696-1.123.133-.035.344.22.477.185-.188.362-.454.433-1.173.938zm-3.365-10.961c.11-.654.275-1.635.361-2.907 1.454 1.172 2.219 1.903 3.118 2.599-1.869 2.062-3.08.201-3.479.308zm9.483-1.292c-1.54.1-2.814.129-4.088.158-.157-.582-.102-.909-.258-1.492l4.12-1.104c.312 1.166.336 1.784.226 2.438zm-10.935 34.149s.133-.036 0 0c-.399.106-.532.142 0 0zm8.717-2.024c.055-.327.188-.362.243-.689.343.22.554.475.898.695-.344-.22-.742-.113-1.141-.006zm26.844-261.316c.477.184 1.486.226 2.705.524.586-.469 1.095-1.23 1.681-1.699 1.743 1.718 3.884 3.33 3.312 5.981-.985.576-1.759 1.408-2.479 1.912-3.236-.381-6.394-.472-9.02-.704 1.126-2.175 2.331-4.059 3.801-6.014zm-12.752 7.163l1.329-.356.078.291-1.329.357-.078-.292zm1.59 10.189l2.26-.606c.078.292.023.618.101.91-.743-.114-1.54.1-2.205.278-.211-.255-.078-.291-.156-.582zm-37.689-9.882c-.133.036-.321.398-.931.25.055-.327.188-.363.376-.725.211.255.344.22.555.475zm-2.526.677c.477.184.954.369 1.642.809-.775.832-1.471 1.955-2.699 3.22-.711-1.058-.867-1.64-1.421-2.116-.422-.511-1.032-.66-1.509-.845.564-1.087 1.017-1.521 3.987-1.068zm-5.544 4.295c1.142.007 1.673-.136 2.283.013-.352 1.343-.783 2.395-1.745 3.589l-.266.072c-.046-1.237-.225-2.437-.272-3.674zm-1.909 4.57l2.525-.676c.156.582.258 1.492.359 2.401-.931.249-1.806.172-2.603.385-.102-.909-.125-1.527-.281-2.11zm-47.937 24.708l-.398.107-.313-1.165.399-.107.312 1.165zm5.051-1.353c-.11.654-.697 1.123-1.017 1.521-.344-.22-.61-.149-.954-.369.431-1.052.783-2.395 1.213-3.447.477.185.743.113 1.22.298-.243.689-.22 1.307-.462 1.997zm4.594 4.388c-.101-.909-.046-1.236-.124-1.527.82.404 1.641.809 2.118.993l-1.994.534zm10.812-1.648l-1.196.32c-.023-.618.086-1.271.063-1.89l.665-.178.468 1.748zm-1.717-6.408c-.454.434-.985.576-1.439 1.01-.711-1.059-1.344-1.826-2.055-2.884-.641.796-.829 1.159-1.149 1.557-1.087-.333-2.251-.958-4.236-1.987-.298 1.016-.517 2.324-1.057 4.03-.789-1.35-.945-1.932-1.367-2.444-2.072.243-4.355.23-6.027.366-1.119.612-1.971 1.153-3.089 1.765l-.624-2.331c7.2-1.305 14.267-2.574 21.921-4.312-.252 2.252-.604 3.595-.878 5.23zm6.978 5.31c-1.008-.042-1.673.136-2.947.166.696-1.123 1.072-1.848 2.011-3.661l.936 3.495zm3.675-2.233c-.797.214-1.54.1-2.337.314-.078-.291-.078-.291-.023-.618l2.259-.605c.078.291.023.618.101.909zm3.072 1.362c.485-1.379.837-2.722 1.455-4.136 2.228.34 3.713.566 5.542 1.013-2.447.967-4.362 1.793-6.997 3.123zm10.453-4.049l-2.26.605c-.078-.291-.023-.618-.101-.909.665-.179 1.54-.101 2.205-.279.211.256.289.547.156.583zm-.255-6.8c-3.002.492-5.747 2.476-8.951 1.149-2.3 3.114-5.536 2.732-8.639 2.315-1.118.612-2.025 1.479-3.198 2.418l-1.483-5.534c1.586 1.136 2.618 1.796 3.516 2.492l18.075-4.844c.289.547.446 1.13.68 2.004zm5.906 7.158c-1.297-.589-2.172-.666-4.08-1.404l3.988-1.068c.101.909.046 1.236.092 2.472zm19.127 41.08l-1.329.356-.078-.291 1.329-.357.078.292zm-10.785-42.378c-1.087-.333-2.095-.375-2.916-.78-.774.832-1.228 1.266-2.135 2.133-.922-1.314-1.554-2.081-2.687-3.65 2.36.304 4.135 1.077 4.721.608 2.213-1.842 4.464-.884 7.255-1.632-1.759 1.408-3.065 2.382-4.238 3.321zm7.031-9.377c-.742-.113-1.297-.589-2.04-.702-.907.868-1.892 1.444-2.932 2.347-.821-.405-1.298-.589-1.907-.738-.321.398-.774.832-1.283 1.592-1.618-.19-2.759-.197-4.033-.168-1.407.065-2.869.457-4.675.629-.266.071-1.04.903-2.08 1.806-.445-1.13-.734-1.677-.969-2.55l5.45-1.46c1.329-.357 3.423.019 3.877-.415 1.658-2.318 3.236.382 4.675-.628.586-.47 1.04-.903 1.228-1.266 1.219.298 2.094.375 2.626.233.188-.363.454-.434.641-.796 1.54-.101 2.416-.023 3.424.019-1.173.939-1.548 1.664-2.002 2.097zm5.715-1.531c-1.086-.333-1.962-.411-3.181-.709 3.065-2.382 3.057-.819 3.181.709zm-4.561-10.641c-1.305.974-2.213 1.841-3.518 2.816 1.375.88 2.618 1.796 4.946 3.045-3.158-.09-4.909-.246-6.659-.401l-.469-1.748c-2.548.059-4.831.046-7.989-.044 1.338-1.92 2.222-3.405 3.106-4.891.953.369 1.563.518 2.173.667 1.04-.903 2.025-1.479 3.065-2.383.766.732 1.398 1.499 2.375 2.486.774-.832 1.627-1.373 2.213-1.842 1.352.262 25.697-5.637 27.049-5.375-.337 3.525-25.627 7.492-26.292 7.67zm117.932 214.719l-28.575 7.656c-.266.071-.82-.404-1.164-.624-.454.433-.697 1.123-.962 1.194-3.213.236-6.082.693-9.428.965.485-1.379.916-2.431 1.534-3.845 4.143-.486 8.364-.68 13.438-1.415.055-.327.618-1.415.939-1.813 2.947-.165 5.362-.188 7.567-.466.719-.505 1.438-1.01 2.025-1.48.821.405 1.43.554 1.774.774 1.306-.975 2.401-2.205 3.386-2.781 3.424.019 6.449.145 9.607.236a13.543 13.543 0 0 1-.141 1.599zM274.256 100.16l1.196-.32c.101.909.148 2.146.249 3.055l-.664.178-.781-2.913zm-19.387 2.073c1.985 1.029 3.666-.67 5.417-.515.743.114 1.298.589 2.54 1.505l-7.044 1.888c-.445-1.13-.679-2.004-.913-2.878zm63.195 235.317c-4.894 1.936-10.17.852-15.111 1.552.751-1.45 1.448-2.573 1.745-3.59 1.673-.136 2.947-.165 5.097-.117.953.369 2.938 1.398 4.369 1.952 1.329-.356 2.181-.897 2.846-1.075-.047-1.236-.226-2.437-.327-3.347.32-.398.774-.831 1.173-.938l2.32 2.812c.884-1.486 1.525-2.282 1.658-2.317l4.034.168c-3.144 2.091-5.357 3.932-7.804 4.9zm21.484-7.005l-13.955 3.739c1.127-2.175 1.768-2.971 2.332-4.059 2.031 2.266 4.018-2.013 6.16-.401.211.255 1.892-1.444 3.01-2.056.977.987 1.875 1.683 2.852 2.67-.211-.256-.531.142-.399.107zm7.091-.651c-2.713 1.039-4.73.955-5.753-1.269-.289-.546-.257-1.492-.359-2.401 1.486.226 2.361.304 3.447.637l1.604-1.99c.624 2.33.882 3.822 1.061 5.023zM292.816 93.938c.133-.035.477.185.61.15l.546 2.038-1.462.392c.032-.945.064-1.89.306-2.58zm67.864 230.945c-1.736 2.026-3.978-.495-5.847 1.566-1.361 1.302-4.441 1.503-7.099 2.215 1.415-1.628 2.377-2.823 3.206-3.981.266-.072.821.404 2.04.702 1.612-3.554 4.935-4.444 7.625-6.102-.064 1.891.006 3.745.075 5.6zm3.441-3.108l-.399.107-.312-1.165.399-.107.312 1.165zM306.685 91.471l-.399.107-.312-1.165.399-.107.312 1.165zm62.995 228.19l-1.329.357-.078-.292 1.329-.356.078.291zM339.392 90.2l1.329-.356.078.291-1.329.356-.078-.291zm52.652 211.918c.61.149 1.618.191 3.369.346l-3.19.855c-.156-.583-.179-1.201-.179-1.201zm-66.51-216.322l.07 1.855-2.393.64c-.702-2.62.361-2.906 2.323-2.495zm-3.848 4.778c1.266 1.534 2.032 2.265 2.875 3.288l-2.525.676c-.046-1.236-.225-2.437-.35-3.964zm69.531 227.063c-2.603.385-4.487.266-6.348.764-2.126.57-5.074.735-6.512 1.745-2.213 1.842-4.355.23-6.458 1.418l-1.014-3.786c2.172.666 3.658.893 5.221 1.41.32-.398.907-.867 1.415-1.628 1.22.298 2.095.376 3.182.709.774-.832 1.626-1.373 2.346-1.878.875.078 1.618.191 2.438.596.563-1.088-.647-2.949 2.19-2.46l1.688 2.045c1.173-.938 1.892-1.443 2.666-2.275 1.344 1.825-.228 2.871-.814 3.34zm9.601-3.509c-2.049.861-4.097 1.722-6.998 3.124.806-1.777 1.291-3.156 1.854-4.244 1.22.298 2.228.34 3.104.418l1.36-1.302c1.353.263 2.494.269 3.58.602a15.554 15.554 0 0 1 1.549-1.664c.82.405 1.43.554 3.071 1.363-3.267.563-5.394 1.133-7.52 1.703zm14.666-2.681c-2.526.676-4.895 1.936-6.582-.11.352-1.343.649-2.359.892-3.049 1.884.12 3.557-.016 5.308.139.179 1.201.28 2.11.382 3.02zM362.197 84.402c.563-1.088.938-1.813 1.447-2.573l4.854.572c-2.103 1.188-4.074 2.34-6.301 2zm10.446-7.795l1.33-.356.078.291-1.329.357-.079-.292zm-.329 1.962l.399-.107.312 1.165-.398.107-.313-1.165zm57.709 214.309c-.344-.22-.82-.405-.976-.987-.133.036-.055.327-.188.362-.477-.184-.821-.404-1.298-.589.133-.035.188-.362.321-.398.344.22.821.405.977.987.133-.035.055-.326.188-.362.476.184.82.404 1.297.589-.055.327-.188.362-.321.398zm3.814 1.476l-2.658.712-.156-.583 2.658-.712.156.583zm-1.078-1.897c-.133.036-.476-.184-.609-.149l-.547-2.039 1.462-.391c-.109.653-.141 1.598-.306 2.579zm-46.836-212.54l-.398.107-.313-1.165.399-.107.312 1.165zm116.312 200.168l1.196-.321c.023.619-.087 1.272-.064 1.891l-.664.178-.468-1.748zm-45.135-2.579l.399-.107.312 1.165-.399.107-.312-1.165zm3.844 5.838l-2.658.712-.157-.582 2.659-.712.156.582zM410.39 80.854c-1.164-.625-1.985-1.03-4.103-2.022 2.338-.315 3.08-.201 3.878-.415.101.91.124 1.528.225 2.437zm68.663 191.394l-.399.107c.586-.469 1.251-.648.399-.107zm-.806 1.777c-.133.036-.344-.22-.477-.185.188-.362.321-.398 1.04-.903l.133-.035c-.188.362-.509.76-.696 1.123zm2.424-1.586c-.399.107-.876-.078-1.142-.007a18.79 18.79 0 0 1 2.291-1.55c-.907.867-1.016 1.521-1.149 1.557zm32.04-15.454l.625 2.331c-1.439 1.009-2.612 1.948-4.051 2.958-.976-.987-1.82-2.01-2.719-2.705 2.346-1.878 4.848-3.173 6.145-2.584zm-8.482 2.898l.398-.107.313 1.165-.399.107-.312-1.165zM450.548 76.025l1.329-.356.079.291-1.33.357-.078-.292zm36.693 169.366l2.259-.605c.078.291.023.618.101.909-.664.178-1.54.101-2.204.279l-.156-.583zm3.096 16.341c.148 2.146.249 3.055.428 4.256-1.164-.625-1.907-.738-2.727-1.143.508-.76.962-1.194 2.299-3.113zm6.993 7.492c-1.086-.334-1.829-.447-2.439-.596-1.04.903-1.759 1.408-2.4 2.205-1.22-.298-2.095-.376-2.705-.524-1.306.974-2.291 1.55-3.464 2.489-.367-.839-.656-1.386-.812-1.968 2.103-1.188 4.152-2.049 6.255-3.237 2.15.048 3.823-.088 5.707.032-.266.071-.165.981-.142 1.599zm.418-8.541c.821.404 1.43.553 1.985 1.029l-4.536 4.337-2.765-3.942 5.316-1.424zm-6.805-27.523c-1.109-.951-2.641-2.414-3.54-3.11.486-1.379.65-2.359 1.268-3.774.945 1.932 1.39 3.062 1.679 3.609 1.353.262 2.228.339 4.19.75-1.837 1.117-2.69 1.658-3.597 2.525zM455.27 76.633l-.469-1.747 1.197-.32c.023.617-.087 1.271-.064 1.89l-.664.177zm46.48 165.494l-1.329.357-.078-.292 1.329-.356.078.291zM459.866 75.714c-.343-.22-.687-.44-1.164-.625-.023-.618.032-.945-.07-1.854.931-.25 1.673-.136 3.479-.308-1.017 1.521-1.658 2.317-2.245 2.787zm52.517 163.565l-1.329.356-.078-.292 1.329-.356.078.292zm6.627-32.683c1.086.333 1.829.446 2.704.524 1.009.042 1.939-.207 3.002-.492l.156.582-5.183 1.389c-.289-.547-.445-1.129-.679-2.003zm11.693 21.842l-7.975 2.137-.156-.583 7.975-2.136.156.582zm-1.493-37.999c.477.184 1.086.333 1.618.19-1.063.285-1.806.172-1.618-.19zm4.135 1.077l-1.329.356-.078-.291 1.329-.356.078.291z"/>
        <path d="M533.05 167.556l1.329-.356.266-.071c-.266.071-.743-.113-1.009-.042-.266.071-.531.142-.586.469zM60.937 192.909c-9.147 3.075-19.069 6.982-20.796 7.445-.188.363-.165.981-.353 1.344 6.466-2.982 21.915-8.058 21.149-8.789zM86.125 188.033c.078.291-.055.327.024.618.531-.142 1.274-.029 1.805-.172l.4-.107c-.079-.291-.024-.618-.102-.909l-2.127.57zM93.755 185.676c.266-.071.454-.434.72-.505l-.665.178c-.133.035-.055.327-.187.362.132-.035.21.256.132-.035-.797.213-1.594.427-2.58 1.003.079.292.157.583.368.839l2.525-.677c.266-.071.32-.398.586-.469-.344-.221-.555-.476-.898-.696zM191.309 340.295l.398-.107-.312-1.165-.398.107.312 1.165zM181.693 341.623s.078.291 0 0l.234.874.665-.179a282.15 282.15 0 0 0-.235-.873c-.187.362-.32.398-.664.178zM176.167 342.792c.742.113 1.54-.101 2.282.012-.078-.291-.156-.582-.023-.618-.266.072-.609-.149-.875-.077l-1.329.356c-.078-.291 0 0-.055.327zM197.232 363.995l1.728-.463c.133-.035.321-.398.454-.434 3.721-.997-1.142-.006-2.924.784.133-.036.211.256.344.22l.398-.107zM60.819 195.126c-1.33.356-2.58 1.003-3.91 1.36 1.064-.285 2.526-.677 3.91-1.36zM54.462 197.453c.797-.213 1.516-.718 2.447-.967-.986.576-1.916.825-2.447.967zM158.516 156.773l-.531.142-.11.654c.188-.363.376-.725.641-.796zM60.897 195.417l1.329-.356-.078-.291c-.399.107-.93.249-1.251.647-.078-.291 0 0 0 0zM283.034 360.985c.133-.035.344.22.476.185.188-.363.509-.761.697-1.123-.133.035-.211-.256-.211-.256 2.791-.748-.57-2.657 1.135-3.738l2.791-.748c.633.767 1.187 1.243 1.742 1.718.72-.505 1.361-1.301 2.268-2.168 2.751 1.76 5.291 3.265 7.776 5.097-.641.796-1.017 1.521-1.525 2.281l-29.505 7.906c-1.595.428-3.346.272-5.019.408-.454.434-.962 1.195-1.548 1.664-2.228-.34-4.19-.751-6.074-.87-1.626 1.372-3.253 2.745-4.958 3.826-3.493-1.874-5.816.622-7.974 2.137-.82-.405-1.43-.554-2.251-.958-1.97 1.152-3.628 3.47-6.7 2.107-.688-.44-2.447.968-3.432 1.544-3.956.124-6.894-1.274-7.964-4.734a335.192 335.192 0 0 0-2.042 4.606c-1.673.136-3.158-.091-4.432-.062-.696 1.124-1.471 1.955-2.167 3.078-1.219-.297-1.962-.41-2.438-.595-.986.576-1.705 1.081-2.479 1.913-.844-1.023-1.399-1.498-1.61-1.754-2.58 1.004-4.417 2.12-6.411 2.654-3.19.855-5.559 2.114-7.483 4.503-1.797-1.392-2.97-.453-3.987 1.068-2.173-.666 14.605-6.098 12.565-6.8-1.525 2.281-4.293 3.647-7.428 4.175-4.065.777-8.341 1.299-12.485 1.784-.398.107-.82-.404-.953-.368-.509.76-1.095 1.23-1.736 2.026-1.431-.554-2.728-1.143-4.025-1.731-.454.433-.642.796-1.017 1.521-2.017-.084-4.433-.061-6.527-.437-2.361-.304-5.348 2.37-6.926-.329.04-2.509.103-4.399.089-6.58 1.805-.172 3.822-.088 5.55-.551 1.462-.391 3.337 1.291 4.253-1.139 1.985 1.029 3.658.893 5.128-1.062 1.775.773 3.369.346 4.253-1.14 1.142.007 1.884.12 2.627.233.774-.832 1.36-1.301 1.681-1.699a34.09 34.09 0 0 0 4.167.132c4.807-.664 9.335-3.438 14.267-2.574.915-2.431-14.23 5.374-13.126 2.581.242-.69 3.166-1.473 4.386-1.176 2.516.887 6.512-1.745 7.792 1.971.079.291.61.149.743.113.485-1.379 1.049-2.466 1.401-3.81l4.253-1.139c.953.369 2.118.993 2.939 1.398 3.995-2.632 8.482-2.897 12.79-4.364l1.093 4.078c.993-2.139 1.479-3.518 2.23-4.968l9.037-2.422c3.19-.855 6.669-1.162 8.858-3.622.821.404 1.431.553 2.251.958.72-.505 1.361-1.302 2.213-1.842 1.798 1.391 2.815-.13 3.987-1.068 1.376.88 2.673 1.469 3.642 4.019 1.187 1.243 2.649.851 4.776.281.242-.689.806-1.777 1.854-4.243-1.892 1.444-2.612 1.949-3.331 2.454-2.97-.453-2.97-.453-3.378 1.217.041-2.509-.115-3.091-.194-3.382 2.502-1.295 4.684-2.192 6.521-3.309 1.884.12 3.69-.052 5.308.139l.624 2.33-2.158 1.515.469 1.748 4.917-1.318c-.257-1.492-.382-3.019-.561-4.22l6.247-1.674c1.109.952 2.141 1.612 3.461 2.819a48.444 48.444 0 0 0-.405-3.638l2.393-.641.858 3.204c-1.54.101-1.728.463-2.048.861zm-101.803 21.971l.156.583 2.658-.713-.156-.582-2.658.712zm-15.51 1.658l-.664.178c.023.619-.087 1.272-.064 1.89l1.196-.32-.468-1.748zM398.15 336.072c.531-.143 1.806-.172 3.213-.237-.509.761-.188.363.187-.362.477.184 1.087.333 1.298.589 3.244-1.182 6.278-2.619 9.788-3.872-1.632-2.372-4.141-4.822-2.396-8.411a66.813 66.813 0 0 1-3.221 1.799c-1.829-.446-1.829-.446-3.511 1.253-.742-.113-1.563-.518-2.438-.595-.775.832-1.361 1.301-2.135 2.133-.876-.078-1.829-.447-3.049-.744-.453.433-.985.576-1.571 1.045-2.205.279-4.675.628-7.146.978-.696 1.123-1.259 2.211-2.065 3.988 2.603-.386 4.409-.557 6.747-.871-1.306.974-2.213 1.841-3.066 2.382-1.54.1-3.213.236-4.62.301-.069-1.854-.194-3.382-.263-5.236-3.401.599-3.401.599-5.325 2.987 1.008.042 1.751.155 2.681-.094l1.015 3.787c3.479-.308 5.409 1.048 5.791 4.068 3.409-2.163 6.497-3.927 9.453-5.655.211.255.156.582.633.767-.812-1.968-1.734-3.282-2.656-4.596 3.244-1.181 6.09-2.256 8.748-2.968 1.032.66 2.407 1.54 4.338 2.896-3.612.343-6.481.8-9.428.965-.142 1.599-.118 2.217-1.002 3.703zM356.828 340.276l-.781-2.913c-2.071.243-4.01.45-6.691.544-.266.071-.908.867-1.627 1.372-.821-.404-1.43-.553-2.118-.993-.861 2.104-3.221 1.8-5.403 2.696l1.249 4.661c1.118-.612 2.025-1.479 3.011-2.056.21.256.499.803.788 1.35-.32.398-.641.796-.907.867-3.51 1.253-7.544 1.085-10.32 4.014-1.985-1.029-3.19.855-4.784 1.283-1.861.498-3.745.378-6.16.401.179 1.201.413 2.075.592 3.276 5.605-.878 10.89-1.357 16.894-2.342 3.652-2.851 9.358-2.819 14.917-4.933.508-.761 1.392-2.247 2.221-3.405-.609-.149-1.164-.625-1.985-1.029l-6.911 1.852-1.476-1.79c2.181-.897 4.151-2.049 6.333-2.946.82.405 1.883.12 3.158.091zM488.395 306.583c-.055.327-.243.689-.297 1.016-.055.327-.11.654-.087 1.272l-45.321 12.144c-1.531-1.463-3.008-3.253-5.516-5.702-.283 3.197-.479 5.123-.652 7.667a45.404 45.404 0 0 0-3.12 2.709c.899.696 1.797 1.392 2.829 2.052 3.698-1.616 26.471-6.469 29.857-9.249 2.025-1.479 14.157-1.921 16.847-3.578 2.502-1.295 5.38-3.314 7.74-3.01 4.245.423 7.732-1.448 11.266-2.082a132.336 132.336 0 0 1 2.675-3.839c-.688-.44-1.431-.553-2.251-.958-7.428 4.176-9.234 4.348-13.97 1.558zM123.653 374.345a75.908 75.908 0 0 0-6.299-3.307c-.344-.22-.985.576-1.783.789 1.298.589 2.329 1.25 3.15 1.654l1.093 4.078c-2.947.165-5.551.551-8.099.609-.156-.583-.312-1.165.008-1.563.572-2.651-.858-3.204-3.406-3.146-.188.363-.509.761-.509.761 1.298.589 2.54 1.505 3.783 2.42-.908.868-1.549 1.664-1.979 2.716-.821-.404-2.04-.702-2.118-.993-.703-2.622-2.156-3.793-5.612-2.868-.93.25-2.118-.993-4.658-2.498 6.215-.728 10.757-1.321 16.042-1.8 1.424-3.192 5.027-1.972 7.919-1.81 1.485.226 2.806 1.433 4.181 2.313-.453.434-1.017 1.522-1.713 2.645zm-9.919-1.401l.399-.107-.312-1.165-.399.107.312 1.165zM141.34 128.283c-.125-1.528-.327-3.347-.928-5.059-.078-.291-1.829-.446-2.838-.488.509-.761 1.017-1.521 1.471-1.955 5.402-2.696 10.834-1.03 16.385-1.581-.298 1.017-.407 1.67-.517 2.324-1.141-.006-2.361-.304-3.369-.346-.055.327-.243.689-.376.725 1.087.333 2.251.958 3.471 1.256-1.3 4.718-1.3 4.718-5.538 8.039-1.165-.624-2.251-.957-2.728-1.142-1.65.754-2.901 1.402-5.403 2.697.119-2.217.471-3.561.37-4.47zm6.303-7.309c-.508.761-.884 1.486-1.47 1.955.477.185 1.031.661 1.508.845-.861 2.104-.861 2.104 3.173 2.272-4.831.045-5.628.259-6.692.544.234.874.523 1.421.68 2.003 1.04-.903 1.814-1.735 2.588-2.566-.344-.22-.477-.185-.821-.405 4.097-1.722 4.083-3.903 1.034-4.648zM494.768 61.367c6.934-1.234 7.388-1.668 7.443-1.994-1.024-2.224-1.836-4.192-2.859-6.415-.32.398-.719.505-1.493 1.337-.954-.37-2.04-.702-3.338-1.291-3.753 1.942-7.084 4.395-9.704 7.907.234.874.601 1.712.835 2.586 1.485.227.696-1.123 2.369-1.26 4.511.353 9.154.67 6.747-.87-6.692.544-6.825.58-6.958.615.188-.362.509-.76.697-1.123.133-.035.344.22.476.184-.32.399-.508.761 5.785.324zM428.266 323.007c1.251-.648 1.97-1.153 2.955-1.729-.289-.547-.578-1.094-1.023-2.223-1.04.903-1.892 1.443-2.667 2.275-.82-.404-1.774-.773-2.805-1.433-.266.071-.454.433-.853.54-2.213 1.842.405 3.638-.588 5.778-1.009-.042-1.884-.12-2.228-.34-2.846 1.075-5.16 2.007-7.74 3.01 2.04.703 4.08 1.405 7.073 2.476l10.633-2.849c.508-.761 1.016-1.521 1.658-2.318-1.165-.624-2.618-1.796-4.415-3.187zM540.312 243.034l-1.994.534c-.977-.987-2.008-1.647-3.118-2.598-1.97 1.152-3.73 2.56-5.7 3.712l1.093 4.078c-1.705 1.081-3.277 2.127-6.232 3.855 2.15.049 3.158.091 4.909.246 1.118-.612 3.698-1.615 6.466-2.981.306-2.58 4.559-3.72 4.576-6.846zM505.801 72.772c.844 1.022 1.266 1.533 1.765 2.336 1.705-1.081 3.355-1.835 5.724-3.095.508-.76 1.392-2.246 2.143-3.696-2.352-1.867-2.736.421-3.721.997-4.19-.75-8.076 1.228-12.407 2.076l.781 2.913c1.43.553 2.993 1.07 5.111 2.064.142-1.599.251-2.252.604-3.596zM158.44 390.935c-1.375-.88-2.063-1.32-2.884-1.724-.133.035-.187.362-.32.398-1.055-1.279-2.11-2.557-3.243-4.127-.641.797-.962 1.195-1.415 1.629-.876-.078-1.751-.156-2.971-.453l-.932 5.557c.688.44 1.297.589 2.196 1.284l9.569-2.564zM306.956 354.575c8.951-1.15 14.237-6.937 21.18-9.734l-13.157 3.526c-2.612 1.948-4.825 3.79-8.023 6.208zM566.911 154.112c-1.031-.66-1.985-1.029-3.227-1.944-.775.831-1.627 1.372-2.213 1.841-.61-.148-1.22-.297-1.908-.737-.774.831-1.493 1.336-2.4 2.204-.876-.078-1.962-.411-3.314-.673-.454.434-.962 1.194-1.87 2.062-.898-.696-1.93-1.356-3.438-2.201l1.249 4.661c2.329 1.249 3.464-2.49 5.66-1.205 1.282-1.592 2.533-2.24 4.972-1.644 1.962.411 4.198-.813 6.27-1.056l.219-1.308zM508.869 304.843c1.719 1.101 2.618 1.796 3.438 2.201l11.031-2.956c.298-1.016.595-2.032.948-3.376l-15.417 4.131zM318.97 356.351c-3.97-2.058-7.316-1.786-11.225-.427l-2.565 3.185c-.954-.369-1.696-.482-2.65-.851-.055.327-.164.981-.407 1.67 1.884.12 3.69-.052 5.441.104.907-.868 2.08-1.807 3.651-2.852.688.44 1.454 1.171 2.564 2.123 2.048-.861 3.432-1.544 5.191-2.952zM550.041 230.437c.336 1.783.726 3.239 1.061 5.023.908-.868 1.494-1.337 1.549-1.664 2.204-.278 4.964-.081 5.738-.913 1.47-1.955 3.314.673 4.574-1.538-.766-.731-1.665-1.427-2.774-2.378-.986.576-1.572 1.045-2.612 1.948-.954-.369-2.118-.993-3.681-1.511-.642.796-1.228 1.266-1.948 1.771-.265.071-.875-.078-1.907-.738zM136.028 133.452c-.038-2.8-1.547-3.644-4.306-3.841-.297 1.016-.462 1.997-.838 2.722-1.719-1.101-3.181-.709-4.573 1.537-.899-.696-1.876-1.683-3.54-3.11l1.171 4.369 5.848-1.566c.71 1.058 1.132 1.569 1.765 2.336 1.65-.754 3.089-1.764 4.473-2.447zM357.509 336.971c2.063 1.32 2.884 1.725 3.915 2.385.376-.725.829-1.159 1.338-1.92.875.078 1.829.447 2.704.525.188-.363.509-.761.697-1.124 1.43.554 2.915.78 4.478 1.298 1.182-2.502.205-3.489-2.046-4.447-2.979 1.111-6.301 2.001-11.086 3.283zM565.463 176.354c-4.822-1.517-7.919 1.81-11.883 3.496 2.696 2.088 5.995.579 8.7 1.103 1.205-1.883 2.221-3.405 3.183-4.599zM307.973 353.054c-1.641-.809-3.071-1.363-4.368-1.952-.321.399-.775.832-1.017 1.522-.954-.369-1.907-.738-2.939-1.398-.266.071-.586.469-.852.54-1.869 2.062-.205 3.489-.112 5.962 1.572-1.046 2.424-1.586 3.331-2.454.344.22.821.405 1.563.518 1.384-.683 2.768-1.366 4.394-2.738zM50.079 153.985c-.477-.185-1.087-.334-1.774-.774-.454.434-1.118.612-1.439 1.01-.453.434-.696 1.123-1.337 1.92 3.868 1.148 7.59.151 11.6-.299-.968-2.55-3.384-2.528-5.236-3.592-.72.505-1.228 1.265-1.814 1.735zM81.81 377.128l.39 1.456c1.884.12 3.69-.052 4.565.026 3.909-1.36 6.677-2.726 9.788-3.872-6.925-.329-6.925-.329-14.743 2.39zM470.476 52.579l-4.993-4.282c.187-.362.32-.398.508-.76.61.148 1.352.262 1.829.446.586-.47 1.228-1.265 1.548-1.664 1.751.156 3.104.418 4.456.68l.624 2.33c-.962 1.194-2.268 2.169-3.972 3.25zm.572-2.651l.398-.107-.312-1.165-.399.107.313 1.165zM544.077 101.851l-.702-2.621c-1.994.534-4.065.777-6.192 1.347.211.255.477.184.688.44-.985.576-1.76 1.408-3.143 2.091 1.852 1.065 2.805 1.433 3.759 1.802 2.181-.896 3.886-1.977 5.59-3.059zM567.738 177.93c3.4-.599 6.246-1.674 8.514-3.843-.688-.44-1.508-.844-2.329-1.249l-8.639 2.315c.844 1.023 1.477 1.79 2.454 2.777zM42.292 195.095c1.681-1.699 3.042-3 4.59-4.664-2.117-.994-3.759-1.803-5.955-3.087l-.987 5.884c.688.44 1.375.88 2.352 1.867zM526.196 237.138l.859 3.204c2.415-.023 4.964-.081 7.379-.104 1.236-2.829-.405-3.638-2.922-4.524-.586.469-1.173.938-2.025 1.479-.742-.113-1.884-.12-3.291-.055zM545.047 245.823c1.869-2.061 3.629-3.47 5.614-2.44.852-.541 1.627-1.373 2.799-2.312-1.641-.809-2.672-1.469-3.837-2.093-.774.832-1.493 1.337-2.346 1.877l-1.687-2.045c-.173 2.544-.37 4.469-.543 7.013zM111.916 385.295c.899.696 1.93 1.356 2.829 2.051l6.911-1.851c.43-1.052 1.072-1.848 1.502-2.9-.688-.44-1.164-.625-1.297-.589-2.667 2.275-5.935 2.839-9.945 3.289zM117.696 136.803c1.118-.611 1.893-1.443 2.878-2.019l-1.327-4.952c-.861 2.104-1.479 3.518-1.909 4.57-.954-.369-1.985-1.029-3.97-2.058l1.014 3.787c.954.368 2.173.666 3.314.672zM51.983 272.731c.477.185 1.618.191 2.837.489.853-.541 1.893-1.444 3.199-2.418-.711-1.059-1.555-2.081-2.266-3.14-1.549 1.664-2.753 3.548-3.77 5.069zM69.026 159.835c-2.063-1.321-3.572-2.165-4.947-3.046-1.76 1.408-3.175 3.037-5.582 1.496-.641.796-1.228 1.266-1.924 2.389 4.01-.45 7.622-.794 12.453-.839zM552.037 204.926l5.45-1.46c-.024-.618.031-.945.141-1.598-2.017-.084-4.034-.168-6.582-.11-.11.654-.407 1.67-.572 2.651 20.235 8.002 21.111 8.08 1.563.517zM66.312 160.874l-8.373 2.243c.024.619-.031.945-.063 1.89 2.205-.278 4.41-.557 7.09-.651.11-.653.54-1.705 1.346-3.482zM131.666 394.676l-.937-3.495c-1.251.647-2.025 1.479-3.143 2.091-.133.035-.477-.185-1.43-.554-.564 1.088-.994 2.14-1.823 3.298 3.025.126 5.074-.735 7.333-1.34zM121.032 123.734c.258 1.492.336 1.783.359 2.401.61.149 1.141.007 1.751.156.61.148 1.219.297 1.352.262 2.58-1.004 5.027-1.972 7.607-2.975-.289-.547-.445-1.13-.89-2.259-2.987 2.673-6.177 3.528-10.179 2.415zM84.732 209.947c-.28-2.11 2.386-4.386-.364-6.146-2.846 1.075-3.175 3.036-2.097 4.932.82.405 1.508.845 2.461 1.214zM69.94 304.133c-.1-.909-.046-1.236-.07-1.854-1.75-.155-3.423-.019-5.44-.103-.375.725-.806 1.777-1.557 3.227 2.893.161 4.863-.991 7.068-1.27zM553.023 165.014c2.369-1.259 4.605-2.483 6.974-3.742-.156-.582-.367-.838-.812-1.968-1.306.975-2.557 1.622-3.73 2.561-.476-.185-1.086-.334-1.907-.738-.618 1.414-2.455 2.531-.525 3.887zM70.779 154.682l-.936-3.495c-1.728.463-3.378 1.217-5.05 1.353-1.275.029-2.627-.233-4.777-.281 3.274 3.181 7.113-.033 10.763 2.423zM143.339 390.924c.086-1.272-.367-.839-1.009-.042-.742-.114-1.751-.156-2.97-.453l1.171 4.369c3.189-.855 2.964-3.292 4.856-4.735-.344-.22-.899-.696-2.048.861-.595 2.032-.728 2.068-.861 2.103-.477-.184-.821-.404-1.297-.589.132-.035.187-.362.32-.398.555.476.899.696 1.838-1.116zM275.845 369.779s-.031.945-.407 1.67c-.375.725-1.306.975-2.158 1.515.821.405 1.508.845 2.329 1.249 1.361-1.301 2.667-2.275 4.747-4.081-1.884-.12-3.025-.126-4.511-.353z"/>
        <path d="M52.493 193.298l-3.456.926c.625 2.33-26.207 11.705-25.427 14.618.549-3.269 28.444-12.929 28.883-15.544zM77.58 339.55l-8.108 2.172c.367.838.656 1.385 1.023 2.223 1.439-1.009 2.479-1.912 3.597-2.524.82.404 1.297.589 1.907.738.454-.434.83-1.159 1.58-2.609zM53.897 164.513c-1.883-.12-3.634-.275-5.385-.43-.916 2.43 1.234 2.479 3.008 3.252.774-.832 1.548-1.663 2.377-2.822zM49.28 179.174c2.017.084 4.167.132 6.45.145-.024-.618-.047-1.236-.015-2.181l-6.513 1.745.078.291zM19.72 207.075c-.625-2.33 26.285-11.414 25.505-14.327-.283 3.198-27.858 12.46-28.054 14.386.875.077 1.54-.101 2.548-.059zM112.889 137.467c-.437-2.693-2.133-3.175-4.47-2.861-.095 2.836 1.523 3.026 4.47 2.861zM104.094 139.199c-1.577-2.699-2.687-3.65-5.4-2.611.413 2.074 2.031 2.265 5.4 2.611zM539.404 77.504l-6.512 1.745c2.36.304 3.978.495 5.94.906.165-.981.274-1.635.572-2.651zM56.746 304.859a15.24 15.24 0 0 0 .092 2.473l6.38-1.709c-2.76-.197-4.378-.388-6.472-.764zM374.477 340.229c-.109.654-.219 1.308-.462 1.997.876.078 1.673-.136 2.416-.023.61.149 1.086.333 2.251.958-.304-2.728-2.055-2.884-4.205-2.932zM379.224 341.455l3.987-1.068c.508-.761 1.017-1.521 1.713-2.645-1.462.392-2.736.421-3.799.706-.564 1.088-.939 1.813-1.901 3.007zM469.834 312.805c.908-.868 10.376-4.341 11.47-5.571-.82-.404-1.375-.88-2.407-1.54-.54 1.705-9.664 5.399-10.016 6.742.477.184.743.113.953.369zM335.047 342.989c.766.732 1.743 1.719 2.719 2.706.587-.469 1.173-.939 2.557-1.622-1.907-.738-3.204-1.326-4.502-1.915-.32.398-.586.469-.774.831zM104.52 388.525l-.468-1.747-3.588.961c.734 1.677.734 1.677 4.056.786zM137.624 133.025l2.126-.57c-.101-.909-.28-2.11-.459-3.311-.931.249-1.595.427-2.604.385l.937 3.496zM413.28 326.086c1.408-.065 2.072-.243 3.213-.237l-1.092-4.078c-.806 1.777-1.369 2.865-2.121 4.315zM42.49 168.193l4.918-1.317c-.5-.803-.79-1.35-1.578-2.699-1.283 1.592-2.057 2.424-3.34 4.016zM100.092 377.849c-.986.576-1.65.754-2.901 1.401 1.375.88 2.407 1.541 3.993 2.676l-1.092-4.077zM127.162 378.4c-.939 1.813-1.369 2.864-2.12 4.314 1.407-.064 2.205-.278 3.213-.236l-1.093-4.078zM518.806 297.81c-1.696-.482-2.86-1.107-4.423-1.625-.298 1.017-.408 1.67-.494 2.942l4.917-1.317zM573.392 187.341c.125 1.528 1.235 2.479 3.595 2.783l-.936-3.495-2.659.712zM79.79 323.348l-6.114 1.638c2.384.922 4.355-.23 6.114-1.638zM541.291 179.709c-.953-.369-2.329-1.25-3.415-1.583.055-.327-.188.363-.188.363 1.61 1.754 1.61 1.754 3.603 1.22zM48.834 271.078c-.985.576-1.572 1.045-2.612 1.948l3.783 2.421-1.17-4.369zM515.291 50.248c2.04.702 3.259 1 4.955 1.482-.046-1.236-.202-1.819-.304-2.728l-4.651 1.246zM161.423 105.419c1.907.738 2.861 1.107 4.08 1.404-.046-1.236.009-1.563-.093-2.472l-3.987 1.068zM121.943 112.251l-5.051 1.353c-.054.327-.187.363-.242.689 1.141.007 2.15.049 2.947-.165-.266.071.586-.469 2.346-1.877zM566.868 215.625l-4.784 1.282.156.583c1.595-.427 3.268-.563 4.863-.991-.133.036-.289-.547-.235-.874zM567.934 229.701l2.392-.641-.069-1.855c-1.962-.411-3.025-.126-2.323 2.496zM106.389 352.435c1.907.738 2.861 1.107 4.08 1.404-.046-1.236.009-1.563-.093-2.472l-3.987 1.068zM545.235 245.461l-4.105 3.285 4.519-1.211c-.235-.873-.258-1.492-.414-2.074zM76.995 374.048c-1.165-.625-1.775-.774-3.072-1.363-.375.725-.673 1.742-1.181 2.502l4.253-1.139zM435.265 319.883c-.688-.44-1.508-.845-2.884-1.725.125 1.528.148 2.146.116 3.091.931-.249 1.54-.1 2.072-.243.321-.398.508-.761.696-1.123zM419.544 321.285l-2.259.605c.977.988 1.82 2.01 3.352 3.473l-1.093-4.078zM199.088 393.78c.509-.76 1.228-1.265 2.245-2.786-1.673.136-2.47.349-3.479.307.101.91.125 1.528.203 1.819l1.031.66zM76.017 206.663c1.907.738 2.86 1.107 4.08 1.404-.047-1.236.008-1.563-.093-2.472l-3.987 1.068zM53.912 279.395l-1.861.498c.023.619.046 1.237.015 2.182.875.077 1.54-.101 2.47-.35l-.624-2.33zM569.432 144.384c.687.44 1.508.844 2.883 1.724-.124-1.527-.147-2.145-.116-3.091-.93.25-1.54.101-2.071.243-.243.69-.431 1.052-.696 1.124zM543.14 78.688l1.462-.392-.546-2.039c-.133.036-.477-.184-.61-.148-.165.98-.274 1.634-.306 2.579zM76.335 377.97l.469 1.748c.586-.469 1.227-1.266 2.135-2.133-.798.214-1.33.356-2.604.385zM540.178 243.07c.931-.25 1.728-.463 2.448-.968.054-.327.32-.399.375-.725-1.008-.042-2.017-.084-2.892-.162.078.291.179 1.201.069 1.855zM572.431 202.896c.587-.469 1.228-1.266 2.401-2.204-3.268.563-3.268.563-2.401 2.204zM70.057 326.892l2.126-.569-.858-3.204c-.728 2.068-.97 2.757-1.268 3.773zM60.697 315.352l-3.455.926c.078.291.078.291.023.618 1.196-.321 2.337-.314 3.533-.635-.078-.291-.156-.582-.1-.909zM360.95 353.532c-.43 1.052-.806 1.777-1.103 2.793 1.806-.172 3.479-.308 1.103-2.793z"/>
        <path d="M190.568 393.878c-.586.469 17.301-4.011 15.807-2.675 1.939-.207-16.269 4.672-15.261 4.714l-.546-2.039zM493.147 306.246l-.781-2.912-.664.178c.101.909.147 2.145.249 3.055.32-.398.797-.214 1.196-.321zM501.499 303.384c.586-.469 1.438-1.009 2.932-2.346-1.939.207-2.603.385-3.479.308l.547 2.038zM104.69 376.929l-1.462.392.546 2.039c.133-.036.477.184.61.149.165-.981.196-1.926.306-2.58zM61.357 232.757l3.322-.891c-1.884-.119-2.892-.161-3.502-.31.188-.363.211.256.18 1.201zM500.564 69.18c.294-.08.252-1.187-.093-2.474-.344-1.287-.862-2.266-1.156-2.187-.293.078-.252 1.185.093 2.472s.863 2.267 1.156 2.188zM505.435 66.626c-.61-.15-1.431-.554-2.119-.994.079.291.024.618.125 1.528l1.994-.534zM208.931 96.123l-.702-2.622c-.353 1.344-.517 2.324-.627 2.978-.477-.184.055-.327 1.329-.356zM114.166 112.462c-.298 1.016-.595 2.032-.76 3.013 1.196-.32 3.08-.201.76-3.013zM57.833 231.828c.294-.079.357-.794.141-1.599-.215-.804-.628-1.392-.922-1.314-.293.079-.356.795-.141 1.599.216.804.628 1.393.922 1.314zM74.891 208.838l-.468-1.748-.664.178c.023.618.046 1.236-.064 1.89.32-.398.72-.505 1.196-.32zM95.44 139.333l2.26-.606c-.078-.291.055-.326-.023-.618-.665.178-1.54.101-2.205.279-.188.362-.11.654-.032.945zM77.478 284.944l-.468-1.748-.665.178c.023.618.047 1.236-.063 1.89l1.196-.32zM104.142 135.128l.469 1.748.664-.179c-.023-.618-.046-1.236.064-1.89l-1.197.321zM90.672 137.488l.468 1.748.664-.178c-.023-.618.087-1.272.064-1.89l-1.196.32zM562.531 159.032l.469 1.748.664-.178c-.023-.618.087-1.272.063-1.89-.453.433-.93.249-1.196.32zM38.785 278.765l.624 2.33c.266-.071.4-.106.665-.178l-.624-2.33-.665.178zM391.848 343.38l.468 1.747.664-.178c-.023-.618.087-1.272.064-1.89l-1.196.321zM368.209 341.285l-2.26.605c.078.291.078.291.023.618.798-.214 1.54-.1 2.338-.314-.078-.291-.156-.583-.101-.909zM372.063 340.252l-2.259.605c.078.291.078.291.023.618.798-.213 1.54-.1 2.338-.314.054-.327-.024-.618-.102-.909zM465.058 53.093c.294-.078.357-.794.141-1.598-.215-.805-.628-1.393-.921-1.314-.294.078-.357.794-.142 1.599.216.804.628 1.392.922 1.313zM138.571 389.08l-.469-1.748-.664.178c.023.618.046 1.236-.064 1.89l1.197-.32zM133.725 386.944l-.468-1.748-.664.178c.023.618-.087 1.272-.064 1.89.321-.398.72-.505 1.196-.32zM137.491 133.06l-1.329.356.546 2.039.93-.249c-.156-.582-.046-1.236-.147-2.146zM142.93 133.163l-2.259.606c.078.291.078.291.023.618.798-.214 1.54-.1 2.338-.314-.078-.291-.024-.618-.102-.91zM533.274 175.301c1.517-.719 2.236-1.224 2.956-1.728-.743-.114-1.275.029-2.017-.084-.055.326-.243.689-.939 1.812zM84.415 292.763l2.26-.606c-.078-.291.055-.327-.023-.618-.743-.113-1.54.101-2.283-.013.023.619.101.91.046 1.237zM558.505 235.974l.468 1.747.665-.178c-.024-.618.086-1.272.063-1.89l-1.196.321zM565.784 234.96c-1.517.719-2.237 1.224-2.956 1.729.743.113 1.274-.03 2.017.084.055-.327.242-.69.939-1.813zM568.477 222.687l-2.259.605c.078.292-.055.327.023.619.665-.178 1.54-.101 2.205-.279.054-.327.109-.654.031-.945zM50.408 211.028l.468 1.747.664-.178c-.023-.618-.046-1.236.064-1.89l-1.196.321zM73.344 151.497l.312 1.165.4-.107-.313-1.165-.399.107zM156.502 131.713l-.313-1.166-.398.107.312 1.165.399-.106zM41.816 194.91c-.321.398-.509.761-.83 1.159.134-.036.344.22.477.185.188-.363.509-.761.697-1.124-.211-.255-.211-.255-.344-.22zM64.377 209.47l.312 1.165.399-.107-.313-1.165-.398.107zM256.547 91.481l.313 1.166.398-.107-.312-1.165-.399.106zM87.897 140.418l-.312-1.166-.399.107.312 1.165.4-.106zM118.178 126.372l-.313-1.165-.398.107.312 1.165.399-.107zM217.903 100.899l.312 1.165.399-.106-.312-1.166-.399.107zM222.523 100.598l-.312-1.165-.399.107.313 1.165.398-.107zM537.592 107.959l.312 1.165.399-.106-.312-1.165-.399.106zM44.968 225.285l-.312-1.165-.399.106.313 1.166.398-.107zM549.726 87.85l-.312-1.165a218.4 218.4 0 0 0-.398.107l.312 1.165.398-.107zM513.333 64.197c.146-.04.16-.462.031-.945-.129-.483-.353-.842-.5-.803-.147.04-.161.463-.031.946.129.482.353.842.5.802zM55.655 168.412l-.312-1.165-.399.107.312 1.165.4-.107zM70.779 228.047l.312 1.165.399-.107-.312-1.165-.399.107zM549.017 101.152l-.312-1.165-.399.107.313 1.165.398-.107zM28.622 229.665l.312 1.165.399-.107-.313-1.165-.398.107zM562.153 224.07c-.344-.22-.821-.405-1.165-.625-.133.036-.188.363-.321.398.477.185.821.405 1.298.589-.078-.291.055-.327.188-.362z"/>
        <path d="M561.887 224.141c.343.22.82.405 1.164.625.133-.036.188-.363.321-.398-.477-.185-.821-.405-1.298-.589-.055.326-.187.362-.187.362zM94.747 355.242l.312 1.165.399-.106-.312-1.166-.399.107zM570.24 230.332l-.312-1.165-.398.106.312 1.165.398-.106zM568.308 234.283l.313 1.165.398-.106-.312-1.165-.399.106zM562.772 237.016c-.321.398-.508.76-.829 1.158.133-.035.344.22.477.185.187-.363.508-.761.696-1.123-.211-.256-.344-.22-.344-.22zM529.973 255.482l.312 1.165.399-.107-.312-1.165-.399.107zM75.53 306.382c.078.291 4.62-.301 4.698-.01l.4-.107c-.079-.291-4.62.302-4.699.01l-.399.107zM98.83 312.002l.313 1.165.398-.106-.312-1.166-.399.107zM561.658 192.983l-.312-1.165-.399.107.312 1.165.399-.107zM94.502 321.903c.147-.039.161-.462.032-.945-.13-.483-.353-.842-.5-.803-.147.04-.16.463-.032.945.13.483.354.842.5.803zM581.056 198.4l.313 1.165.398-.107-.312-1.165-.399.107zM563.903 204.557c.32-.398.508-.761.829-1.159-.133.036-.344-.22-.477-.184-.188.362-.509.76-.696 1.123.133-.036.265-.072.344.22z"/>
        <path d="M563.694 204.301c-.32.398-.508.761-.829 1.159.133-.036.344.22.477.184.188-.362.508-.761.696-1.123-.211-.256-.344-.22-.344-.22zM557.295 214.444l.313 1.166.398-.107-.312-1.165-.399.106zM81.009 382.65c.514-.138.895-.38.852-.541-.043-.161-.495-.179-1.008-.042-.514.138-.896.38-.853.541.043.161.495.179 1.009.042zM140.558 384.801l1.329-.356-.078-.292-1.33.357.079.291zM49.087 283.185l-.313-1.165-.398.107.312 1.165.399-.107zM48.534 277.402l.312 1.165.399-.107-.312-1.165-.399.107zM543.487 146.965c-.344-.22-.821-.405-1.165-.625-.133.036-.187.363-.32.398.476.185.82.405 1.297.589.133-.035.266-.071.188-.362zM109.366 277.96l-.312-1.165-.398.107.312 1.165.398-.107zM572.6 157.271l-.312-1.165-.398.107.312 1.165.398-.107zM127.946 277.664l-.312-1.165-.399.107.312 1.165.399-.107zM113.501 372.07l.312 1.165.399-.106-.313-1.166-.398.107zM488.153 62.203c.321-.399.509-.761.83-1.16-.133.037-.344-.22-.477-.184-.188.363-.509.761-.697 1.123.133-.035.211.256.344.22zM471.257 50.184c.147-.04.161-.463.032-.946-.129-.482-.353-.841-.5-.802-.147.04-.161.462-.031.945.129.483.353.842.499.803z"/>
    </g>
    <defs>
        <clipPath id="a">
            <path fill="#fff" d="M0 0h552.547v299.051H0z" transform="rotate(-15 543.294 71.526) scale(1.0003)"/>
        </clipPath>
    </defs>
</svg>
