<svg xmlns="http://www.w3.org/2000/svg" width="21" height="21" fill="none" viewBox="0 0 21 21">
    <circle cx="10.5" cy="10.5" r="10.5" fill="#fff"/>
    <g fill="#37173D" clip-path="url(#a)">
        <path d="M10.5 5.057c1.77 0 1.99 0 2.68.028.747.027 1.465.193 1.99.718.525.525.691 1.243.719 1.99.027.69.027.911.027 2.68 0 1.768 0 1.99-.027 2.68-.028.746-.194 1.464-.719 1.99-.525.524-1.243.69-1.99.718-.69.028-.91.028-2.68.028-1.768 0-1.989 0-2.68-.028-.746-.028-1.464-.194-1.99-.719-.524-.524-.69-1.243-.717-1.989-.028-.69-.028-.912-.028-2.68 0-1.769 0-1.99.028-2.68.027-.719.165-1.437.718-1.962.553-.525 1.243-.691 1.99-.719.69-.055.911-.055 2.68-.055zm0-1.188c-1.795 0-2.016 0-2.735.027-1.077.056-2.017.332-2.79 1.078-.774.774-1.023 1.713-1.078 2.79-.028.72-.028.94-.028 2.736 0 1.796 0 2.018.028 2.736.055 1.078.331 2.017 1.077 2.79.774.774 1.714 1.023 2.791 1.078.719.028.94.028 2.736.028 1.796 0 2.017 0 2.735-.028 1.078-.055 2.017-.304 2.791-1.077.774-.774 1.022-1.713 1.078-2.791.027-.719.027-.94.027-2.736 0-1.796 0-2.017-.027-2.735-.056-1.078-.332-2.017-1.078-2.79-.774-.775-1.713-1.023-2.79-1.079-.72-.027-.94-.027-2.736-.027z"/>
        <path d="M10.502 7.102a3.396 3.396 0 0 0-3.4 3.399 3.396 3.396 0 0 0 3.4 3.398 3.396 3.396 0 0 0 3.398-3.398 3.396 3.396 0 0 0-3.399-3.4zm0 5.609a2.217 2.217 0 0 1-2.211-2.21c0-1.216.995-2.211 2.21-2.211 1.216 0 2.211.995 2.211 2.21 0 1.216-.995 2.211-2.21 2.211zM14.037 7.765a.801.801 0 1 0 0-1.603.801.801 0 0 0 0 1.603z"/>
    </g>
    <defs>
        <clipPath id="a">
            <path fill="#fff" d="M0 0h12.986v12.986H0z" transform="translate(3.87 3.869) scale(1.02139)"/>
        </clipPath>
    </defs>
</svg>
