<svg xmlns="http://www.w3.org/2000/svg" width="74" height="56" fill="none" viewBox="0 0 74 56">
    <path fill="#FC4945" d="M7.596 42.8l.876 1.783 1.939.282c.08.013.12.08.12.147 0 .027-.014.054-.04.08L9.083 46.5l.332 1.97c.013.067-.04.148-.106.161-.027 0-.053 0-.08-.013l-1.753-.939-1.74.925c-.066.04-.146.014-.185-.053-.014-.027-.014-.054-.014-.08L5.87 46.5l-1.407-1.394a.13.13 0 0 1 0-.188c.026-.027.053-.04.08-.04l1.951-.282.877-1.782c.026-.067.106-.094.173-.067.013 0 .04.026.053.053zM14.964 42.8l.877 1.783 1.938.282c.08.013.12.08.12.147 0 .027-.013.054-.04.08L16.451 46.5l.332 1.97c.014.067-.04.148-.106.161-.026 0-.053 0-.08-.013l-1.752-.939-1.74.925c-.066.04-.146.014-.186-.053-.013-.027-.013-.054-.013-.08l.332-1.971-1.408-1.394a.13.13 0 0 1 0-.188c.027-.027.053-.04.08-.04l1.952-.282.876-1.782c.027-.067.107-.094.173-.067.013 0 .04.026.053.053zM22.33 42.8l.877 1.783 1.939.282c.08.013.12.08.12.147 0 .027-.014.054-.04.08L23.818 46.5l.332 1.97c.013.067-.04.148-.106.161-.027 0-.053 0-.08-.013l-1.753-.939-1.74.925c-.066.04-.145.014-.185-.053-.014-.027-.014-.054-.014-.08l.332-1.971-1.407-1.394a.13.13 0 0 1 0-.188c.026-.027.053-.04.08-.04l1.952-.282.876-1.782c.027-.067.106-.094.173-.067.013 0 .04.026.053.053zM29.697 42.8l.877 1.783 1.939.282c.08.013.119.08.119.147 0 .027-.013.054-.04.08L31.185 46.5l.332 1.97c.013.067-.04.148-.107.161-.026 0-.053 0-.08-.013l-1.752-.939-1.74.925c-.066.04-.146.014-.186-.053-.013-.027-.013-.054-.013-.08l.332-1.971-1.408-1.394a.13.13 0 0 1 0-.188c.027-.027.053-.04.08-.04l1.952-.282.877-1.782c.026-.067.106-.094.172-.067.014 0 .04.026.053.053zM37.064 42.8l.876 1.783 1.94.282c.079.013.119.08.119.147 0 .027-.014.054-.04.08L38.55 46.5l.332 1.97c.013.067-.04.148-.106.161-.027 0-.053 0-.08-.013l-1.753-.939-1.74.925c-.066.04-.145.014-.185-.053-.013-.027-.013-.054-.013-.08l.331-1.971-1.407-1.394a.13.13 0 0 1 0-.188c.026-.027.053-.04.08-.04l1.952-.282.876-1.782c.027-.067.106-.094.173-.067.013 0 .04.026.053.053z"/>
    <path fill="#fff" d="M21.337 25.589c4.208 0 7.622-3.42 7.622-7.636s-3.414-7.637-7.622-7.637c-4.209 0-7.623 3.42-7.623 7.636s3.414 7.637 7.623 7.637zm0-12.727a5.08 5.08 0 0 1 5.081 5.09 5.08 5.08 0 1 1-10.163 0 5.08 5.08 0 0 1 5.082-5.09z"/>
    <path fill="#fff" d="M29.454 25.654a1.263 1.263 0 0 0-1.556.064 10.129 10.129 0 0 1-13.117 0 1.263 1.263 0 0 0-1.557-.064 14.024 14.024 0 0 0-5.86 11.39c0 .7.572 1.274 1.271 1.274h25.408c.7 0 1.27-.573 1.27-1.273 0-4.518-2.19-8.766-5.859-11.391zM9.969 35.772a11.445 11.445 0 0 1 3.986-7.461 12.67 12.67 0 0 0 14.769 0 11.552 11.552 0 0 1 3.985 7.461H9.97z"/>
    <path fill="#43D3E8" d="M48.367 34.174l-.747 4.343c-.111.7.35 1.352 1.032 1.464.27.048.556 0 .81-.127l3.89-2.053 3.892 2.053c.619.334 1.381.08 1.715-.541a1.3 1.3 0 0 0 .127-.812l-.747-4.343 3.145-3.07a1.279 1.279 0 0 0 .031-1.798 1.155 1.155 0 0 0-.73-.366l-4.351-.636-1.954-3.946a1.32 1.32 0 0 0-2.286 0l-1.938 3.946-4.351.636a1.277 1.277 0 0 0-1.08 1.448c.048.27.175.525.365.732l3.177 3.07zm2.921-3.452c.413-.064.779-.318.953-.7l1.096-2.227 1.096 2.227c.19.382.54.636.953.7l2.46.366-1.778 1.734a1.287 1.287 0 0 0-.365 1.13l.413 2.45-2.207-1.162c-.366-.19-.81-.19-1.175 0l-2.208 1.161.429-2.45a1.302 1.302 0 0 0-.365-1.13l-1.779-1.733 2.477-.366z"/>
    <path fill="#fff" d="M69.873 0H3.81A3.806 3.806 0 0 0 0 3.818v48.364C0 54.298 1.7 56 3.811 56h66.062a3.806 3.806 0 0 0 3.811-3.818V3.818C73.684 1.702 71.985 0 69.873 0zM53.357 19.09c7.02 0 12.705 5.696 12.705 12.728s-5.685 12.727-12.704 12.727c-7.02 0-12.705-5.695-12.705-12.727.032-7.016 5.701-12.695 12.705-12.727zM63.522 2.546v17.898a15.42 15.42 0 0 0-8.893-3.834v-3.882c0-.7-.572-1.273-1.27-1.273-.7 0-1.27.573-1.27 1.273v3.882a15.42 15.42 0 0 0-8.894 3.834V2.545h20.327zm7.622 49.637c0 .7-.571 1.273-1.27 1.273H3.81c-.698 0-1.27-.573-1.27-1.273V3.818c0-.7.572-1.273 1.27-1.273h36.842v20.841C36 30.418 37.922 39.9 44.925 44.561c7.02 4.662 16.484 2.737 21.137-4.28a15.307 15.307 0 0 0 0-16.879V2.545h3.81c.7 0 1.271.573 1.271 1.273v48.364z"/>
</svg>
