<svg width="69" height="68" viewBox="0 0 69 68" fill="none" xmlns="http://www.w3.org/2000/svg">
<mask id="mask0" mask-type="alpha" maskUnits="userSpaceOnUse" x="16" y="7" width="35" height="54">
<g clip-path="url(#clip0)">
<path d="M46.0314 7.3537L45.7431 7.24469C43.5745 6.46801 41.1725 7.57172 40.3902 9.72463L39.9235 10.9919C38.9902 11.0191 38.1118 11.605 37.7824 12.5316L37.5078 13.2947H18.7451C17.2353 13.2947 16 14.521 16 16.0199V22.9419C16 24.4408 17.2353 25.6671 18.7451 25.6671H32.9647C32.5667 26.7708 32.8686 27.7246 33.5686 28.3378C33.0196 29.8367 24.6882 52.5649 24.1529 54.0093C23.4529 55.9169 24.249 57.9472 25.8549 58.9419L25.6078 59.6096C25.4157 60.141 25.6902 60.7269 26.2255 60.9177C26.7608 61.1084 27.351 60.8359 27.5431 60.3045L27.7902 59.6368C29.7118 59.8957 31.6059 58.8056 32.2922 56.9525C32.7725 55.6444 36.0392 46.7193 36.4784 45.5339C36.6706 45.0025 36.3961 44.4165 35.8608 44.2258C35.3255 44.035 34.7353 44.3075 34.5431 44.8389L31.4686 53.2462C28.6824 52.2379 29.5059 52.5377 27.1863 51.7065L35.4353 29.2235C36.9863 29.7822 38.1667 30.2046 39.7176 30.7632L36.1902 40.3696C35.998 40.901 36.2725 41.4869 36.8078 41.6777C37.3431 41.8685 37.9333 41.5959 38.1255 41.0645L41.7078 31.2947C42.6412 31.2674 43.5196 30.6815 43.849 29.7549L48.2824 17.6686C48.8863 18.2954 49.1333 19.2356 48.8039 20.094L44.6451 31.4445C44.4529 31.976 44.7274 32.5619 45.2627 32.7526C45.798 32.9434 46.3882 32.6709 46.5804 32.1395L50.7392 20.789C51.4804 18.7859 50.6294 16.5785 48.8451 15.5293C48.8039 14.9162 48.5157 14.3439 48.0627 13.9351L48.5294 12.6679C49.3255 10.5149 48.2 8.14401 46.0314 7.3537ZM42.3255 10.4332C42.7235 9.3431 43.9451 8.77081 45.0431 9.17959L45.3314 9.2886C46.4294 9.68375 47.0059 10.8965 46.5941 11.9866L46.1961 13.0903L41.9137 11.5505L42.3255 10.4332ZM33.7196 23.6368H18.7451C18.3745 23.6368 18.0451 23.3234 18.0451 22.9419V16.0335C18.0451 15.6656 18.3608 15.3386 18.7451 15.3386H36.7529C36.4098 16.2788 34.049 22.7102 33.7196 23.6368ZM26.0882 54.7178L26.5 53.6141C29.2863 54.6224 28.4627 54.3227 30.7824 55.1539L30.3706 56.2576C29.4098 58.8465 25.1 57.4022 26.0882 54.7178ZM41.9137 29.0464C41.8588 29.2099 41.6667 29.2916 41.5157 29.2371C41.2961 29.1554 35.1745 26.9479 35.0373 26.8934C34.8725 26.8389 34.7902 26.6482 34.8451 26.4983C35.3804 25.0539 39.1824 14.6709 39.7039 13.2402C39.7588 13.0766 39.951 12.9949 40.102 13.0494C41.5569 13.5672 45.1255 14.8616 46.5804 15.3931C46.7451 15.4476 46.8274 15.6383 46.7725 15.7882L41.9137 29.0464Z" fill="black"/>
</g>
</mask>
<g mask="url(#mask0)">
<rect width="23.8656" height="67.0281" transform="matrix(-0.938391 -0.345575 -0.345575 0.938391 64.9629 7.96021)" fill="#43D3E8"/>
</g>
<path d="M67.5687 10.5276L56.2802 5.10269V2.68562C56.2802 1.20853 55.065 0 53.5796 0H32.2045C31.6509 0 31.1918 0.443128 31.1918 1.00711C31.1918 1.57109 31.6374 2.01422 32.2045 2.01422H53.5661C53.9307 2.01422 54.2548 2.32306 54.2548 2.69905V65.3144C54.2548 65.6769 53.9442 65.9992 53.5661 65.9992H11.7205V2.01422H27.492C28.0456 2.01422 28.5047 1.57109 28.5047 1.00711C28.5047 0.443128 28.0456 0 27.492 0C26.3982 0 7.62916 0 6.96751 0C3.13268 0 0 3.11532 0 6.92891V61.0577C0 64.8847 3.13268 67.9866 6.96751 67.9866H53.5661C55.0515 67.9866 56.2667 66.778 56.2667 65.3009V36.3365L68.6759 14.0055C69.3916 12.7433 68.8785 11.1588 67.5687 10.5276ZM6.96751 65.9858C4.23992 65.9858 2.02544 63.7836 2.02544 61.0711V6.92891C2.02544 4.21643 4.23992 2.01422 6.96751 2.01422H9.69511V65.9858H6.96751ZM66.9205 13.0387L56.2802 32.1872V7.34518L66.691 12.3539C66.9475 12.4613 67.0556 12.7836 66.9205 13.0387Z" fill="white"/>
<mask id="mask1" mask-type="alpha" maskUnits="userSpaceOnUse" x="16" y="7" width="35" height="54">
<g clip-path="url(#clip1)">
<path d="M46.0314 7.3537L45.7431 7.24469C43.5745 6.46801 41.1725 7.57172 40.3902 9.72463L39.9235 10.9919C38.9902 11.0191 38.1118 11.605 37.7824 12.5316L37.5078 13.2947H18.7451C17.2353 13.2947 16 14.521 16 16.0199V22.9419C16 24.4408 17.2353 25.6671 18.7451 25.6671H32.9647C32.5667 26.7708 32.8686 27.7246 33.5686 28.3378C33.0196 29.8367 24.6882 52.5649 24.1529 54.0093C23.4529 55.9169 24.249 57.9472 25.8549 58.9419L25.6078 59.6096C25.4157 60.141 25.6902 60.7269 26.2255 60.9177C26.7608 61.1084 27.351 60.8359 27.5431 60.3045L27.7902 59.6368C29.7118 59.8957 31.6059 58.8056 32.2922 56.9525C32.7725 55.6444 36.0392 46.7193 36.4784 45.5339C36.6706 45.0025 36.3961 44.4165 35.8608 44.2258C35.3255 44.035 34.7353 44.3075 34.5431 44.8389L31.4686 53.2462C28.6824 52.2379 29.5059 52.5377 27.1863 51.7065L35.4353 29.2235C36.9863 29.7822 38.1667 30.2046 39.7176 30.7632L36.1902 40.3696C35.998 40.901 36.2725 41.4869 36.8078 41.6777C37.3431 41.8685 37.9333 41.5959 38.1255 41.0645L41.7078 31.2947C42.6412 31.2674 43.5196 30.6815 43.849 29.7549L48.2824 17.6686C48.8863 18.2954 49.1333 19.2356 48.8039 20.094L44.6451 31.4445C44.4529 31.976 44.7274 32.5619 45.2627 32.7526C45.798 32.9434 46.3882 32.6709 46.5804 32.1395L50.7392 20.789C51.4804 18.7859 50.6294 16.5785 48.8451 15.5293C48.8039 14.9162 48.5157 14.3439 48.0627 13.9351L48.5294 12.6679C49.3255 10.5149 48.2 8.14401 46.0314 7.3537ZM42.3255 10.4332C42.7235 9.3431 43.9451 8.77081 45.0431 9.17959L45.3314 9.2886C46.4294 9.68375 47.0059 10.8965 46.5941 11.9866L46.1961 13.0903L41.9137 11.5505L42.3255 10.4332ZM33.7196 23.6368H18.7451C18.3745 23.6368 18.0451 23.3234 18.0451 22.9419V16.0335C18.0451 15.6656 18.3608 15.3386 18.7451 15.3386H36.7529C36.4098 16.2788 34.049 22.7102 33.7196 23.6368ZM26.0882 54.7178L26.5 53.6141C29.2863 54.6224 28.4627 54.3227 30.7824 55.1539L30.3706 56.2576C29.4098 58.8465 25.1 57.4022 26.0882 54.7178ZM41.9137 29.0464C41.8588 29.2099 41.6667 29.2916 41.5157 29.2371C41.2961 29.1554 35.1745 26.9479 35.0373 26.8934C34.8725 26.8389 34.7902 26.6482 34.8451 26.4983C35.3804 25.0539 39.1824 14.6709 39.7039 13.2402C39.7588 13.0766 39.951 12.9949 40.102 13.0494C41.5569 13.5672 45.1255 14.8616 46.5804 15.3931C46.7451 15.4476 46.8274 15.6383 46.7725 15.7882L41.9137 29.0464Z" fill="black"/>
</g>
</mask>
<g mask="url(#mask1)">
<path d="M44.5586 -5.75269L25.6379 -12.7205L2.47463 50.1781L21.3953 57.1459L44.5586 -5.75269Z" fill="#FC4945"/>
</g>
<defs>
<clipPath id="clip0">
<rect width="35" height="54" fill="white" transform="translate(16 7)"/>
</clipPath>
<clipPath id="clip1">
<rect width="35" height="54" fill="white" transform="translate(16 7)"/>
</clipPath>
</defs>
</svg>
