<svg xmlns="http://www.w3.org/2000/svg" width="65" height="61" fill="none" viewBox="0 0 65 61">
    <path fill="#fff" d="M59.668 5.115h-7.11V3.836C52.559 1.726 50.846 0 48.75 0c-2.095 0-3.809 1.726-3.809 3.836v1.279H36.31V3.836C36.309 1.726 34.595 0 32.5 0s-3.809 1.726-3.809 3.836v1.279H20.06V3.836C20.059 1.726 18.345 0 16.25 0s-3.809 1.726-3.809 3.836v1.279H5.332C2.387 5.115 0 7.519 0 10.485v43.478c0 3.53 2.844 6.394 6.348 6.394H26.8c.698 0 1.27-.575 1.27-1.279 0-.703-.572-1.278-1.27-1.278H6.348c-2.095 0-3.809-1.727-3.809-3.837v-36.06h59.922v36.06c0 2.11-1.714 3.837-3.809 3.837H38.226a1.278 1.278 0 1 0 0 2.558h20.426c3.504 0 6.348-2.865 6.348-6.395V10.486c0-2.967-2.387-5.371-5.332-5.371zM47.48 3.836c0-.703.572-1.278 1.27-1.278.698 0 1.27.575 1.27 1.278v5.115c0 .704-.572 1.279-1.27 1.279-.698 0-1.27-.575-1.27-1.279V3.836zm-16.25 0c0-.703.572-1.278 1.27-1.278.698 0 1.27.575 1.27 1.278v5.115c0 .704-.572 1.279-1.27 1.279-.698 0-1.27-.575-1.27-1.279V3.836zm-16.25 0c0-.703.572-1.278 1.27-1.278.698 0 1.27.575 1.27 1.278v5.115c0 .704-.572 1.279-1.27 1.279-.698 0-1.27-.575-1.27-1.279V3.836zM2.54 15.345v-4.86c0-1.547 1.256-2.812 2.792-2.812h7.11V8.95c0 2.11 1.713 3.836 3.808 3.836 2.095 0 3.809-1.726 3.809-3.836V7.673h8.632V8.95c0 2.11 1.714 3.836 3.809 3.836s3.809-1.726 3.809-3.836V7.673h8.632V8.95c0 2.11 1.714 3.836 3.809 3.836s3.809-1.726 3.809-3.836V7.673h7.109c1.536 0 2.793 1.265 2.793 2.813v4.859H2.539z"/>
    <path fill="#fff" d="M32.5 57.8c-.33 0-.66.14-.9.37a1.25 1.25 0 0 0-.369.908c0 .346.14.665.368.908.229.243.559.371.902.371.342 0 .66-.14.9-.37a1.25 1.25 0 0 0 .37-.909c0-.345-.14-.664-.37-.907a1.252 1.252 0 0 0-.9-.371z"/>
    <path fill="#FC4945" d="M19.808 24.027c0-.704-.571-1.279-1.27-1.279H8.383c-.698 0-1.27.575-1.27 1.279v10.23c0 .703.572 1.279 1.27 1.279H18.54c.698 0 1.27-.576 1.27-1.28v-10.23zm-2.539 8.951H9.652v-7.672h7.617v7.672z"/>
    <path fill="#43D3E8" d="M27.424 35.536H37.58c.698 0 1.27-.576 1.27-1.28v-10.23c0-.703-.572-1.278-1.27-1.278H27.424c-.699 0-1.27.575-1.27 1.279v10.23c0 .703.571 1.279 1.27 1.279zm1.27-10.23h7.616v7.672h-7.617v-7.672zM46.463 35.536h10.156c.699 0 1.27-.576 1.27-1.28v-10.23c0-.703-.572-1.278-1.27-1.278H46.463c-.698 0-1.27.575-1.27 1.279v10.23c0 .703.572 1.279 1.27 1.279zm1.27-10.23h7.617v7.672h-7.617v-7.672zM18.539 40.14H8.382c-.698 0-1.27.575-1.27 1.279v10.23c0 .703.572 1.279 1.27 1.279H18.54c.698 0 1.27-.576 1.27-1.28v-10.23a1.27 1.27 0 0 0-1.27-1.278zm-1.27 10.23H9.652v-7.672h7.617v7.672zM26.154 51.649c0 .703.571 1.279 1.27 1.279H37.58c.698 0 1.27-.576 1.27-1.28v-10.23c0-.703-.572-1.278-1.27-1.278H27.424c-.699 0-1.27.575-1.27 1.279v10.23zm2.54-8.951h7.616v7.672h-7.617v-7.672zM45.194 51.649c0 .703.57 1.279 1.269 1.279h10.156c.699 0 1.27-.576 1.27-1.28v-10.23c0-.703-.572-1.278-1.27-1.278H46.463c-.698 0-1.27.575-1.27 1.279v10.23zm2.539-8.951h7.617v7.672h-7.617v-7.672z"/>
</svg>
