<svg xmlns="http://www.w3.org/2000/svg" width="57" height="68" fill="none" viewBox="0 0 57 68">
    <path fill="#FC4945" d="M31.419 31.184l-4.12 3.337-1.392-1.615a1.267 1.267 0 0 0-1.766-.142c-.535.443-.589 1.224-.143 1.757l2.176 2.538a1.244 1.244 0 0 0 1.73.16l5.066-4.1c.34-.285.518-.728.446-1.154a1.24 1.24 0 0 0-.784-.959 1.16 1.16 0 0 0-1.213.178z"/>
    <path fill="#fff" d="M32.58 4.25h-8.499v2.829h8.5v-2.83z"/>
    <path fill="#43D3E8" d="M17 51H14.17v2.828H17V51zM17 45.328H14.17v2.83H17v-2.83zM22.66 51h-2.829v2.828h2.83V51z"/>
    <path fill="#fff" d="M55.246 24.079c-1.953 0-4.914.677-7.079 2.71V4.25c0-2.35-1.899-4.25-4.25-4.25H12.75c-2.35 0-4.25 1.9-4.25 4.25v17H4.25C1.9 21.25 0 23.15 0 25.5v2.829a4.19 4.19 0 0 0 1.089 2.829A4.25 4.25 0 0 0 0 34v2.829a4.19 4.19 0 0 0 1.089 2.829A4.25 4.25 0 0 0 0 42.5v2.829a4.19 4.19 0 0 0 1.089 2.829A4.25 4.25 0 0 0 0 51v2.829c0 2.35 1.9 4.25 4.25 4.25H8.5v5.671c0 2.35 1.898 4.25 4.249 4.25h31.169c2.35 0 4.25-1.9 4.25-4.25V33.017a6.493 6.493 0 0 1 5.67-5.95V66.58h2.829V25.5c0-.784-.638-1.421-1.421-1.421zM12.749 2.829h31.169c.783 0 1.42.637 1.42 1.421V8.5H11.342V4.25a1.403 1.403 0 0 1 1.408-1.421zm-9.92 42.5V42.5c0-.784.637-1.421 1.42-1.421H8.5v5.671H4.25a1.423 1.423 0 0 1-1.42-1.421zm0-8.5V34c0-.784.637-1.421 1.42-1.421H8.5v5.671H4.25a1.423 1.423 0 0 1-1.42-1.421zm0-11.329c0-.784.637-1.421 1.42-1.421H8.5v5.671H4.25a1.423 1.423 0 0 1-1.42-1.421V25.5zm1.42 29.75a1.423 1.423 0 0 1-1.42-1.421V51c0-.784.637-1.421 1.42-1.421H8.5v5.671H4.25zm39.669 9.921H12.749a1.423 1.423 0 0 1-1.421-1.421V59.5h33.997v4.25c0 .784-.624 1.421-1.407 1.421zm1.407-8.5H11.328V11.33h33.997V56.67z"/>
    <path fill="#FC4945" d="M28.333 19.828c-7.822 0-14.17 6.349-14.17 14.171 0 7.823 6.348 14.171 14.17 14.171 7.822-.013 14.157-6.348 14.17-14.17 0-7.823-6.348-14.172-14.17-14.172zm0 25.5c-6.255 0-11.328-5.073-11.328-11.329 0-6.255 5.073-11.329 11.328-11.329 6.255.014 11.328 5.074 11.328 11.33.014 6.255-5.06 11.328-11.328 11.328z"/>
    <path fill="#43D3E8" d="M42.496 14.17h-2.83V17h2.83v-2.83zM42.496 19.828h-2.83v2.83h2.83v-2.83zM36.83 14.17H34V17h2.83v-2.83z"/>
</svg>
