<svg xmlns="http://www.w3.org/2000/svg" width="72" height="68" fill="none" viewBox="0 0 72 68">
    <path fill="#FC4945" d="M38.502 17.733c-4.08 0-7.395-3.31-7.395-7.385V7.385C31.094 3.31 34.422 0 38.502 0c4.081 0 7.395 3.31 7.395 7.385v2.963c0 4.076-3.313 7.385-7.395 7.385zm0-14.77A4.45 4.45 0 0 0 34.06 7.4v2.963a4.45 4.45 0 0 0 4.442 4.437 4.45 4.45 0 0 0 4.443-4.438V7.386a4.447 4.447 0 0 0-4.443-4.422z"/>
    <path fill="#FC4945" d="M51.822 31.044a1.472 1.472 0 0 1-1.476-1.474v-.997c0-.78-.202-1.547-.593-2.226a4.288 4.288 0 0 0-1.636-1.619l-5.89-3.353a4.288 4.288 0 0 1-1.635-1.618 4.473 4.473 0 0 1-.608-2.226v-1.243c0-.81.666-1.474 1.477-1.474.81 0 1.476.665 1.476 1.474v1.243c0 .26.072.506.202.737.13.231.319.42.536.535l5.89 3.353a7.539 7.539 0 0 1 2.735 2.703 7.444 7.444 0 0 1 .998 3.714v.997c.015.81-.65 1.474-1.476 1.474zM25.177 35.481c-.81 0-1.476-.665-1.476-1.474v-5.434c0-1.3.348-2.587.999-3.715a7.218 7.218 0 0 1 2.735-2.702l5.89-3.353c.231-.13.42-.318.55-.535.13-.231.202-.477.202-.737v-1.243c0-.81.666-1.474 1.476-1.474.81 0 1.477.665 1.477 1.474v1.243c0 .78-.203 1.547-.594 2.226a4.43 4.43 0 0 1-1.635 1.633l-5.905 3.324a4.5 4.5 0 0 0-1.635 1.619 4.473 4.473 0 0 0-.608 2.225v5.435c0 .823-.665 1.488-1.476 1.488z"/>
    <path fill="#fff" d="M31.098 48.792c-.81 0-1.476-.665-1.476-1.474a4.45 4.45 0 0 1 4.443-4.437h13.328a2.969 2.969 0 0 0 2.967-2.963 2.969 2.969 0 0 0-2.967-2.963H34.065c-.16 0-.319-.029-.463-.072L29.39 35.48h-7.163c-2.431 0-4.747.925-6.353 2.53l-1.476 1.473a1.486 1.486 0 0 1-2.099 0 1.482 1.482 0 0 1 0-2.095l1.476-1.474c2.157-2.154 5.24-3.397 8.452-3.397h7.395c.16 0 .318.03.463.072l4.211 1.402H47.38c3.27 0 5.919 2.66 5.919 5.912a5.922 5.922 0 0 1-5.92 5.91H34.05c-.81 0-1.476.665-1.476 1.475 0 .838-.651 1.503-1.476 1.503z"/>
    <path fill="#fff" d="M23.27 57.218l-2.098-2.096 2.967-2.962a1.48 1.48 0 0 1 1.041-.434h20.203l15.687-12.82 6.556-10.478c-.348-.202-.71-.347-.999-.347-1.317 0-2.344 0-4.877 2.53l-2.966 2.963a1.085 1.085 0 0 1-.29.216L51.1 38.227l-1.52-2.529 7.251-4.336 2.836-2.832c3.14-3.137 4.935-3.382 6.961-3.382 2.04 0 3.806 1.72 4.009 1.907.492.492.579 1.243.203 1.836l-7.395 11.822c-.087.13-.189.26-.319.361l-16.28 13.311c-.26.217-.594.333-.941.333H25.788l-2.518 2.5z"/>
    <path fill="#43D3E8" d="M17.786 68a1.481 1.481 0 0 1-1.042-2.53l6.353-6.344L7.409 43.488l-4.876 4.87a1.486 1.486 0 0 1-2.099 0 1.481 1.481 0 0 1 0-2.095l5.919-5.91a1.486 1.486 0 0 1 2.098 0l17.757 17.733a1.481 1.481 0 0 1 0 2.095l-7.38 7.385a1.47 1.47 0 0 1-1.042.434z"/>
</svg>
