<svg width="49" height="67" viewBox="0 0 49 67" fill="none" xmlns="http://www.w3.org/2000/svg">
<path d="M47.8536 54.489L44.601 48.4336V33.4953C44.601 24.2509 38.343 16.4396 29.8212 13.9865V6.52382C29.8212 3.41222 27.2711 0.894531 24.1486 0.894531C21.0261 0.894531 18.4761 3.42513 18.4761 6.52382V13.9865C9.95421 16.4396 3.69619 24.2509 3.69619 33.4953V48.4465L0.443574 54.5019C-0.180927 55.6639 -0.141896 57.0454 0.534648 58.1687C1.2242 59.3048 2.42116 59.9762 3.74823 59.9762H16.6546C16.8758 63.8883 20.1544 66.9999 24.1486 66.9999C28.1428 66.9999 31.4214 63.8883 31.6426 59.9762H44.549C45.876 59.9762 47.086 59.3048 47.7626 58.1687C48.4521 57.0325 48.4911 55.6639 47.8536 54.489ZM21.4815 6.52382C21.4815 5.06485 22.6784 3.87702 24.1486 3.87702C25.6188 3.87702 26.8157 5.06485 26.8157 6.52382V13.3668C25.944 13.2506 25.0463 13.1989 24.1486 13.1989C23.2379 13.1989 22.3532 13.2635 21.4815 13.3668V6.52382ZM6.7016 33.4953C6.7016 23.941 14.5339 16.1814 24.1486 16.1814C33.7633 16.1814 41.5956 23.9539 41.5956 33.4953V47.207H6.7016V33.4953ZM24.1486 64.0174C21.8067 64.0174 19.8812 62.2357 19.673 59.9633H28.6372C28.416 62.2357 26.4905 64.0174 24.1486 64.0174ZM45.1865 56.6322C45.1214 56.7355 44.9263 56.9937 44.549 56.9937H3.76124C3.38394 56.9937 3.18878 56.7355 3.12373 56.6322C3.05867 56.5289 2.92857 56.232 3.11072 55.8963L6.16817 50.1895H42.1551L45.2125 55.8963C45.3947 56.232 45.2515 56.516 45.1865 56.6322Z" fill="white"/>
<path d="M24.1481 20.1458C16.7322 20.1458 10.6953 26.1366 10.6953 33.4959C10.6953 34.3223 11.3719 34.9807 12.1915 34.9807C13.0112 34.9807 13.6877 34.3093 13.6877 33.4959C13.6877 27.7763 18.3715 23.1282 24.1351 23.1282C24.9678 23.1282 25.6313 22.4569 25.6313 21.6435C25.6573 20.8171 24.9808 20.1458 24.1481 20.1458Z" fill="#43D3E8"/>
<mask id="mask0" mask-type="alpha" maskUnits="userSpaceOnUse" x="0" y="0" width="49" height="67">
<path d="M47.8536 54.489L44.601 48.4336V33.4953C44.601 24.2509 38.343 16.4396 29.8212 13.9865V6.52382C29.8212 3.41222 27.2711 0.894531 24.1486 0.894531C21.0261 0.894531 18.4761 3.42513 18.4761 6.52382V13.9865C9.95421 16.4396 3.69619 24.2509 3.69619 33.4953V48.4465L0.443574 54.5019C-0.180927 55.6639 -0.141896 57.0454 0.534648 58.1687C1.2242 59.3048 2.42116 59.9762 3.74823 59.9762H16.6546C16.8758 63.8883 20.1544 66.9999 24.1486 66.9999C28.1428 66.9999 31.4214 63.8883 31.6426 59.9762H44.549C45.876 59.9762 47.086 59.3048 47.7626 58.1687C48.4521 57.0325 48.4911 55.6639 47.8536 54.489ZM21.4815 6.52382C21.4815 5.06485 22.6784 3.87702 24.1486 3.87702C25.6188 3.87702 26.8157 5.06485 26.8157 6.52382V13.3668C25.944 13.2506 25.0463 13.1989 24.1486 13.1989C23.2379 13.1989 22.3532 13.2635 21.4815 13.3668V6.52382ZM6.7016 33.4953C6.7016 23.941 14.5339 16.1814 24.1486 16.1814C33.7633 16.1814 41.5956 23.9539 41.5956 33.4953V47.207H6.7016V33.4953ZM24.1486 64.0174C21.8067 64.0174 19.8812 62.2357 19.673 59.9633H28.6372C28.416 62.2357 26.4905 64.0174 24.1486 64.0174ZM45.1865 56.6322C45.1214 56.7355 44.9263 56.9937 44.549 56.9937H3.76124C3.38394 56.9937 3.18878 56.7355 3.12373 56.6322C3.05867 56.5289 2.92857 56.232 3.11072 55.8963L6.16817 50.1895H42.1551L45.2125 55.8963C45.3947 56.232 45.2515 56.516 45.1865 56.6322Z" fill="white"/>
<path d="M24.1481 20.1458C16.7322 20.1458 10.6953 26.1366 10.6953 33.4959C10.6953 34.3223 11.3719 34.9807 12.1915 34.9807C13.0112 34.9807 13.6877 34.3093 13.6877 33.4959C13.6877 27.7763 18.3715 23.1282 24.1351 23.1282C24.9678 23.1282 25.6313 22.4569 25.6313 21.6435C25.6573 20.8171 24.9808 20.1458 24.1481 20.1458Z" fill="#43D3E8"/>
</mask>
<g mask="url(#mask0)">
<rect width="69" height="15" transform="matrix(1 0 0 -1 -9 74.9999)" fill="#FC4945"/>
</g>
</svg>
