<svg xmlns="http://www.w3.org/2000/svg" width="21" height="21" fill="none" viewBox="0 0 21 21">
    <circle cx="10.5" cy="10.5" r="10.5" fill="#fff"/>
    <path fill="#37173D" d="M16.553 7.95s-.116-.849-.482-1.234c-.463-.482-1.002-.501-1.234-.52C13.084 6.08 10.5 6.08 10.5 6.08s-2.583 0-4.318.115c-.25.02-.77.039-1.233.52-.367.367-.482 1.234-.482 1.234s-.135 1.003-.135 2.005v.945c0 1.002.116 2.005.116 2.005s.115.848.481 1.233c.463.482 1.08.482 1.37.52.982.097 4.201.116 4.201.116s2.583 0 4.318-.135c.25-.019.771-.038 1.234-.52.366-.366.482-1.234.482-1.234s.135-1.002.135-2.005v-.944c0-.983-.116-1.986-.116-1.986zm-7.325 4.067v-3.47l3.335 1.735-3.335 1.735z"/>
</svg>
