<svg xmlns="http://www.w3.org/2000/svg" viewBox="0 0 24 24" width="24" height="24"><title>car parking</title><g class="nc-icon-wrapper" stroke-linecap="round" stroke-linejoin="round" stroke-width="0.5" fill="#000000" stroke="#000000"><path d="M20,15,18.2,9.7a.961.961,0,0,0-.9-.7H6.7a.961.961,0,0,0-.9.7L4,15" fill="none" stroke="#000000" stroke-miterlimit="10" data-cap="butt"/> <path d="M22,21H2V17.4a.908.908,0,0,1,.3-.7L4,15H20l1.7,1.7a.908.908,0,0,1,.3.7Z" fill="none" stroke="#000000" stroke-miterlimit="10"/> <circle cx="6" cy="18" r="1" fill="#000000" data-cap="butt" data-stroke="none" stroke="none"/> <circle cx="18" cy="18" r="1" fill="#000000" data-cap="butt" data-stroke="none" stroke="none"/> <polyline points="1 7 12 2 23 7" fill="none" stroke-miterlimit="10" data-cap="butt" data-color="color-2"/> <rect x="2" y="21" width="4" height="2" fill="none" stroke="#000000" stroke-miterlimit="10"/> <rect x="18" y="21" width="4" height="2" fill="none" stroke="#000000" stroke-miterlimit="10"/></g></svg>