<svg xmlns="http://www.w3.org/2000/svg" xmlns:xlink="http://www.w3.org/1999/xlink" x="0px" y="0px" width="48px" height="48px" viewBox="0 0 48 48"><g stroke-width="2" transform="translate(0.5, 0.5)"><line data-cap="butt" data-color="color-2" x1="2" y1="31" x2="46" y2="31" fill="none" stroke="#000000" stroke-miterlimit="10" stroke-width="2" stroke-linecap="butt" stroke-linejoin="miter"></line>
<path d="M16.058,8.048,34,23h6a6,6,0,0,1,6,6v4a4.013,4.013,0,0,1-4,4H6a4.013,4.013,0,0,1-4-4V16.664a2,2,0,0,1,2.964-1.75A15.425,15.425,0,0,0,12,17a9.483,9.483,0,0,0,4-.894" fill="none" stroke="#000000" stroke-linecap="square" stroke-miterlimit="10" stroke-width="2" stroke-linejoin="miter"></path></g></svg>