<svg xmlns="http://www.w3.org/2000/svg" viewBox="0 0 64 64" width="64" height="64"><title>moto</title><g class="nc-icon-wrapper" stroke-linecap="round" stroke-linejoin="round" stroke-width="2" fill="#000000" stroke="#000000"><polyline data-cap="butt" fill="none" stroke="#000000" stroke-miterlimit="10" points="11.994,34.055 2,24 2,20 12,22 16,26 "/> <path data-stroke="none" fill="#000000" d="M25.511,29h-7.069c-0.861,0-1.625-0.551-1.897-1.368L16,26h8c0,0-0.062,0.751,0.371,1.605 C24.804,28.459,25.511,29,25.511,29z" stroke="none"/> <path data-cap="butt" data-color="color-2" fill="none" stroke-miterlimit="10" d="M44,44c0,4.971,4.029,9,9,9 s9-4.029,9-9c0-3.186-1.656-5.986-4.154-7.585"/> <path data-cap="butt" fill="none" stroke="#000000" stroke-miterlimit="10" d="M46.924,40.589l14.179-5.422 c-1.855-1.702-4.22-2.843-6.863-3.112"/> <path data-cap="butt" fill="none" stroke="#000000" stroke-miterlimit="10" d="M24,26c0,6.917,18,6,18,6L30,44"/> <path data-cap="butt" fill="none" stroke="#000000" stroke-miterlimit="10" d="M16,26l0.544,1.632 C16.816,28.449,17.581,29,18.442,29h7.069"/> <line data-cap="butt" fill="none" stroke="#000000" stroke-miterlimit="10" x1="46.924" y1="21.6" x2="42" y2="26"/> <path data-cap="butt" data-color="color-2" fill="none" stroke-miterlimit="10" d="M19.065,39 c-1.473-2.963-4.531-5-8.065-5c-4.971,0-9,4.029-9,9s4.029,9,9,9c4.633,0,8.448-3.5,8.945-8"/> <path data-cap="butt" fill="none" stroke="#000000" stroke-miterlimit="10" d="M16,26h8 c0,0,5.833-8.417,17.525-5.371l4.307,1.436c1.608-0.395,2.805-1.836,2.805-3.565c0-2.033-2.761-4.909-4.909-6.136l2.455-2.455 C46.182,9.909,60,13.207,60,22c0,2.25-2.406,6.143-4,8L44,44H13.5c-1.381,0-2.5-1.119-2.5-2.5v0c0-1.381,1.119-2.5,2.5-2.5H24"/></g></svg>