<svg xmlns="http://www.w3.org/2000/svg" width="20" height="20" fill="none" viewBox="0 0 20 20">
    <g stroke="#444" stroke-linecap="square" stroke-miterlimit="10" clip-path="url(#a)">
        <path d="M10 11.719v4.875M10 4.406v4.875M11.087 11.11l4.348 2.437M4.564 7.453l4.349 2.438M8.913 11.11l-4.349 2.437M15.435 7.453l-4.348 2.438M8.328 5.422L10 7.047l1.672-1.625M4.648 9.363l2.279-.59L6.32 6.56M6.32 14.44l.607-2.213-2.279-.59M11.672 15.578L10 13.953l-1.672 1.625M15.373 11.638l-2.3.589.627 2.214M13.7 6.56l-.627 2.214 2.3.589M10 11.719c.693 0 1.254-.546 1.254-1.219S10.693 9.281 10 9.281s-1.254.546-1.254 1.219.561 1.219 1.254 1.219z"/>
    </g>
    <circle cx="10" cy="10" r="9.5" stroke="#444"/>
    <defs>
        <clipPath id="a">
            <path fill="#fff" d="M0 0h12v13H0z" transform="translate(4 4)"/>
        </clipPath>
    </defs>
</svg>
