<svg xmlns="http://www.w3.org/2000/svg" width="20" height="20" fill="none" viewBox="0 0 20 20">
    <path fill="#444" d="M6.351 6.944l-.433.442 1.667 1.701.433-.442L6.35 6.944zM11.184 12.75L13.388 15l.428-.438-2.112-2.156c-.153.125-.337.25-.52.344z"/>
    <path fill="#444" d="M13.816 6.781c-.122-.062-.245-.031-.336.063L9.867 10.53l-.949-.969.276-.28c.367-.376.367-.97 0-1.313L7.265 6l-.428.438 1.928 1.968a.306.306 0 0 1 0 .438l-.98 1a.292.292 0 0 1-.428 0L5.43 7.875 5 8.313l1.929 1.968c.367.375.949.375 1.285 0L8.49 10l.949.969-3.46 3.531.43.438 2.203-2.25c1.623-.032 2.572-.438 3.766-1.657C13.938 9.437 14 7.156 14 7.062c0-.125-.061-.218-.184-.28z"/>
    <circle cx="10" cy="10" r="9.5" stroke="#444"/>
</svg>
