<svg xmlns="http://www.w3.org/2000/svg" width="20" height="20" fill="none" viewBox="0 0 20 20">
    <g fill="#444" clip-path="url(#a)">
        <path d="M10 15c.88 0 1.593-.672 1.593-1.5S10.88 12 10 12s-1.593.672-1.593 1.5S9.12 15 10 15zM10 9c-1.274 0-2.496.45-3.398 1.3l-.372.35.743.7.372-.35c.744-.65 1.646-1 2.655-1a3.77 3.77 0 0 1 2.655 1.05l.372.35.743-.7-.372-.35C12.496 9.45 11.274 9 10 9z"/>
        <path d="M15.628 8.2C14.142 6.8 12.124 6 10 6s-4.142.8-5.628 2.2L4 8.55l.743.7.372-.35C6.442 7.7 8.142 7 10 7c1.858 0 3.557.7 4.885 1.9l.372.35.743-.7-.372-.35z"/>
    </g>
    <circle cx="10" cy="10" r="9.5" stroke="#444"/>
    <defs>
        <clipPath id="a">
            <path fill="#fff" d="M0 0h12v9H0z" transform="translate(4 6)"/>
        </clipPath>
    </defs>
</svg>
