<svg xmlns="http://www.w3.org/2000/svg" width="25" height="30" fill="none" viewBox="0 0 25 30">
    <path fill="#FC4945" d="M13.861 13.758l-1.818 1.472-.614-.713a.56.56 0 0 0-.779-.063.545.545 0 0 0-.063.776l.96 1.12a.549.549 0 0 0 .764.07l2.235-1.809a.554.554 0 0 0 .196-.509.547.547 0 0 0-.346-.423.512.512 0 0 0-.535.079z"/>
    <path fill="#3F3F3F" d="M14.373 1.874h-3.75v1.248h3.75V1.874z"/>
    <path fill="#43D3E8" d="M7.5 22.5H6.252v1.248H7.5V22.5zM7.5 19.997H6.252v1.248H7.5v-1.248zM9.997 22.5H8.749v1.248h1.248V22.5z"/>
    <path fill="#3F3F3F" d="M24.373 10.623c-.861 0-2.168.299-3.123 1.195V1.875A1.873 1.873 0 0 0 19.375 0H5.625A1.873 1.873 0 0 0 3.75 1.875v7.5H1.875A1.873 1.873 0 0 0 0 11.25v1.248c0 .48.182.92.48 1.248C.182 14.08 0 14.52 0 15v1.248c0 .48.182.92.48 1.248-.298.334-.48.774-.48 1.254v1.248c0 .48.182.92.48 1.248C.182 21.58 0 22.02 0 22.5v1.248c0 1.037.838 1.875 1.875 1.875H3.75v2.502c0 1.037.838 1.875 1.875 1.875h13.75a1.873 1.873 0 0 0 1.875-1.875V14.566a2.865 2.865 0 0 1 2.502-2.625v17.432H25V11.25a.628.628 0 0 0-.627-.627zM5.625 1.248h13.75c.346 0 .627.281.627.627V3.75H5.004V1.875a.619.619 0 0 1 .62-.627zm-4.377 18.75V18.75c0-.346.281-.627.627-.627H3.75v2.502H1.875a.628.628 0 0 1-.627-.627zm0-3.75V15c0-.346.281-.627.627-.627H3.75v2.502H1.875a.628.628 0 0 1-.627-.627zm0-4.998c0-.346.281-.627.627-.627H3.75v2.502H1.875a.628.628 0 0 1-.627-.627V11.25zm.627 13.125a.628.628 0 0 1-.627-.627V22.5c0-.346.281-.627.627-.627H3.75v2.502H1.875zm17.5 4.377H5.625a.628.628 0 0 1-.627-.627V26.25h14.998v1.875a.623.623 0 0 1-.62.627zm.622-3.75h-15V4.998h15v20.004z"/>
    <path fill="#FC4945" d="M12.5 8.748c-3.451 0-6.252 2.8-6.252 6.252 0 3.451 2.8 6.252 6.252 6.252A6.262 6.262 0 0 0 18.75 15c0-3.451-2.8-6.252-6.251-6.252zm0 11.25a4.999 4.999 0 0 1 0-9.996A5.002 5.002 0 0 1 17.497 15a4.991 4.991 0 0 1-4.997 4.998z"/>
    <path fill="#43D3E8" d="M18.748 6.251H17.5V7.5h1.248V6.251zM18.748 8.748H17.5v1.248h1.248V8.748zM16.25 6.251H15V7.5h1.248V6.251z"/>
</svg>
