<svg xmlns="http://www.w3.org/2000/svg" width="29" height="27" fill="none" viewBox="0 0 29 27">
    <path fill="#3F3F3F" d="M26.621 2.282H23.45v-.57A1.71 1.71 0 0 0 21.75 0c-.935 0-1.7.77-1.7 1.712v.57H16.2v-.57A1.71 1.71 0 0 0 14.5 0c-.935 0-1.7.77-1.7 1.712v.57H8.95v-.57A1.71 1.71 0 0 0 7.25 0c-.935 0-1.7.77-1.7 1.712v.57H2.38A2.387 2.387 0 0 0 0 4.678v19.398c0 1.575 1.269 2.853 2.832 2.853h9.125a.57.57 0 0 0 0-1.141H2.832c-.935 0-1.7-.77-1.7-1.712V7.987h26.735v16.089a1.71 1.71 0 0 1-1.699 1.712h-9.113a.57.57 0 0 0 0 1.14h9.113c1.563 0 2.832-1.277 2.832-2.852V4.678a2.387 2.387 0 0 0-2.379-2.396zm-5.437-.57a.57.57 0 0 1 .566-.571.57.57 0 0 1 .566.57v2.283a.57.57 0 0 1-.566.57.57.57 0 0 1-.566-.57V1.712zm-7.25 0a.57.57 0 0 1 .566-.571.57.57 0 0 1 .566.57v2.283a.57.57 0 0 1-.566.57.57.57 0 0 1-.566-.57V1.712zm-7.25 0a.57.57 0 0 1 .566-.571.57.57 0 0 1 .566.57v2.283a.57.57 0 0 1-.566.57.57.57 0 0 1-.566-.57V1.712zM1.133 6.846V4.678c0-.69.56-1.255 1.246-1.255H5.55v.57A1.71 1.71 0 0 0 7.25 5.706c.935 0 1.7-.77 1.7-1.711v-.57h3.85v.57a1.71 1.71 0 0 0 1.7 1.711c.935 0 1.7-.77 1.7-1.711v-.57h3.85v.57a1.71 1.71 0 0 0 1.7 1.711c.935 0 1.7-.77 1.7-1.711v-.57h3.171c.685 0 1.246.564 1.246 1.254v2.168H1.133z"/>
    <path fill="#3F3F3F" d="M14.499 25.788a.593.593 0 0 0-.402.165.557.557 0 0 0-.165.405c0 .154.063.297.165.405a.55.55 0 0 0 .402.166.583.583 0 0 0 .402-.166.557.557 0 0 0 .164-.405.592.592 0 0 0-.164-.405.559.559 0 0 0-.402-.165z"/>
    <path fill="#FC4945" d="M8.837 10.72a.57.57 0 0 0-.566-.571H3.739a.57.57 0 0 0-.566.57v4.565c0 .313.255.57.566.57h4.532a.57.57 0 0 0 .566-.57V10.72zm-1.133 3.993H4.306V11.29h3.398v3.423z"/>
    <path fill="#43D3E8" d="M12.235 15.854h4.531a.57.57 0 0 0 .567-.57V10.72a.57.57 0 0 0-.567-.571h-4.531a.57.57 0 0 0-.566.57v4.565c0 .313.254.57.566.57zm.566-4.564H16.2v3.423H12.8V11.29zM20.73 15.854h4.532a.57.57 0 0 0 .566-.57V10.72a.57.57 0 0 0-.566-.571H20.73a.57.57 0 0 0-.567.57v4.565c0 .313.255.57.567.57zm.567-4.564h3.398v3.423h-3.398V11.29zM8.27 17.908H3.74a.57.57 0 0 0-.567.571v4.564c0 .314.255.57.566.57h4.532a.57.57 0 0 0 .566-.57V18.48c0-.32-.255-.57-.566-.57zm-.566 4.565H4.306v-3.424h3.398v3.424zM11.669 23.043c0 .314.254.57.566.57h4.531a.57.57 0 0 0 .567-.57V18.48a.57.57 0 0 0-.567-.57h-4.531a.57.57 0 0 0-.566.57v4.564zM12.8 19.05H16.2v3.424H12.8v-3.424zM20.164 23.043c0 .314.255.57.567.57h4.53a.57.57 0 0 0 .567-.57V18.48a.57.57 0 0 0-.566-.57H20.73a.57.57 0 0 0-.567.57v4.564zm1.133-3.994h3.398v3.424h-3.398v-3.424z"/>
</svg>
