<svg xmlns="http://www.w3.org/2000/svg" width="28" height="24" fill="none" viewBox="0 0 28 24">
    <path fill="#3F3F3F" d="M26.439 0h-1.736a.415.415 0 1 0 0 .83h1.736c.382 0 .688.312.688.688v2.895H.825V1.518c0-.382.31-.688.688-.688H22.77a.415.415 0 1 0 0-.83H1.518C.683 0 0 .683 0 1.518v20.964C0 23.317.683 24 1.518 24h4.16a.415.415 0 1 0 0-.83h-4.16a.689.689 0 0 1-.688-.688V5.238h26.302v17.238a.689.689 0 0 1-.688.688H7.606a.415.415 0 1 0 0 .83h18.838c.836 0 1.518-.682 1.518-1.518V1.518A1.53 1.53 0 0 0 26.44 0z"/>
    <path fill="#3F3F3F" d="M1.706 2.622c0 .683.557 1.24 1.24 1.24.682 0 1.24-.557 1.24-1.24a1.239 1.239 0 1 0-2.479 0zm1.655 0a.415.415 0 1 1-.83 0 .415.415 0 0 1 .83 0zM4.906 2.622c0 .683.557 1.24 1.24 1.24.682 0 1.24-.557 1.24-1.24 0-.682-.558-1.24-1.24-1.24a1.235 1.235 0 0 0-1.24 1.24zm1.655 0a.415.415 0 1 1-.83 0 .415.415 0 0 1 .83 0zM8.102 2.622c0 .683.557 1.24 1.24 1.24.682 0 1.24-.557 1.24-1.24a1.239 1.239 0 1 0-2.479 0zm1.655 0a.415.415 0 1 1-.83 0 .415.415 0 0 1 .83 0z"/>
    <path fill="#43D3E8" d="M7.877 9.379a.415.415 0 1 0 0-.83H5.983a.415.415 0 0 0-.415.415v10.41c0 .23.185.415.415.415h16.102c.23 0 .415-.185.415-.415V10.99a2.068 2.068 0 0 0-.415-4.096c-.999 0-1.835.71-2.026 1.655H9.816a.415.415 0 1 0 0 .83h10.243a2.07 2.07 0 0 0 1.611 1.611v.12l-7.639 4.315-7.639-4.315V9.373h1.485v.006zm12.963-.415c0-.683.557-1.24 1.24-1.24.682 0 1.24.557 1.24 1.24 0 .682-.558 1.24-1.24 1.24-.683 0-1.24-.558-1.24-1.24zm.83 9.596l-5.023-3.66 5.023-2.84v6.5zm-7.639-2.244a.375.375 0 0 0 .202-.055l1.617-.912 4.958 3.61H7.255l4.958-3.61 1.616.912c.06.038.131.055.202.055zm-2.61-1.415l-5.023 3.66v-6.5l5.023 2.84z"/>
    <circle cx="21.868" cy="8.962" r="1.959" fill="#fff" stroke="#FC4945" stroke-width="1.1"/>
</svg>
