<svg xmlns="http://www.w3.org/2000/svg" width="32" height="30" fill="none" viewBox="0 0 32 30">
    <path fill="#FC4945" d="M16.989 7.823c-1.8 0-3.263-1.46-3.263-3.258V3.258C13.72 1.46 15.19 0 16.99 0c1.8 0 3.262 1.46 3.262 3.258v1.307a3.262 3.262 0 0 1-3.262 3.258zm0-6.516c-1.079 0-1.96.88-1.96 1.958v1.307c0 1.077.881 1.957 1.96 1.957s1.96-.88 1.96-1.957V3.258a1.962 1.962 0 0 0-1.96-1.95z"/>
    <path fill="#FC4945" d="M22.863 13.695a.65.65 0 0 1-.651-.65v-.44c0-.345-.09-.682-.262-.982a1.892 1.892 0 0 0-.721-.714l-2.599-1.48a1.892 1.892 0 0 1-.721-.714 1.973 1.973 0 0 1-.268-.981v-.549c0-.357.293-.65.65-.65.358 0 .652.293.652.65v.549a.656.656 0 0 0 .326.56l2.598 1.48c.498.287.913.695 1.207 1.192.287.498.44 1.065.44 1.639v.44a.645.645 0 0 1-.65.65zM11.109 15.653a.654.654 0 0 1-.651-.65v-2.398c0-.574.153-1.142.44-1.639a3.185 3.185 0 0 1 1.207-1.192l2.598-1.48a.662.662 0 0 0 .243-.235.656.656 0 0 0 .09-.325v-.549c0-.357.293-.65.65-.65.358 0 .652.293.652.65v.549a1.966 1.966 0 0 1-.983 1.702l-2.605 1.466a1.973 1.973 0 0 0-.99 1.696v2.398a.655.655 0 0 1-.651.657z"/>
    <path fill="#3F3F3F" d="M13.719 21.526a.654.654 0 0 1-.651-.65c0-1.078.88-1.958 1.96-1.958h5.88a1.31 1.31 0 0 0 1.308-1.307 1.31 1.31 0 0 0-1.308-1.307h-5.88a.718.718 0 0 1-.205-.032l-1.858-.619h-3.16c-1.073 0-2.094.408-2.803 1.116l-.651.65a.654.654 0 1 1-.926-.924l.651-.65c.952-.95 2.312-1.499 3.729-1.499h3.263c.07 0 .14.013.204.032l1.858.619H20.9a2.613 2.613 0 0 1 2.611 2.608 2.613 2.613 0 0 1-2.61 2.607h-5.88a.654.654 0 0 0-.652.65c0 .37-.287.664-.651.664z"/>
    <path fill="#3F3F3F" d="M10.265 25.243l-.926-.925 1.31-1.307a.653.653 0 0 1 .459-.191h8.913l6.92-5.656 2.893-4.623c-.154-.089-.313-.153-.44-.153-.582 0-1.035 0-2.152 1.116l-1.31 1.307a.479.479 0 0 1-.127.096l-3.262 1.957-.67-1.115 3.198-1.913 1.251-1.25c1.386-1.384 2.177-1.492 3.071-1.492.9 0 1.68.759 1.769.842a.646.646 0 0 1 .089.81l-3.263 5.215a.662.662 0 0 1-.14.16l-7.182 5.872a.647.647 0 0 1-.416.147h-8.874l-1.11 1.103z"/>
    <path fill="#43D3E8" d="M7.847 30a.654.654 0 0 1-.46-1.116l2.803-2.799-6.921-6.899-2.152 2.149a.654.654 0 1 1-.926-.925l2.612-2.608a.656.656 0 0 1 .926 0l7.833 7.824a.654.654 0 0 1 0 .924L8.306 29.81a.649.649 0 0 1-.46.191z"/>
</svg>
