<svg xmlns="http://www.w3.org/2000/svg" width="32" height="24" fill="none" viewBox="0 0 32 24">
    <path fill="#FC4945" d="M3.255 18.343l.376.764.831.12c.034.006.051.035.051.064 0 .011-.005.023-.017.034l-.603.604.142.844c.006.029-.017.063-.045.069-.012 0-.023 0-.035-.006l-.75-.402-.746.396c-.029.018-.063.006-.08-.022-.006-.012-.006-.023-.006-.035l.143-.844-.604-.598a.056.056 0 0 1 0-.08c.012-.012.023-.018.035-.018l.836-.12.376-.764c.011-.029.045-.04.074-.029.005 0 .017.012.022.023zM6.414 18.343l.375.764.831.12c.034.006.051.035.051.064 0 .011-.005.023-.017.034l-.603.604.142.844c.006.029-.017.063-.045.069-.012 0-.023 0-.034-.006l-.752-.402-.745.396c-.029.018-.063.006-.08-.022-.005-.012-.005-.023-.005-.035l.142-.844-.603-.598a.056.056 0 0 1 0-.08c.01-.012.022-.018.034-.018l.836-.12.376-.764c.011-.029.045-.04.074-.029.006 0 .017.012.023.023zM9.572 18.343l.375.764.831.12c.034.006.052.035.052.064 0 .011-.006.023-.018.034l-.603.604.143.844c.005.029-.018.063-.046.069-.011 0-.023 0-.034-.006l-.751-.402-.746.396c-.028.018-.063.006-.08-.022-.005-.012-.005-.023-.005-.035l.142-.844-.603-.598a.056.056 0 0 1 0-.08c.011-.012.023-.018.034-.018l.836-.12.376-.764c.011-.029.046-.04.074-.029.006 0 .017.012.023.023zM12.728 18.343l.376.764.83.12c.035.006.052.035.052.064 0 .011-.006.023-.017.034l-.603.604.142.844c.005.029-.017.063-.046.069-.011 0-.022 0-.034-.006l-.751-.402-.746.396c-.028.018-.062.006-.08-.022-.005-.012-.005-.023-.005-.035l.142-.844-.603-.598a.056.056 0 0 1 0-.08c.011-.012.023-.018.034-.018l.837-.12.375-.764c.012-.029.046-.04.074-.029.006 0 .017.012.023.023zM15.886 18.343l.376.764.83.12c.035.006.052.035.052.064 0 .011-.006.023-.017.034l-.603.604.142.844c.006.029-.017.063-.046.069-.011 0-.022 0-.034-.006l-.751-.402-.746.396c-.028.018-.062.006-.08-.022-.005-.012-.005-.023-.005-.035l.142-.844-.603-.598a.056.056 0 0 1 0-.08c.012-.012.023-.018.034-.018l.837-.12.376-.764c.01-.029.045-.04.074-.029.005 0 .016.012.022.023z"/>
    <path fill="#3F3F3F" d="M9.146 10.967a3.27 3.27 0 0 0 3.267-3.272 3.27 3.27 0 0 0-3.267-3.273 3.27 3.27 0 0 0-3.267 3.273 3.27 3.27 0 0 0 3.267 3.272zm0-5.454c1.204 0 2.178.975 2.178 2.182a2.177 2.177 0 1 1-4.356 0c0-1.207.973-2.182 2.178-2.182z"/>
    <path fill="#3F3F3F" d="M12.625 10.995a.541.541 0 0 0-.667.027 4.34 4.34 0 0 1-5.622 0 .541.541 0 0 0-.666-.027 6.01 6.01 0 0 0-2.512 4.882c0 .3.245.545.545.545h10.889c.3 0 .544-.245.544-.545a6.01 6.01 0 0 0-2.51-4.882zm-8.35 4.336a4.905 4.905 0 0 1 1.708-3.197 5.43 5.43 0 0 0 6.329 0 4.95 4.95 0 0 1 1.708 3.197H4.274z"/>
    <path fill="#43D3E8" d="M20.73 14.647l-.32 1.861a.543.543 0 0 0 .79.573l1.667-.88 1.668.88a.544.544 0 0 0 .735-.232c.054-.11.074-.225.054-.348l-.32-1.861 1.348-1.316a.548.548 0 0 0 .013-.77.495.495 0 0 0-.313-.157l-1.865-.273-.837-1.69a.566.566 0 0 0-.98 0l-.83 1.69-1.865.273a.547.547 0 0 0-.463.62c.02.116.075.225.157.314l1.361 1.316zm1.252-1.48a.535.535 0 0 0 .409-.3l.47-.954.469.954a.546.546 0 0 0 .408.3l1.055.157-.762.743a.552.552 0 0 0-.157.484l.177 1.05-.946-.497a.547.547 0 0 0-.503 0l-.946.497.183-1.05a.558.558 0 0 0-.156-.484l-.762-.743 1.061-.157z"/>
    <path fill="#3F3F3F" d="M29.946 0H1.633C.728 0 0 .73 0 1.636v20.728A1.63 1.63 0 0 0 1.633 24h28.313a1.63 1.63 0 0 0 1.633-1.636V1.636A1.63 1.63 0 0 0 29.946 0zm-7.079 8.182a5.448 5.448 0 0 1 5.445 5.454 5.448 5.448 0 0 1-5.445 5.455 5.448 5.448 0 0 1-5.444-5.455 5.474 5.474 0 0 1 5.445-5.454zm4.356-7.091v7.67a6.608 6.608 0 0 0-3.811-1.643V5.455c0-.3-.245-.546-.544-.546-.3 0-.545.246-.545.546v1.663a6.608 6.608 0 0 0-3.811 1.643v-7.67h8.711zm3.267 21.273c0 .3-.245.545-.544.545H1.633a.547.547 0 0 1-.544-.545V1.636c0-.3.245-.545.544-.545h15.79v8.932a6.56 6.56 0 0 0 1.83 9.075 6.534 6.534 0 0 0 9.06-1.834 6.56 6.56 0 0 0 0-7.234V1.09h1.633c.299 0 .544.246.544.546v20.728z"/>
</svg>
