<svg xmlns="http://www.w3.org/2000/svg" xmlns:xlink="http://www.w3.org/1999/xlink" width="200" height="59" viewBox="0 0 200 59">
    <defs>
        <linearGradient id="b" x1="50%" x2="50%" y1="0%" y2="38.913%">
            <stop offset="0%" stop-color="#FBDA09"/>
            <stop offset="100%" stop-color="#FFBC00"/>
        </linearGradient>
        <path id="a" d="M14.9 3.526c1.16-2.034 3.039-2.035 4.199 0l16.41 28.791c1.16 2.034.194 3.683-2.137 3.683H.628c-2.34 0-3.297-1.648-2.137-3.683L14.9 3.526z"/>
        <linearGradient id="c" x1="37.5%" x2="54.827%" y1="58.476%" y2="39.083%">
            <stop offset="0%" stop-color="#01E2FF"/>
            <stop offset="100%" stop-color="#01C4FF"/>
        </linearGradient>
        <linearGradient id="e" x1="20.281%" x2="83.82%" y1="32.794%" y2="69.349%">
            <stop offset="0%" stop-color="#28D781"/>
            <stop offset="100%" stop-color="#02F076"/>
        </linearGradient>
        <linearGradient id="f" x1="74.488%" x2="10.108%" y1="35.054%" y2="68.899%">
            <stop offset="0%" stop-color="#F2414E"/>
            <stop offset="100%" stop-color="#E02554"/>
        </linearGradient>
    </defs>
    <g fill="none" fill-rule="evenodd">
        <rect width="198.655" height="57.655" x=".672" y=".672" fill="#000" stroke="#FFF" stroke-opacity=".2" stroke-width="1.345" rx="6.725"/>
        <g fill="#FFF">
            <path d="M106 20a5 5 0 1 1 0-10 5 5 0 0 1 0 10zm-.5-2a3.5 3.5 0 1 0 0-7 3.5 3.5 0 0 0 0 7zM72 14h4v1h-4v3h4v1h-5v-9h5v1h-4v3zM81 11v8h-1v-8h-2v-1h6v1h-3zM94 11v8h-1v-8h-2v-1h6v1h-3zM89 10h1v9h-1zM113 10h.48l4.52 7.37V10h1v9h-1.48L113 11.63V19h-1v-9h1zM66 14h4l-.04 1H66z"/>
            <path d="M69.054 11.293l-.867.769C67.576 11.378 66.664 11 65.6 11 63.612 11 62 12.567 62 14.5s1.612 3.5 3.601 3.5c1.989 0 3.4-1.117 3.398-3.5a4.467 4.467 0 0 0-.016-.5h1.207c.008.118.012.239.012.361.445 3.255-1.78 5.13-4.45 5.105C63.129 19.462 61 17.347 61 14.733 61 12.12 63.128 10 65.753 10c1.364 0 2.513.472 3.301 1.293z"/>
        </g>
        <g fill="#FFF">
            <path d="M146 27h7.625s4.39.745 4.39 5.77c0 5.025-4.39 5.77-4.39 5.77H146V27zm1.48 2.791v6.193h5.176s2.355 0 2.355-3.096c0-3.097-2.355-3.097-2.355-3.097h-5.177z"/>
            <path d="M145 27h3v19h-3zM159 27h3v19h-3zM172 43.557c-.708.657-1.889 1.305-3.83 1.43-4.165.268-4.167-3.648-4.167-3.912 0-.264-.206-3.457 3.107-3.964 1.975-.303 3.452.073 4.323.427-.186-.717-.755-2.017-2.447-2.017-2.334 0-2.85 1.291-2.85 1.291L164 35.521S165.195 33 168.782 33c4.198 0 5.117 2.79 5.21 4H175v8h-3v-1.443zm-.064-3.27s-4.766-1.195-4.932 1.294c-.165 2.49 4.573 1.295 4.996-.47 0-.561-.064-.825-.064-.825zM179.546 44.071L175 33h2.705l3.224 7.852L184.301 33H187l-7.301 17H177l2.546-5.929zM138.732 37.79l-8.508 3.506s.55 1.939 3.107 1.952c2.003.01 3.134-1.77 3.134-1.77l2.158 1.457s-1.741 2.809-5.309 2.809c-4.383 0-6.314-3.822-6.314-6.304 0-2.391 1.533-6.44 6.042-6.44 4.51 0 5.69 4.79 5.69 4.79zM136 36.471s-1.114-1.755-2.822-1.431c-3.614.685-3.16 3.96-3.16 3.96L136 36.471zM123 27h3v19h-3zM118.568 33.407l2.63.023v11.82c0 3.02-1.803 6.208-6.048 6.208-4.246 0-5.618-3.75-5.618-3.75l2.417-1.014s.736 2.312 3.326 2.312c2.95 0 3.294-2.675 3.294-3.59v-1.284s-1.02 1.593-3.555 1.593c-2.748 0-6.014-2.348-6.014-6.35 0-4 3.075-6.29 6.045-6.373 2.38-.067 3.523 1.574 3.523 1.574v-1.169zM115.5 43c1.933 0 3.5-1.79 3.5-4s-1.567-4-3.5-4-3.5 1.79-3.5 4 1.567 4 3.5 4zM101.403 45.739c-3.536 0-6.403-2.852-6.403-6.37C95 35.852 97.867 33 101.403 33c3.536 0 6.403 2.852 6.403 6.37 0 3.517-2.867 6.369-6.403 6.369zM101.5 43c1.933 0 3.5-1.79 3.5-4s-1.567-4-3.5-4-3.5 1.79-3.5 4 1.567 4 3.5 4zM87.403 45.739c-3.536 0-6.403-2.852-6.403-6.37C81 35.852 83.867 33 87.403 33c3.536 0 6.403 2.852 6.403 6.37 0 3.517-2.867 6.369-6.403 6.369zM87.5 43c1.933 0 3.5-1.79 3.5-4s-1.567-4-3.5-4-3.5 1.79-3.5 4 1.567 4 3.5 4z"/>
            <g>
                <path d="M71 35h8l-.08 3H71z"/>
                <path d="M77.95 28.847L76.061 30.8c-1.21-1.163-2.907-1.8-4.86-1.8C67.225 29 64 32.134 64 36s3.224 7 7.202 7c3.977 0 6.801-2.235 6.796-7a8.934 8.934 0 0 0-.032-1h2.238v.091c.93 6.785-3.716 10.691-9.285 10.641C65.44 45.725 61 41.315 61 35.866S65.44 26 70.919 26c2.93 0 5.384 1.043 7.031 2.847z"/>
            </g>
        </g>
        <g transform="translate(15 10)">
            <mask id="d" fill="#fff">
                <use xlink:href="#a"/>
            </mask>
            <use fill="url(#b)" transform="rotate(90 17 19)" xlink:href="#a"/>
            <path fill="url(#c)" d="M.242 0L19 18.632 0 38z" mask="url(#d)"/>
            <path fill="url(#e)" d="M-4-4l22.354 22L25 11.725z" mask="url(#d)"/>
            <path fill="url(#f)" d="M18.623 19L29 29.5-2 40z" mask="url(#d)"/>
        </g>
    </g>
</svg>
