<svg xmlns="http://www.w3.org/2000/svg" width="23" height="23" fill="none" viewBox="0 0 23 23">
    <g fill="#000" clip-path="url(#a)">
        <path d="M5.622 4.5c-.306 0-.51-.2-.51-.5V.5c0-.3.204-.5.51-.5.307 0 .511.2.511.5V4c0 .3-.204.5-.51.5zM16.867 4.5c-.307 0-.512-.2-.512-.5V.5c0-.3.205-.5.512-.5.306 0 .51.2.51.5V4c0 .3-.204.5-.51.5z"/>
        <path d="M12.982 20H1.533c-.306 0-.51-.2-.51-.5V8c0-.3.204-.5.51-.5h19.423c.306 0 .51.2.51.5v5.9c.358.25.716.5 1.023.85V3c0-.55-.46-1-1.022-1H18.4v2c0 .85-.664 1.5-1.533 1.5-.87 0-1.534-.65-1.534-1.5V2H7.156v2c0 .85-.665 1.5-1.534 1.5S4.09 4.85 4.09 4V2H1.022C.46 2 0 2.45 0 3v17c0 .55.46 1 1.022 1h12.37c-.154-.3-.308-.65-.41-1z"/>
        <path d="M18.4 23c2.556 0 4.6-2 4.6-4.5S20.956 14 18.4 14c-2.555 0-4.6 2-4.6 4.5s2.044 4.5 4.6 4.5zm-.511-7c0-.3.204-.5.511-.5.307 0 .511.2.511.5v2h2.045c.306 0 .51.2.51.5s-.204.5-.51.5H18.4c-.307 0-.511-.2-.511-.5V16z"/>
    </g>
    <defs>
        <clipPath id="a">
            <path fill="#fff" d="M0 0h23v23H0z"/>
        </clipPath>
    </defs>
</svg>
