<svg xmlns="http://www.w3.org/2000/svg" width="22" height="22" fill="none" viewBox="0 0 22 22">
    <g clip-path="url(#a)">
        <path fill="#E6E6E6" d="M0 21.044c0 .526.43.956.957.956h20.087a.96.96 0 0 0 .956-.956V6.696H0v14.348z"/>
        <path fill="#E86C60" d="M21.044 1.913H.957A.96.96 0 0 0 0 2.87v3.826h22V2.87a.96.96 0 0 0-.956-.957z"/>
        <path fill="#444" d="M4.305 4.304V.478c0-.287.191-.478.478-.478h.956c.287 0 .479.191.479.478v3.826c0 .287-.192.479-.479.479h-.956c-.287 0-.478-.192-.478-.479zM15.782 4.304V.478c0-.287.191-.478.479-.478h.956c.287 0 .478.191.478.478v3.826c0 .287-.191.479-.478.479h-.956c-.287 0-.479-.192-.479-.479z"/>
        <path fill="#B3B3B3" d="M18.652 15.783h-1.435v-2.87h1.435c.287 0 .478-.191.478-.478s-.191-.479-.478-.479h-1.435v-2.39c0-.288-.191-.48-.478-.48s-.479.192-.479.48v2.39h-2.87v-2.39c0-.288-.19-.48-.477-.48s-.479.192-.479.48v2.39h-2.87v-2.39c0-.288-.19-.48-.477-.48s-.479.192-.479.48v2.39h-2.87v-2.39c0-.288-.19-.48-.478-.48-.287 0-.478.192-.478.48v2.39H3.347c-.287 0-.478.192-.478.479s.191.478.478.478h1.435v2.87H3.347c-.287 0-.478.19-.478.478 0 .287.191.478.478.478h1.435v2.391c0 .287.191.479.478.479s.479-.192.479-.479v-2.39h2.87v2.39c0 .287.19.479.478.479.286 0 .478-.192.478-.479v-2.39h2.87v2.39c0 .287.19.479.478.479.287 0 .478-.192.478-.479v-2.39h2.87v2.39c0 .287.19.479.478.479.287 0 .478-.192.478-.479v-2.39h1.435c.287 0 .478-.192.478-.48 0-.286-.191-.477-.478-.477zm-12.913 0v-2.87h2.87v2.87h-2.87zm3.826 0v-2.87h2.87v2.87h-2.87zm3.826 0v-2.87h2.87v2.87h-2.87z"/>
    </g>
    <defs>
        <clipPath id="a">
            <path fill="#fff" d="M0 0h22v22H0z"/>
        </clipPath>
    </defs>
</svg>
