<svg xmlns="http://www.w3.org/2000/svg" width="16" height="16" fill="none" viewBox="0 0 16 16">
    <g fill="#000" clip-path="url(#a)">
        <path d="M3.911 3.13c-.213 0-.355-.139-.355-.347V.348c0-.209.142-.348.355-.348.214 0 .356.14.356.348v2.435c0 .208-.142.347-.356.347zM11.733 3.13c-.213 0-.355-.139-.355-.347V.348c0-.209.142-.348.355-.348.214 0 .356.14.356.348v2.435c0 .208-.142.347-.356.347z"/>
        <path d="M9.031 13.913H1.067c-.214 0-.356-.139-.356-.348v-8c0-.208.142-.348.356-.348h13.51c.214 0 .356.14.356.348V9.67c.25.174.498.347.711.59V2.088a.706.706 0 0 0-.71-.696H12.8v1.392c0 .591-.462 1.043-1.067 1.043-.604 0-1.066-.452-1.066-1.043V1.39h-5.69v1.392c0 .591-.461 1.043-1.066 1.043-.604 0-1.067-.452-1.067-1.043V1.39H.711A.706.706 0 0 0 0 2.087v11.826c0 .383.32.696.711.696h8.605a4.089 4.089 0 0 1-.285-.696z"/>
        <path d="M12.8 16c1.778 0 3.2-1.391 3.2-3.13 0-1.74-1.422-3.13-3.2-3.13-1.778 0-3.2 1.39-3.2 3.13 0 1.739 1.422 3.13 3.2 3.13zm-.356-4.87c0-.208.143-.347.356-.347s.356.139.356.347v1.392h1.422c.213 0 .355.139.355.348 0 .208-.142.347-.355.347H12.8c-.213 0-.356-.139-.356-.347v-1.74z"/>
    </g>
    <defs>
        <clipPath id="a">
            <path fill="#fff" d="M0 0h16v16H0z"/>
        </clipPath>
    </defs>
</svg>
