<svg width="16" height="12" viewBox="0 0 16 12" fill="none" xmlns="http://www.w3.org/2000/svg">
<path fill-rule="evenodd" clip-rule="evenodd" d="M9.28865 5.30524C9.03266 5.04925 8.81324 4.8664 8.52069 4.75669C8.2647 4.64699 7.97215 4.57385 7.60645 4.57385C7.3139 4.57385 7.02134 4.64699 6.69221 4.75669C6.43623 4.8664 6.21681 5.04925 5.96083 5.30524C5.70484 5.48808 5.52199 5.7075 5.48542 6.03663C5.37571 6.32918 5.22944 6.62174 5.22944 6.91429C5.22944 7.20685 5.33914 7.49941 5.48542 7.82853C5.55856 8.12109 5.74141 8.37707 5.96083 8.59649C6.21681 8.77934 6.43623 8.96218 6.69221 9.07189C6.98477 9.1816 7.27733 9.25474 7.60645 9.25474C7.97215 9.25474 8.2647 9.1816 8.52069 9.07189C8.81324 8.96218 9.06923 8.77934 9.28865 8.59649C9.4715 8.3405 9.72748 8.12109 9.76405 7.82853C9.87376 7.53597 9.9469 7.24342 9.9469 6.91429C9.9469 6.62174 9.87376 6.32918 9.76405 6.03663C9.72748 5.7075 9.4715 5.48808 9.28865 5.30524ZM2.1576 2.96479C2.52329 2.96479 2.81585 3.22078 2.81585 3.5499C2.81585 3.9156 2.52329 4.20815 2.1576 4.20815C1.7919 4.20815 1.49935 3.9156 1.49935 3.5499C1.49935 3.22078 1.7919 2.96479 2.1576 2.96479ZM7.60645 3.44019C8.08185 3.44019 8.55726 3.5499 8.92295 3.73275C9.39836 3.9156 9.76405 4.13501 10.0566 4.46414C10.4223 4.82983 10.6417 5.19553 10.8246 5.59779C11.0074 6.03663 11.0806 6.43889 11.0806 6.91429C11.0806 7.3897 11.0074 7.82853 10.8246 8.2308C10.6417 8.66963 10.4223 8.99875 10.0566 9.36445C9.76405 9.65701 9.39836 9.91299 8.92295 10.0958C8.55726 10.2787 8.08185 10.3884 7.60645 10.3884C7.20419 10.3884 6.69222 10.2787 6.28995 10.0958C5.88769 9.91299 5.52199 9.65701 5.22944 9.36445C4.86374 8.99875 4.64432 8.63306 4.46148 8.2308C4.27863 7.82853 4.20549 7.3897 4.20549 6.91429C4.20549 6.43889 4.27863 6.03663 4.46148 5.59779C4.64432 5.15896 4.90031 4.82983 5.22944 4.46414C5.52199 4.17158 5.88769 3.9156 6.28995 3.73275C6.72879 3.58647 7.20419 3.44019 7.60645 3.44019ZM0.914237 2.19683C0.402264 2.19683 0 2.5991 0 3.0745V10.681C0 11.2295 0.475403 11.6683 0.950806 11.6683H14.2621C14.8106 11.6683 15.2129 11.2295 15.2129 10.7175V3.0745C15.2129 2.5991 14.8472 2.16026 14.3718 2.16026H10.8246L10.6052 0.916899C10.532 0.551204 10.2395 0.331787 9.87376 0.331787H7.56988H5.33914C4.97345 0.331787 4.68089 0.587774 4.60775 0.916899L4.35177 2.16026H0.914237V2.19683Z" fill="#70396D"/>
</svg>
