<svg xmlns="http://www.w3.org/2000/svg" width="25" height="25" fill="none" viewBox="0 0 25 25">
    <path fill="#70396D" d="M9.863 22.07a.492.492 0 0 0-.488.489.492.492 0 0 0 .488.488.492.492 0 0 0 .489-.488.492.492 0 0 0-.489-.489z"/>
    <path fill="#70396D" d="M24.479 6.656a1.782 1.782 0 0 0-2.517 0l-2.235 2.236V1.66c0-.915-.745-1.66-1.66-1.66H1.66C.745 0 0 .745 0 1.66v21.68C0 24.255.745 25 1.66 25h16.406c.916 0 1.66-.745 1.66-1.66v-9.415l4.753-4.752a1.782 1.782 0 0 0 0-2.517zM18.75 1.66v8.208l-.977.977V2.44a.488.488 0 0 0-.488-.488h-3.263V.977h4.044c.377 0 .684.306.684.683zm-2.666 13.391l.66-1.48.82.82-1.48.66zM13.045.977v1.99a.55.55 0 0 1-.549.549H7.231a.55.55 0 0 1-.55-.55V.976h6.364zm5.021 23.046H1.66a.684.684 0 0 1-.683-.683V1.66c0-.377.306-.683.683-.683h4.045v.976H2.44a.488.488 0 0 0-.488.488V22.56c0 .27.219.488.488.488h5.47a.488.488 0 1 0 0-.977H2.93V2.93h2.775v.036c0 .842.684 1.526 1.526 1.526h5.265c.841 0 1.526-.684 1.526-1.526V2.93h2.775v8.891l-.556.556a.493.493 0 0 0-.101.147l-1.466 3.292a.489.489 0 0 0 .645.645l1.478-.658v6.267h-4.98a.488.488 0 1 0 0 .977h5.468c.27 0 .488-.219.488-.488v-7.191l.838-.373a.486.486 0 0 0 .139-.094v8.439a.684.684 0 0 1-.684.683zm3.902-13.72l-3.556 3.555-1.135-1.135 4.402-4.403 1.136 1.136-.847.846zm1.82-1.82l-.282.282-1.136-1.136.282-.282a.804.804 0 0 1 1.136 1.136z"/>
    <path fill="#70396D" d="M7.91 5.86H4.785a.488.488 0 0 0-.488.488v3.125c0 .27.218.488.488.488H7.91c.27 0 .488-.219.488-.488V6.348a.488.488 0 0 0-.488-.489zm-.488 3.124H5.273V6.836h2.149v2.148zM7.91 11.23H4.785a.488.488 0 0 0-.488.489v3.125c0 .27.218.488.488.488H7.91c.27 0 .488-.219.488-.488v-3.125a.488.488 0 0 0-.488-.489zm-.488 3.125H5.273v-2.148h2.149v2.148zM7.91 16.602H4.785a.488.488 0 0 0-.488.488v3.125c0 .27.218.488.488.488H7.91c.27 0 .488-.218.488-.488V17.09a.488.488 0 0 0-.488-.488zm-.488 3.125H5.273v-2.149h2.149v2.149zM11.405 9.358a.487.487 0 0 0 .69 0L14.3 7.153a.489.489 0 0 0-.69-.69l-1.86 1.859-.74-.741a.488.488 0 1 0-.691.69l1.086 1.087zM11.405 14.729a.488.488 0 0 0 .69 0l2.205-2.204a.489.489 0 0 0-.69-.691l-1.86 1.86-.74-.742a.488.488 0 0 0-.691.69l1.086 1.087zM12.31 19.343l.756.757a.486.486 0 0 0 .69 0c.191-.19.191-.5 0-.69L13 18.651l.757-.757a.488.488 0 1 0-.69-.69l-.758.757-.757-.757a.489.489 0 0 0-.69.69l.757.757-.757.757a.488.488 0 0 0 .69.69l.757-.756z"/>
</svg>
