<svg width="334" height="298" viewBox="0 0 334 298" fill="none" xmlns="http://www.w3.org/2000/svg">
<rect x="37.0498" y="169.282" width="169.096" height="121.971" transform="rotate(-45 37.0498 169.282)" fill="#72B6B1"/>
<path d="M311.149 51.7497H298.13V28.446C298.13 12.8235 285.437 0.0650939 269.749 0.0650939L170.872 0C165.273 0 159.936 2.21319 155.965 6.18392L8.33202 153.817C2.92923 159.155 0 166.315 0 173.866C0 181.417 2.92923 188.577 8.33202 193.915L104.15 289.733C109.683 295.266 116.974 298 124.199 298C131.49 298 138.715 295.266 144.248 289.733L237.202 196.779C239.741 194.24 239.741 190.139 237.202 187.601C234.664 185.062 230.563 185.062 228.024 187.601L135.005 280.555C129.016 286.543 119.317 286.543 113.329 280.555L17.5103 184.737C14.581 181.807 13.0188 177.967 13.0188 173.866C13.0188 169.765 14.6461 165.924 17.5103 162.995L165.143 15.3622C166.64 13.865 168.658 13.0188 170.872 13.0188L269.749 13.0839C278.211 13.0839 285.111 19.9838 285.111 28.446V82.9948H255.819C253.28 82.9948 251.002 81.9533 249.375 80.3259C252.109 79.1542 254.647 77.4618 256.861 75.2486C266.234 65.8751 266.234 50.6431 256.861 41.3346C247.487 31.9611 232.255 31.9611 222.947 41.3346C213.573 50.7082 213.573 65.9401 222.947 75.2486C226.397 78.6986 230.693 80.9118 235.184 81.8231C238.374 90.1551 246.446 96.0786 255.884 96.0786H285.177V127.259C285.177 129.407 284.33 131.425 282.833 132.987L264.932 150.888C262.394 153.426 262.394 157.527 264.932 160.066C267.471 162.605 271.572 162.605 274.111 160.066L292.011 142.165C295.982 138.194 298.195 132.922 298.195 127.259V96.0786H311.149C323.322 96.0786 333.281 86.1193 333.281 73.9467C333.281 61.6439 323.322 51.7497 311.149 51.7497ZM232.06 50.5129C234.208 48.3648 237.007 47.3233 239.806 47.3233C242.605 47.3233 245.404 48.3648 247.552 50.5129C248.203 51.1638 248.789 51.945 249.245 52.7261C242.084 54.9393 236.486 60.6024 234.403 67.8279C233.557 67.3722 232.711 66.7213 231.995 66.0052C227.764 61.709 227.764 54.744 232.06 50.5129ZM311.149 82.9948H298.13V64.7685H311.149C316.161 64.7685 320.262 68.8694 320.262 73.8816C320.262 78.8938 316.161 82.9948 311.149 82.9948Z" fill="#72B6B1"/>
<path d="M105.03 164.241C105.811 167.105 108.48 168.993 111.279 168.993C111.865 168.993 112.451 168.928 113.036 168.733L179.888 150.116C183.338 149.139 185.356 145.559 184.444 142.109C183.468 138.659 179.888 136.641 176.438 137.618L109.586 156.235C106.071 157.211 104.053 160.791 105.03 164.241Z" fill="white"/>
<path d="M134.482 172.822C130.837 176.467 128.884 181.284 128.884 186.427C128.884 191.569 130.902 196.386 134.482 199.966C138.257 203.677 143.139 205.564 148.021 205.564C152.903 205.564 157.851 203.677 161.626 199.966C169.112 192.48 169.112 180.308 161.626 172.822C154.14 165.336 141.968 165.336 134.482 172.822ZM152.448 190.788C150.039 193.197 146.134 193.197 143.725 190.788C142.554 189.616 141.903 188.054 141.903 186.427C141.903 184.799 142.554 183.237 143.725 182.065C144.962 180.894 146.524 180.243 148.086 180.243C149.649 180.243 151.276 180.829 152.448 182.065C154.856 184.409 154.856 188.38 152.448 190.788Z" fill="white"/>
<path d="M164.898 134.092C172.384 126.606 172.384 114.433 164.898 106.948C161.253 103.302 156.436 101.35 151.294 101.35C146.151 101.35 141.334 103.368 137.754 106.948C130.268 114.433 130.268 126.606 137.754 134.092C141.529 137.802 146.411 139.69 151.294 139.69C156.176 139.69 161.123 137.802 164.898 134.092ZM146.932 116.126C148.104 114.954 149.666 114.303 151.294 114.303C152.921 114.303 154.483 114.954 155.655 116.126C158.063 118.534 158.063 122.44 155.655 124.849C153.246 127.257 149.341 127.257 146.932 124.849C144.524 122.44 144.524 118.534 146.932 116.126Z" fill="white"/>
<path d="M64.8017 150.749C62.263 148.21 58.1621 148.21 55.6234 150.749L37.1367 169.235C35.9 170.472 35.249 172.099 35.249 173.857C35.249 175.614 35.9651 177.242 37.1367 178.479L119.611 261.018C120.848 262.254 122.54 262.905 124.232 262.905C125.925 262.905 127.552 262.254 128.854 261.018L252.272 137.6C254.811 135.061 254.811 130.96 252.272 128.421L169.668 45.8822C168.431 44.6454 166.804 43.9945 165.046 43.9945C163.289 43.9945 161.661 44.7105 160.425 45.8822L92.4015 113.97C89.8628 116.509 89.8628 120.61 92.4015 123.149C94.9401 125.687 99.0411 125.687 101.58 123.149L165.046 59.6821L238.407 133.043L124.232 247.218L50.8716 173.857L64.7366 159.992C67.3403 157.453 67.3403 153.287 64.8017 150.749Z" fill="#72B6B1"/>
<path d="M251.035 167.297C249.342 167.297 247.65 168.013 246.413 169.184C245.176 170.356 244.525 172.048 244.525 173.806C244.525 175.563 245.241 177.191 246.413 178.428C247.585 179.664 249.277 180.315 251.035 180.315C252.727 180.315 254.42 179.599 255.656 178.428C256.893 177.191 257.544 175.563 257.544 173.806C257.544 172.048 256.828 170.421 255.656 169.184C254.42 167.947 252.792 167.297 251.035 167.297Z" fill="#72B6B1"/>
<path d="M83.1574 141.582C84.3942 140.345 85.0452 138.718 85.0452 136.961C85.0452 135.268 84.3291 133.576 83.1574 132.339C81.9206 131.102 80.2933 130.451 78.5358 130.451C76.8433 130.451 75.1509 131.167 73.9141 132.339C72.6773 133.576 72.0264 135.203 72.0264 136.961C72.0264 138.653 72.7424 140.345 73.9141 141.582C75.1509 142.819 76.7782 143.47 78.5358 143.47C80.2933 143.47 81.9857 142.819 83.1574 141.582Z" fill="#72B6B1"/>
</svg>
