<svg xmlns="http://www.w3.org/2000/svg" width="133" height="21" fill="none" viewBox="0 0 133 21">
    <g clip-path="url(#a)">
        <path fill="#DADADA" stroke="#CECECE" d="M14.011 6.855l.116.236.26.038 6.892.998-4.992 4.978-.183.182.043.255 1.18 6.979-6.188-3.303-.234-.125-.235.124-6.184 3.28 1.174-6.955.044-.256-.185-.183-4.99-4.928 6.938-.998.26-.038.117-.236L10.94.623l3.072 6.232z"/>
    </g>
    <g clip-path="url(#b)">
        <path fill="#DADADA" stroke="#CECECE" d="M40.933 6.849l.114.24.264.04 6.63.997-4.816 4.986-.174.18.04.248 1.133 6.965-5.92-3.283-.242-.134-.242.133-5.918 3.26 1.129-6.941.04-.25-.176-.18-4.813-4.937 6.675-.996.263-.04.114-.24L37.995.658l2.938 6.19z"/>
    </g>
    <g clip-path="url(#c)">
        <path fill="#DADADA" stroke="#CECECE" d="M69.203 6.849l.114.24.263.04 6.63.997-4.815 4.986-.174.18.04.248 1.133 6.965-5.921-3.283-.242-.134-.242.133-5.918 3.26 1.13-6.941.04-.25-.176-.18-4.813-4.937 6.674-.996.264-.04.114-.24 2.96-6.238 2.939 6.19z"/>
    </g>
    <g clip-path="url(#d)">
        <path fill="#DADADA" stroke="#CECECE" d="M96.934 6.862l.118.232.258.035 7.153 1-5.17 4.97-.191.184.046.263 1.225 6.99-6.453-3.321-.228-.118-.228.117-6.44 3.293-.01.005 1.221-6.966.046-.264-.194-.185-5.166-4.921 7.201-.999.258-.035.119-.232L93.729.59l3.205 6.27z"/>
    </g>
    <g clip-path="url(#e)">
        <path fill="#DADADA" stroke="#CECECE" d="M124.665 6.855l.117.236.26.038 6.891.998-4.992 4.978-.183.183.043.255 1.179 6.978-6.186-3.303-.235-.125-.235.125-6.184 3.279 1.175-6.954.043-.257-.185-.182-4.99-4.93 6.938-.997.261-.038.116-.236 3.096-6.28 3.071 6.232z"/>
    </g>
    <defs>
        <clipPath id="a">
            <path fill="#fff" d="M0 0h21.808v21H0z"/>
        </clipPath>
        <clipPath id="b">
            <path fill="#fff" d="M0 0h21v21H0z" transform="translate(27.46)"/>
        </clipPath>
        <clipPath id="c">
            <path fill="#fff" d="M0 0h21v21H0z" transform="translate(55.73)"/>
        </clipPath>
        <clipPath id="d">
            <path fill="#fff" d="M0 0h22.615v21H0z" transform="translate(82.384)"/>
        </clipPath>
        <clipPath id="e">
            <path fill="#fff" d="M0 0h21.808v21H0z" transform="translate(110.654)"/>
        </clipPath>
    </defs>
</svg>
