<svg xmlns="http://www.w3.org/2000/svg" width="200" height="59" viewBox="0 0 200 59">
    <g fill="none" fill-rule="evenodd">
        <rect width="198.623" height="57.623" x=".689" y=".689" fill="#000" stroke="#FFF" stroke-opacity=".2" stroke-width="1.377" rx="5.51"/>
        <path fill="#FFF" d="M76.76 45.746h3.36l-7.358-20.255H69.36L62 45.746h3.248l1.879-5.376h7.768l1.864 5.376zM70.897 29.17h.24l2.952 8.562h-6.158l2.966-8.562zm18.136 1.039c-2.09 0-3.898 1.038-4.83 2.779h-.226V30.46h-2.924v20.241h3.037v-7.27h.24c.805 1.613 2.542 2.568 4.731 2.568 3.884 0 6.356-3.046 6.356-7.903 0-4.856-2.472-7.888-6.384-7.888zm-.862 13.082c-2.542 0-4.138-1.993-4.138-5.18 0-3.2 1.596-5.193 4.152-5.193 2.571 0 4.11 1.95 4.11 5.18 0 3.242-1.539 5.193-4.124 5.193zm16.61-13.082c-2.09 0-3.897 1.038-4.83 2.779h-.226V30.46h-2.923v20.241h3.036v-7.27h.24c.806 1.613 2.543 2.568 4.732 2.568 3.884 0 6.356-3.046 6.356-7.903 0-4.856-2.472-7.888-6.384-7.888zm-.86 13.082c-2.543 0-4.139-1.993-4.139-5.18 0-3.2 1.596-5.193 4.152-5.193 2.57 0 4.11 1.95 4.11 5.18 0 3.242-1.54 5.193-4.124 5.193zm13.673-2.99c.226 3.621 3.262 5.937 7.782 5.937 4.83 0 7.853-2.428 7.853-6.302 0-3.046-1.723-4.73-5.904-5.699l-2.245-.547c-2.656-.618-3.73-1.446-3.73-2.892 0-1.825 1.667-3.018 4.167-3.018 2.373 0 4.012 1.165 4.308 3.032h3.08c-.185-3.41-3.207-5.811-7.345-5.811-4.45 0-7.415 2.4-7.415 6.008 0 2.975 1.68 4.744 5.367 5.6l2.627.632c2.697.632 3.884 1.558 3.884 3.102 0 1.797-1.864 3.102-4.407 3.102-2.726 0-4.618-1.221-4.887-3.144h-3.135zm18.249-13.545v3.775h-2.528v2.541h2.528v8.633c0 2.947 1.341 4.126 4.717 4.126.593 0 1.144-.07 1.624-.154v-2.513c-.423.043-.663.07-1.13.07-1.51 0-2.175-.701-2.175-2.301v-7.86h3.447V30.53h-3.447v-3.775h-3.036zm14.011 16.605c-2.64 0-4.124-1.923-4.124-5.264 0-3.312 1.483-5.25 4.124-5.25 2.627 0 4.125 1.938 4.125 5.25 0 3.327-1.498 5.264-4.125 5.264zm0 2.681c4.492 0 7.246-2.99 7.246-7.945 0-4.927-2.768-7.93-7.246-7.93-4.49 0-7.26 3.003-7.26 7.93 0 4.955 2.755 7.945 7.26 7.945zm8.631-.295h3.037v-9.025c0-2.148 1.624-3.594 3.912-3.594.508 0 1.44.098 1.68.183v-2.976c-.324-.084-.903-.126-1.341-.126-2.006 0-3.7 1.094-4.138 2.596h-.226V30.46h-2.924v15.286zm15.466-13.012c2.246 0 3.715 1.558 3.786 3.959h-7.768c.169-2.387 1.737-3.959 3.982-3.959zm3.771 8.885c-.564 1.194-1.821 1.853-3.658 1.853-2.429 0-3.997-1.698-4.095-4.38v-.168h10.86v-1.052c0-4.8-2.584-7.707-6.863-7.707-4.336 0-7.09 3.103-7.09 7.987 0 4.885 2.697 7.889 7.104 7.889 3.517 0 5.974-1.684 6.666-4.422h-2.924zM65 9.475v9.645h3.504c2.892 0 4.567-1.772 4.567-4.853 0-3.035-1.688-4.792-4.567-4.792H65zm1.507 1.363h1.829c2.01 0 3.201 1.27 3.201 3.45 0 2.212-1.17 3.468-3.201 3.468h-1.83v-6.918zm11.865 7.145c-1.258 0-1.964-.915-1.964-2.506 0-1.578.706-2.5 1.964-2.5 1.25 0 1.964.922 1.964 2.5 0 1.584-.713 2.506-1.964 2.506zm0 1.277c2.139 0 3.45-1.424 3.45-3.783 0-2.346-1.318-3.777-3.45-3.777-2.139 0-3.457 1.43-3.457 3.777 0 2.36 1.311 3.783 3.457 3.783zm14.784-7.42H91.71l-1.305 5.555h-.114l-1.506-5.554h-1.386l-1.506 5.554h-.108l-1.312-5.554h-1.466l2.018 7.279h1.486l1.507-5.36h.114l1.513 5.36h1.5l2.011-7.28zm1.838 7.28h1.446v-4.258c0-1.136.713-1.845 1.876-1.845 1.076 0 1.6.582 1.6 1.751v4.352h1.447v-4.713c0-1.73-.922-2.707-2.556-2.707-1.103 0-1.957.488-2.314 1.297h-.107v-1.156h-1.392v7.279zm8.812 0h1.446V9h-1.446v10.12zm7.05-1.137c-1.258 0-1.964-.915-1.964-2.506 0-1.578.706-2.5 1.963-2.5 1.251 0 1.964.922 1.964 2.5 0 1.584-.713 2.506-1.964 2.506zm0 1.277c2.138 0 3.45-1.424 3.45-3.783 0-2.346-1.319-3.777-3.45-3.777-2.14 0-3.458 1.43-3.458 3.777 0 2.36 1.312 3.783 3.457 3.783zm7.924-1.23c-.787 0-1.359-.38-1.359-1.036 0-.641.457-.982 1.466-1.05l1.79-.113v.608c0 .903-.808 1.591-1.897 1.591zm-.37 1.21c.961 0 1.762-.414 2.199-1.143h.114v1.023h1.392v-4.973c0-1.538-1.035-2.447-2.871-2.447-1.662 0-2.845.802-2.993 2.052h1.399c.161-.514.72-.808 1.526-.808.989 0 1.5.434 1.5 1.203v.628l-1.984.114c-1.742.107-2.724.862-2.724 2.172 0 1.33 1.03 2.18 2.442 2.18zm8.785 0c1.009 0 1.863-.474 2.3-1.27h.114v1.15h1.386V9h-1.446v3.997h-.108c-.397-.802-1.244-1.277-2.246-1.277-1.85 0-3.04 1.458-3.04 3.757 0 2.306 1.177 3.763 3.04 3.763zm.41-6.23c1.21 0 1.97.956 1.97 2.474 0 1.524-.753 2.466-1.97 2.466-1.224 0-1.957-.929-1.957-2.473 0-1.53.74-2.467 1.957-2.467zm13.104 4.973c-1.258 0-1.964-.915-1.964-2.506 0-1.578.706-2.5 1.964-2.5 1.251 0 1.964.922 1.964 2.5 0 1.584-.713 2.506-1.964 2.506zm0 1.277c2.139 0 3.45-1.424 3.45-3.783 0-2.346-1.318-3.777-3.45-3.777-2.139 0-3.457 1.43-3.457 3.777 0 2.36 1.312 3.783 3.457 3.783zm5.53-.14h1.446v-4.258c0-1.136.713-1.845 1.876-1.845 1.077 0 1.601.582 1.601 1.751v4.352h1.446v-4.713c0-1.73-.921-2.707-2.556-2.707-1.103 0-1.957.488-2.313 1.297h-.108v-1.156h-1.392v7.279zm13.367-9.044v1.798h-1.204v1.21h1.204v4.11c0 1.404.638 1.966 2.246 1.966.282 0 .545-.034.773-.074V17.89c-.201.02-.316.033-.538.033-.72 0-1.035-.334-1.035-1.096v-3.743h1.64v-1.21h-1.64v-1.798h-1.446zm5.146 9.044h1.446v-4.251c0-1.103.733-1.845 1.917-1.845 1.09 0 1.634.588 1.634 1.751v4.345h1.446v-4.7c0-1.73-.941-2.713-2.59-2.713-1.102 0-1.95.488-2.306 1.303h-.114V9h-1.433v10.12zm11.832-6.196c1.07 0 1.769.742 1.802 1.885h-3.699c.08-1.137.827-1.885 1.897-1.885zm1.795 4.23c-.269.569-.867.883-1.741.883-1.157 0-1.904-.809-1.95-2.086v-.08h5.171v-.501c0-2.286-1.23-3.67-3.269-3.67-2.064 0-3.376 1.478-3.376 3.804 0 2.326 1.285 3.756 3.383 3.756 1.675 0 2.845-.802 3.175-2.105h-1.393z"/>
        <g fill="#FFF">
            <path d="M44.727 29.106c-.044-4.829 4.069-7.178 4.257-7.287-2.33-3.3-5.94-3.751-7.21-3.787-3.032-.31-5.973 1.763-7.518 1.763-1.576 0-3.955-1.733-6.518-1.682-3.3.049-6.386 1.905-8.079 4.787-3.493 5.878-.888 14.514 2.46 19.265 1.673 2.328 3.63 4.924 6.19 4.833 2.506-.1 3.442-1.552 6.465-1.552 2.996 0 3.874 1.552 6.486 1.492 2.689-.04 4.382-2.336 5.997-4.685C49.192 39.59 49.97 36.96 50 36.825c-.062-.019-5.22-1.932-5.273-7.72"/>
            <path d="M39.93 15.247c1.357-1.67 2.285-3.942 2.027-6.247-1.963.086-4.418 1.337-5.832 2.97-1.25 1.439-2.368 3.798-2.08 6.016 2.206.162 4.47-1.095 5.885-2.74"/>
        </g>
    </g>
</svg>
