<svg xmlns="http://www.w3.org/2000/svg" width="27" height="27" fill="none" viewBox="0 0 27 27">
    <circle cx="13.5" cy="13.5" r="13.5" fill="#C4C4C4"/>
    <path fill="#fff" d="M21.099 16.92l-1.884-1.086 1.59-.944c.256-.122.333-.465.189-.718-.147-.259-.468-.314-.71-.172l-2.12 1.238-3.37-1.956 3.37-1.936 2.12 1.238a.428.428 0 0 0 .247.077c.179 0 .34-.085.463-.246.142-.256.067-.595-.19-.719l-1.588-.944 1.883-1.086a.531.531 0 0 0 .189-.719.523.523 0 0 0-.72-.189l-1.893 1.096-.027-1.889a.521.521 0 0 0-.521-.526.53.53 0 0 0-.52.526l.02 2.498-3.35 1.937V8.47l2.109-1.2a.534.534 0 0 0 .21-.719.507.507 0 0 0-.71-.189l-1.61.908V5.125a.528.528 0 0 0-.53-.527.52.52 0 0 0-.52.527v2.164l-1.667-.927a.503.503 0 0 0-.7.19.522.522 0 0 0 .2.718l2.166 1.217v3.89L9.8 10.404l.02-2.439c.028-.273-.217-.526-.51-.526h-.02a.535.535 0 0 0-.521.526L8.749 9.8 6.903 8.74a.512.512 0 0 0-.71.187c-.139.261-.067.57.19.719l1.863 1.076-1.63.974c-.256.122-.335.465-.178.719.1.164.246.246.445.246a.51.51 0 0 0 .274-.077l2.13-1.256 3.417 1.954-3.417 1.973-2.13-1.257c-.256-.15-.585-.08-.72.171-.139.261-.064.572.18.718l1.629.962-1.863 1.087a.523.523 0 0 0-.19.723.484.484 0 0 0 .446.263.895.895 0 0 0 .264-.077l1.846-1.059.02 1.835a.524.524 0 0 0 .52.517h.02a.517.517 0 0 0 .511-.537l-.02-2.436 3.425-1.954v3.87L11.058 19.3a.517.517 0 0 0-.2.719c.105.178.247.265.447.265a.49.49 0 0 0 .256-.06l1.667-.941v2.2c0 .293.226.519.52.519.294 0 .53-.229.53-.52v-2.164l1.61.907c.075.042.162.06.246.06.21 0 .361-.085.464-.266a.525.525 0 0 0-.21-.719l-2.112-1.18v-3.927l3.35 1.936-.02 2.473a.525.525 0 0 0 .521.537.515.515 0 0 0 .52-.517l.028-1.9 1.893 1.107c.072.042.17.057.274.057a.49.49 0 0 0 .446-.246.52.52 0 0 0-.19-.718z"/>
</svg>
