<svg xmlns="http://www.w3.org/2000/svg" width="21" height="17" fill="none" viewBox="0 0 21 17">
    <path fill="#C08961" d="M11.932 7.366H.477c-.286 0-.477.21-.477.526v1.053c0 .315.19.526.477.526h11.455c.286 0 .477-.21.477-.526V7.892c0-.316-.19-.526-.477-.526zM20.523 14.733H.477c-.286 0-.477.21-.477.526v1.053c0 .315.19.526.477.526h20.046c.286 0 .477-.21.477-.526v-1.053c0-.315-.19-.526-.477-.526zM20.523 0H.477C.191 0 0 .212 0 .528v1.052c0 .316.19.526.477.526h20.046c.286 0 .477-.21.477-.526V.527C21 .21 20.81 0 20.523 0z"/>
</svg>
