<svg width="19" height="18" viewBox="0 0 19 18" fill="none" xmlns="http://www.w3.org/2000/svg">
<g clip-path="url(#clip0)">
<path d="M9.87174 0.245282L12.5978 5.68619L18.6283 6.54528C18.8761 6.58619 19 6.79074 19 6.99528C19 7.0771 18.9587 7.15892 18.8761 7.24074L14.4978 11.5362L15.5304 17.5498C15.5717 17.7544 15.4065 17.9998 15.2 18.0407C15.1174 18.0407 15.0348 18.0407 14.9522 17.9998L9.5 15.1362L4.08913 17.9589C3.88261 18.0816 3.63478 17.9998 3.51087 17.7953C3.46957 17.7135 3.46956 17.6316 3.46956 17.5498L4.50217 11.5362L0.123913 7.28164C-0.0413043 7.11801 -0.0413043 6.87255 0.123913 6.70892C0.206522 6.6271 0.28913 6.58619 0.371739 6.58619L6.44348 5.7271L9.16957 0.286191C9.25217 0.081646 9.5 -0.000172202 9.70652 0.081646C9.74783 0.081646 9.83043 0.163464 9.87174 0.245282Z" fill="#E2E2E2"/>
</g>
<defs>
<clipPath id="clip0">
<rect width="19" height="18" fill="white"/>
</clipPath>
</defs>
</svg>
