<svg xmlns="http://www.w3.org/2000/svg" width="40" height="34" fill="none" viewBox="0 0 40 34">
    <path fill="#70396D" d="M3.988 6.474h1.464c2.748 0 3.892-1.272 5.224-2.75C12.24 1.975 14.016 0 18.469 0h2.927c4.454 0 6.229 1.976 7.802 3.723 1.323 1.479 2.468 2.751 5.216 2.751h1.464c2.195 0 3.986 1.818 3.986 4.048v19.43c0 2.23-1.79 4.048-3.986 4.048H3.988C1.792 34 .002 32.182.002 29.953V10.522c0-2.23 1.79-4.048 3.986-4.048zm-2.39 23.479c0 1.335 1.074 2.426 2.39 2.426h31.89c1.315 0 2.39-1.09 2.39-2.426V10.522c0-1.336-1.075-2.427-2.39-2.427h-1.464c-3.457 0-4.952-1.668-6.4-3.28-1.48-1.645-2.873-3.202-6.625-3.202H18.46c-3.752 0-5.146 1.557-6.625 3.201-1.448 1.613-2.943 3.28-6.4 3.28H3.972c-1.315 0-2.39 1.092-2.39 2.428l.016 19.43z"/>
    <path fill="#70396D" d="M19.933 8.095c5.715 0 10.363 4.72 10.363 10.522 0 5.802-4.648 10.521-10.363 10.521S9.57 24.42 9.57 18.617c0-5.803 4.648-10.522 10.363-10.522zm0 19.43c4.835 0 8.767-3.991 8.767-8.9 0-4.91-3.932-8.902-8.767-8.902-4.835 0-8.767 3.992-8.767 8.902 0 4.9 3.932 8.9 8.767 8.9z"/>
    <path fill="#70396D" d="M19.933 11.337c3.955 0 7.178 3.265 7.178 7.288 0 4.024-3.215 7.289-7.178 7.289s-7.178-3.265-7.178-7.289c0-4.023 3.223-7.288 7.178-7.288zm0 12.948c3.076 0 5.582-2.545 5.582-5.668 0-3.122-2.506-5.668-5.582-5.668-3.075 0-5.582 2.546-5.582 5.668 0 3.123 2.507 5.668 5.582 5.668zM29.501 16.19h9.569c.436 0 .794.363.794.806 0 .45-.358.806-.794.806H29.5a.799.799 0 0 1-.794-.806.794.794 0 0 1 .794-.806zM.795 16.19h9.568c.444 0 .794.363.794.806a.804.804 0 0 1-.794.806H.795A.799.799 0 0 1 0 16.996c0-.442.358-.806.794-.806zM7.974 12.957a1.608 1.608 0 0 1-1.596-1.62c0-.896.715-1.621 1.596-1.621.882 0 1.596.726 1.596 1.62 0 .896-.714 1.621-1.596 1.621z"/>
</svg>
