<svg xmlns="http://www.w3.org/2000/svg" width="23" height="20" fill="none" viewBox="0 0 23 20">
    <path fill="#3F3F3F" d="M.46 9.767c-.276 0-.46-.186-.46-.465 0-3.348 2.668-6.046 5.98-6.046h11.5c.276 0 .46.186.46.465s-.184.465-.46.465H5.98c-2.806 0-5.06 2.28-5.06 5.116 0 .28-.184.465-.46.465z"/>
    <path fill="#3F3F3F" d="M17.48 7.442l5.06-3.721L17.48 0v7.442zM17.02 16.744H5.52c-.275 0-.46-.186-.46-.465 0-.28.185-.465.46-.465h11.5c2.806 0 5.06-2.28 5.06-5.117 0-.278.185-.465.46-.465.277 0 .46.187.46.466 0 3.348-2.668 6.046-5.98 6.046z"/>
    <path fill="#3F3F3F" d="M5.52 12.559l-5.06 3.72L5.52 20V12.56z"/>
</svg>
