<svg xmlns="http://www.w3.org/2000/svg" width="18" height="16" fill="none" viewBox="0 0 18 16">
    <path fill="#72B6B1" d="M1.988 9.09l6.42-6.42 4.63 4.631-6.419 6.42z"/>
    <path fill="#72B6B1" d="M16.706 2.779h-.699V1.527c0-.838-.682-1.524-1.524-1.524L9.174 0c-.3 0-.587.119-.8.332L.447 8.259C.157 8.545 0 8.929 0 9.335c0 .405.157.79.447 1.076l5.145 5.145c.297.297.688.444 1.076.444.392 0 .78-.147 1.077-.444l4.99-4.99a.348.348 0 1 0-.492-.494l-4.994 4.991a.823.823 0 0 1-1.164 0L.94 9.92A.817.817 0 0 1 .7 9.335c0-.22.087-.426.241-.584L8.867.825a.43.43 0 0 1 .307-.126l5.31.003c.454 0 .824.371.824.825v2.93h-1.573a.488.488 0 0 1-.346-.144A1.287 1.287 0 1 0 11.97 2.22a1.287 1.287 0 0 0 .657 2.173c.172.448.605.766 1.112.766h1.572v1.674a.443.443 0 0 1-.125.307l-.961.961a.348.348 0 1 0 .492.493l.961-.961c.214-.213.332-.496.332-.8V5.159h.696a1.19 1.19 0 1 0 0-2.38zm-4.246-.067a.584.584 0 0 1 .415-.171.584.584 0 0 1 .507.29 1.196 1.196 0 0 0-.797.81.59.59 0 0 1-.126-.93zm4.246 1.744h-.699v-.979h.699a.49.49 0 0 1 0 .979z"/>
    <path fill="#fff" d="M5.64 8.818a.35.35 0 0 0 .43.24l3.59-.999a.353.353 0 0 0 .244-.43.349.349 0 0 0-.43-.24l-3.59.999a.348.348 0 0 0-.244.43zM7.22 9.28c-.195.196-.3.454-.3.73a1.023 1.023 0 0 0 1.027 1.028c.263 0 .528-.101.73-.3A1.032 1.032 0 0 0 7.22 9.28zm.965.965a.331.331 0 1 1-.468-.469.331.331 0 0 1 .468.469zM8.855 7.2a1.032 1.032 0 0 0-1.458-1.458A1.032 1.032 0 0 0 8.124 7.5c.262 0 .528-.101.73-.3zm-.965-.965a.33.33 0 1 1 .468.468.331.331 0 0 1-.468-.468z"/>
    <path fill="#72B6B1" d="M3.48 8.093a.348.348 0 0 0-.493 0l-.993.993a.346.346 0 0 0-.101.248.36.36 0 0 0 .1.248l4.43 4.432a.352.352 0 0 0 .495 0l6.627-6.627a.348.348 0 0 0 0-.493L9.11 2.463a.346.346 0 0 0-.248-.102.36.36 0 0 0-.249.102L4.961 6.118a.348.348 0 1 0 .493.493l3.408-3.407L12.8 7.142l-6.13 6.13-3.939-3.938.745-.745a.35.35 0 0 0 .003-.496zM13.478 8.982a.367.367 0 0 0-.248.102.34.34 0 0 0-.101.248c0 .094.038.182.101.248a.34.34 0 0 0 .248.101c.091 0 .182-.038.248-.1a.346.346 0 0 0 .102-.25.346.346 0 0 0-.35-.35z"/>
    <path fill="#72B6B1" d="M4.465 7.602a.346.346 0 0 0 .101-.249.346.346 0 0 0-.35-.35.346.346 0 0 0-.35.35c.001.091.04.182.103.249a.346.346 0 0 0 .248.1.34.34 0 0 0 .248-.1z"/>
</svg>
