<svg xmlns="http://www.w3.org/2000/svg" width="15" height="16" fill="none" viewBox="0 0 15 16">
    <path fill="#686565" d="M9.514 3.822h.46c.169 0 .307-.172.307-.382 0-.21-.138-.382-.307-.382h-.46c-.169 0-.307.172-.307.382 0 .21.138.382.307.382z"/>
    <path fill="#686565" d="M14.053.42c-.107-.267-.322-.42-.552-.42H.617C.387 0 .172.172.065.42a.919.919 0 0 0 .06.803L5.54 9.711v5.524c0 .287.123.536.323.67a.54.54 0 0 0 .291.095.518.518 0 0 0 .353-.134l1.702-1.472a1.28 1.28 0 0 0 .384-.936V9.692l5.399-8.469a.919.919 0 0 0 .061-.802zM8.041 9.33a.48.48 0 0 0-.062.229v3.88a.453.453 0 0 1-.122.325l-1.703 1.472V9.558c0-.134-.046-.249-.123-.306L2.565 3.823h5.568c.168 0 .306-.172.306-.382 0-.21-.138-.382-.306-.382H2.089L.617.765H13.5l-5.46 8.564z"/>
</svg>
