<svg xmlns="http://www.w3.org/2000/svg" width="16" height="14" fill="none" viewBox="0 0 16 14">
    <path fill="#70396D"
          d="M13.84 1.186h-1.649V.89a.89.89 0 0 0-.883-.89.89.89 0 0 0-.884.89v.296H8.422V.89A.89.89 0 0 0 7.538 0a.89.89 0 0 0-.883.89v.296H4.653V.89A.89.89 0 0 0 3.769 0a.89.89 0 0 0-.883.89v.296h-1.65C.555 1.186 0 1.744 0 2.432v10.085C0 13.336.66 14 1.472 14h4.744a.296.296 0 0 0 0-.593H1.472a.89.89 0 0 1-.883-.89V4.153h13.899v8.364a.89.89 0 0 1-.883.89H8.867a.296.296 0 0 0 0 .593h4.738c.812 0 1.472-.664 1.472-1.483V2.432c0-.688-.554-1.246-1.237-1.246zM11.013.89c0-.163.133-.297.295-.297.162 0 .294.134.294.297v1.186a.296.296 0 0 1-.294.297.296.296 0 0 1-.295-.297V.89zm-3.769 0c0-.163.133-.297.294-.297.162 0 .295.134.295.297v1.186a.296.296 0 0 1-.295.297.296.296 0 0 1-.294-.297V.89zm-3.77 0c0-.163.133-.297.295-.297.162 0 .295.134.295.297v1.186a.296.296 0 0 1-.295.297.296.296 0 0 1-.294-.297V.89zM.59 3.56V2.431c0-.359.291-.652.648-.652h1.649v.296c0 .49.397.89.883.89a.89.89 0 0 0 .884-.89V1.78h2.002v.296c0 .49.398.89.883.89a.89.89 0 0 0 .884-.89V1.78h2.002v.296c0 .49.398.89.884.89a.89.89 0 0 0 .883-.89V1.78h1.65c.356 0 .647.293.647.652V3.56H.588z"/>
    <path fill="#70396D"
          d="M4.594 5.573a.296.296 0 0 0-.294-.297H1.944a.296.296 0 0 0-.295.297v2.373c0 .163.133.297.295.297H4.3a.296.296 0 0 0 .294-.297V5.573zM4.005 7.65H2.238V5.87h1.767v1.78zM6.36 8.243h2.357a.296.296 0 0 0 .294-.297V5.573a.296.296 0 0 0-.294-.297H6.36a.296.296 0 0 0-.295.297v2.373c0 .163.133.297.295.297zm.295-2.373h1.767v1.78H6.655V5.87zM10.777 8.243h2.356a.296.296 0 0 0 .294-.297V5.573a.296.296 0 0 0-.294-.297h-2.356a.296.296 0 0 0-.295.297v2.373c0 .163.133.297.295.297zm.294-2.373h1.767v1.78h-1.767V5.87zM4.3 9.31H1.944a.296.296 0 0 0-.295.297v2.373c0 .163.133.297.295.297H4.3a.296.296 0 0 0 .294-.297V9.607a.295.295 0 0 0-.294-.296zm-.295 2.373H2.238v-1.78h1.767v1.78zM6.066 11.98c0 .163.133.297.295.297h2.356a.296.296 0 0 0 .294-.297V9.607a.296.296 0 0 0-.294-.296H6.36a.296.296 0 0 0-.295.296v2.373zm.59-2.076h1.766v1.78H6.655v-1.78zM10.482 11.98c0 .163.133.297.295.297h2.356a.296.296 0 0 0 .294-.297V9.607a.296.296 0 0 0-.294-.296h-2.356a.296.296 0 0 0-.295.296v2.373zm.59-2.076h1.766v1.78h-1.767v-1.78z"/>
</svg>
