<svg width="21" height="23" viewBox="0 0 21 23" fill="none" xmlns="http://www.w3.org/2000/svg">
<path d="M13.7866 7.22324C13.7326 7.06152 13.593 6.94024 13.4218 6.91777L11.463 6.63477L10.5849 4.86484C10.5084 4.71211 10.3508 4.61328 10.1797 4.61328C10.0086 4.61328 9.85096 4.71211 9.77441 4.86484L8.90083 6.63477L6.94202 6.91777C6.7709 6.94024 6.63131 7.06152 6.57727 7.22324C6.52324 7.38496 6.56827 7.56465 6.68985 7.68594L8.1083 9.06504L7.77507 11.0102C7.74805 11.1809 7.8156 11.3471 7.95519 11.4504C8.03174 11.5088 8.12631 11.5357 8.22087 11.5357C8.29292 11.5357 8.36497 11.5178 8.43251 11.4863L10.1842 10.5654L11.9359 11.4818C12.089 11.5627 12.2736 11.5492 12.4087 11.4459C12.5483 11.3471 12.6158 11.1764 12.5888 11.0057L12.2556 9.06055L13.674 7.68145C13.7956 7.56465 13.8361 7.38496 13.7866 7.22324ZM11.454 8.58438C11.346 8.6877 11.3009 8.83594 11.3234 8.98418L11.5441 10.2645L10.3913 9.65801C10.2607 9.59063 10.1031 9.59063 9.97254 9.65801L8.81977 10.2645L9.04042 8.98418C9.06744 8.84043 9.0179 8.6877 8.90983 8.58438L7.97771 7.67695L9.27007 7.48828C9.41867 7.46582 9.54476 7.37598 9.6078 7.24121L10.1842 6.07324L10.7606 7.24121C10.8281 7.37598 10.9542 7.46582 11.0983 7.48828L12.3907 7.67695L11.454 8.58438Z" fill="#70396D"/>
<path d="M20.3015 19.7387L16.5775 13.2789C17.7033 11.8773 18.3742 10.1029 18.3742 8.17578C18.3742 3.66562 14.6998 0 10.1787 0C5.65772 0 1.98327 3.66562 1.98327 8.17578C1.98327 10.1029 2.65872 11.8773 3.77997 13.2789L0.0604853 19.7387C-0.0250719 19.8869 -0.0205689 20.0711 0.0784973 20.2148C0.17306 20.3586 0.344175 20.4305 0.510786 20.408L3.41523 20.0172L4.53197 22.7215C4.59501 22.8787 4.74812 22.9865 4.91923 23C4.92824 23 4.93724 23 4.95075 23C5.11286 23 5.26146 22.9146 5.34251 22.7754L9.09802 16.2842C9.09802 16.2842 9.09802 16.2842 9.09802 16.2797C9.45376 16.3246 9.814 16.3516 10.1832 16.3516C10.5525 16.3516 10.9127 16.3291 11.2685 16.2797C11.2685 16.2797 11.2685 16.2797 11.2685 16.2842L15.024 22.7754C15.105 22.9146 15.2536 23 15.4157 23C15.4247 23 15.4338 23 15.4473 23C15.6184 22.9865 15.767 22.8832 15.8345 22.7215L16.9513 20.0172L19.8557 20.408C20.0268 20.4305 20.1934 20.3541 20.288 20.2148C20.3826 20.0711 20.3871 19.8869 20.3015 19.7387ZM5.0183 21.5355L4.20776 19.568L4.93724 18.382C5.06783 18.1709 5.00029 17.8924 4.78864 17.7621C4.577 17.6318 4.29782 17.6992 4.16723 17.9104L3.43324 19.1098L1.30332 19.3973L4.4239 13.9842C5.44608 14.9949 6.72944 15.7361 8.1659 16.1045L5.0183 21.5355ZM10.1832 15.4531C6.16206 15.4531 2.88837 12.1873 2.88837 8.17578C2.88837 4.16426 6.16206 0.898438 10.1832 0.898438C14.2044 0.898438 17.4781 4.16426 17.4781 8.17578C17.4781 12.1873 14.2044 15.4531 10.1832 15.4531ZM16.9333 19.1098L16.1993 17.9104C16.0687 17.6992 15.794 17.6318 15.5779 17.7621C15.3662 17.8924 15.2987 18.1664 15.4293 18.382L16.1587 19.568L15.3482 21.5355L12.2051 16.1C13.6416 15.7361 14.9294 14.9904 15.9471 13.9797L19.0677 19.3928L16.9333 19.1098Z" fill="#70396D"/>
<path d="M10.1832 2.33594C9.17907 2.33594 8.18841 2.59648 7.31482 3.08164C7.09868 3.20293 7.02213 3.47695 7.14371 3.69258C7.26529 3.9082 7.53997 3.98457 7.75612 3.86328C8.49461 3.45 9.33217 3.22988 10.1832 3.22988C12.9166 3.22988 15.1366 5.44453 15.1366 8.17129C15.1366 8.91699 14.9744 9.63125 14.6547 10.2961C14.5467 10.5207 14.6412 10.7902 14.8664 10.8936C14.9294 10.925 14.997 10.9385 15.06 10.9385C15.2266 10.9385 15.3887 10.8441 15.4653 10.6824C15.8435 9.89629 16.0326 9.04727 16.0326 8.17129C16.0372 4.95488 13.4119 2.33594 10.1832 2.33594Z" fill="#70396D"/>
<path d="M14.3705 11.6093C14.1904 11.4386 13.9067 11.4386 13.7356 11.6183L13.7266 11.6273C13.551 11.807 13.5555 12.09 13.7356 12.2607C13.8212 12.3461 13.9382 12.3865 14.0508 12.3865C14.1679 12.3865 14.285 12.3416 14.375 12.2517L14.3885 12.2383C14.5552 12.0676 14.5507 11.7845 14.3705 11.6093Z" fill="#70396D"/>
<path d="M13.183 12.6815C13.0614 12.4659 12.7912 12.385 12.5706 12.5063C11.8456 12.9061 11.017 13.1173 10.184 13.1173C7.45066 13.1173 5.23068 10.9026 5.23068 8.17586C5.23068 7.4616 5.37928 6.77429 5.67197 6.13191C5.77554 5.9073 5.67648 5.63777 5.44682 5.53894C5.22167 5.43562 4.95149 5.53445 4.85243 5.76355C4.5057 6.52722 4.33008 7.34031 4.33008 8.18035C4.33008 11.4012 6.95533 14.0202 10.184 14.0202C11.1701 14.0202 12.1473 13.7686 13.0074 13.2969C13.2235 13.1757 13.3001 12.9016 13.183 12.6815Z" fill="#70396D"/>
<path d="M6.53426 4.17325C6.35414 4.00254 6.06595 4.01602 5.89934 4.19571L5.89033 4.20469C5.71922 4.38887 5.73273 4.67188 5.91285 4.83809C5.99841 4.91895 6.11098 4.95938 6.21905 4.95938C6.34063 4.95938 6.46221 4.90996 6.54777 4.81563L6.55678 4.80664C6.72339 4.62696 6.71438 4.34395 6.53426 4.17325Z" fill="#70396D"/>
<path d="M9.24036 7.38419L10.2088 5.68945L11.2579 7.14208L12.9526 7.6263L11.6211 8.91752L11.9439 10.693L10.0877 9.96665L8.4737 10.5316L8.7158 8.91752L7.70703 7.6263L9.24036 7.38419Z" fill="#70396D" stroke="#70396D"/>
</svg>
