<svg xmlns="http://www.w3.org/2000/svg" width="25" height="25" fill="none" viewBox="0 0 25 25">
    <path fill="#72B6B1" d="M8.926 13.13a.486.486 0 0 0 .347-.83l-.23-.23a.486.486 0 1 0-.688.688l.229.23c.093.097.22.141.342.141zM11.137 14.16l-.288-.288a.486.486 0 1 0-.688.688l.287.288a.48.48 0 0 0 .347.142.5.5 0 0 0 .347-.142.49.49 0 0 0-.005-.688zM11.977 15.688a.486.486 0 0 0 0 .688l.322.322a.48.48 0 0 0 .346.142.486.486 0 0 0 .346-.83l-.321-.322a.492.492 0 0 0-.693 0z"/>
    <path fill="#72B6B1" d="M24.34 6.655L22.724 5.04a.483.483 0 0 0-.347-.142.504.504 0 0 0-.346.142c-.279.278-.645.43-1.035.43a1.465 1.465 0 0 1-1.035-2.5.486.486 0 0 0 0-.689L18.338.66a2.251 2.251 0 0 0-3.183 0L6.894 8.915a.483.483 0 0 0-.141.346v1.207H5.547a.504.504 0 0 0-.347.141L.66 15.151c-.426.425-.66.991-.66 1.592 0 .6.234 1.167.66 1.591l1.62 1.622c.19.19.498.19.689 0 .278-.279.644-.43 1.035-.43.39 0 .762.151 1.035.43.278.278.43.644.43 1.035 0 .39-.152.761-.43 1.035a.483.483 0 0 0-.142.346c0 .132.054.254.142.347l1.616 1.616c.44.44 1.016.66 1.592.66.576 0 1.152-.22 1.592-.66l4.54-4.54a.483.483 0 0 0 .142-.347v-1.206h1.206a.504.504 0 0 0 .347-.142l2.954-2.954a.486.486 0 1 0-.689-.688l-2.807 2.807h-1.49a.49.49 0 0 0-.488.488v1.49l-4.399 4.399a1.28 1.28 0 0 1-1.807 0l-1.303-1.304c.263-.395.405-.859.405-1.347 0-.655-.254-1.265-.713-1.729a2.41 2.41 0 0 0-1.728-.713c-.489 0-.952.142-1.348.406L1.348 17.64a1.279 1.279 0 0 1 0-1.806l4.399-4.4h1.49a.49.49 0 0 0 .487-.488v-1.49l8.12-8.114a1.279 1.279 0 0 1 1.807 0l1.313 1.313a2.444 2.444 0 0 0 .313 3.071 2.43 2.43 0 0 0 1.728.713c.489 0 .953-.141 1.348-.405l1.304 1.304a1.279 1.279 0 0 1 0 1.806l-2.202 2.202a.486.486 0 1 0 .688.689l2.202-2.202a2.25 2.25 0 0 0-.005-3.179z"/>
    <path fill="#72B6B1" d="M14.691 6.416a.494.494 0 0 0-.341.6l1.582 5.694a.49.49 0 0 0 .6.337.494.494 0 0 0 .342-.6l-1.582-5.694a.49.49 0 0 0-.6-.337zM17.428 8.235a1.465 1.465 0 1 0 2.073 2.07 1.465 1.465 0 0 0-2.073-2.07zm1.381 1.382a.486.486 0 1 1-.341-.83c.132 0 .254.048.346.141a.49.49 0 0 1-.005.689zM13.842 8.408a1.451 1.451 0 0 0-1.035-.43 1.465 1.465 0 1 0 1.035.43zm-.688 1.381a.486.486 0 1 1-.342-.83c.132 0 .254.05.347.142a.49.49 0 0 1-.005.688zM7.66 14.29a.486.486 0 0 0-.688 0l-1.656 1.656a.486.486 0 0 0 .347.83.5.5 0 0 0 .347-.141l1.655-1.656a.49.49 0 0 0-.005-.688zM7.175 18.303a.5.5 0 0 0 .347-.141l1.655-1.655a.486.486 0 1 0-.688-.689l-1.655 1.655a.486.486 0 0 0 .341.83zM8.696 19.825a.5.5 0 0 0 .347-.142l1.655-1.655a.486.486 0 1 0-.688-.689l-1.655 1.65a.486.486 0 0 0 0 .69c.092.097.22.146.341.146zM20.237 12.761a.483.483 0 0 0-.488.488c0 .127.053.254.141.347a.483.483 0 0 0 .347.141.483.483 0 0 0 .488-.488.513.513 0 0 0-.142-.346.492.492 0 0 0-.346-.142z"/>
</svg>
