<svg xmlns="http://www.w3.org/2000/svg" width="20" height="21" fill="none" viewBox="0 0 20 21">
    <path fill="#179934" d="M18.903 4.314h-3.865a2.55 2.55 0 0 0 .504-.669c.004-.004.004-.012.008-.017l.051-.118a2.478 2.478 0 0 0-.106-2.236c0-.004-.004-.008-.004-.008-.017-.026-.03-.055-.046-.08-.009-.017-.022-.03-.03-.043-.009-.017-.021-.03-.03-.046l-.059-.085s0-.004-.004-.004A2.479 2.479 0 0 0 13.323 0h-.152a2.497 2.497 0 0 0-2.142 1.486L10 3.806l-1.025-2.32A2.497 2.497 0 0 0 6.833 0h-.152c-.796 0-1.524.368-2.003 1.003l-.004.009a.54.54 0 0 0-.055.08c-.009.017-.021.03-.03.043-.008.017-.02.03-.03.046-.016.026-.033.055-.05.08l-.004.01a2.478 2.478 0 0 0-.106 2.234l.05.119c.005.004.005.013.01.017.13.254.3.478.503.669H1.097C.49 4.314 0 4.81 0 5.415v3.9a1.1 1.1 0 0 0 1.097 1.1h.097v8.948c0 .652.53 1.177 1.177 1.177h1.981c.19 0 .343-.152.343-.343a.341.341 0 0 0-.343-.343H2.375a.496.496 0 0 1-.495-.495v-8.944h5.923v9.444H5.5a.342.342 0 0 0-.343.343c0 .19.152.342.343.342h12.129a1.18 1.18 0 0 0 1.177-1.177v-8.952h.097c.606 0 1.097-.491 1.097-1.097V5.415a1.098 1.098 0 0 0-1.097-1.1zM7.803 9.73H1.097a.411.411 0 0 1-.411-.41V5.414c0-.229.186-.41.41-.41h6.707v4.724zM6.689 4.314a1.815 1.815 0 0 1-1.613-.974l-.046-.11a1.805 1.805 0 0 1 .14-1.723c.008-.008.012-.021.02-.03a.513.513 0 0 1 .043-.059s0-.004.004-.004A1.805 1.805 0 0 1 6.69.686h.119c.677.042 1.27.457 1.545 1.075L9.48 4.31l-2.79.004zm4.827 5.758v9.787H8.489V5h3.027v5.072zm-.987-5.758l1.126-2.549A1.806 1.806 0 0 1 13.201.69h.118a1.81 1.81 0 0 1 1.457.733c.012.02.03.038.042.059.008.008.013.021.021.034.009.008.013.02.021.03a.721.721 0 0 0 .038.059c.005.004.005.008.009.012 0-.004-.004-.004-.004-.008.283.504.313 1.096.076 1.626l-.047.11a1.809 1.809 0 0 1-1.609.973h-.004l-2.79-.004zm7.595 15.05c0 .27-.22.495-.495.495h-5.428v-9.444h5.923v8.948zm1.194-10.05c0 .229-.186.41-.41.41H12.2V5H18.909c.228 0 .41.186.41.41v3.904z"/>
    <path fill="#179934" d="M8.165 4.536h3.629v15.422H8.165z"/>
</svg>
