<svg xmlns="http://www.w3.org/2000/svg" width="39" height="39" fill="none" viewBox="0 0 39 39">
    <path fill="#70396D" d="M28.305 0h-17.61C4.799 0 0 4.799 0 10.694v17.62C0 34.2 4.799 39 10.694 39h17.62C34.2 39 39 34.201 39 28.305v-17.61C39 4.799 34.201 0 28.305 0zM36.7 28.305c0 4.624-3.763 8.387-8.387 8.387H10.694c-4.623 0-8.386-3.763-8.386-8.387v-17.61c0-4.624 3.763-8.387 8.386-8.387h17.62c4.623 0 8.386 3.763 8.386 8.386v17.611z"/>
    <path fill="#70396D" d="M19.501 8.807c-5.896 0-10.694 4.798-10.694 10.694 0 5.896 4.798 10.695 10.694 10.695 5.896 0 10.695-4.8 10.695-10.695 0-5.896-4.8-10.694-10.695-10.694zm0 19.088c-4.631 0-8.394-3.763-8.394-8.394s3.763-8.394 8.394-8.394 8.394 3.763 8.394 8.394-3.763 8.394-8.394 8.394zM30.835 4.914a3.256 3.256 0 0 0-3.253 3.253 3.25 3.25 0 0 0 3.253 3.252 3.25 3.25 0 0 0 3.252-3.252 3.25 3.25 0 0 0-3.252-3.253zm0 4.197a.944.944 0 1 1 0-1.889.944.944 0 0 1 0 1.89z"/>
</svg>
