<svg width="26" height="24" viewBox="0 0 26 24" fill="none" xmlns="http://www.w3.org/2000/svg">
<path d="M12.96 2.175C16.4025 2.175 16.848 2.175 18.1845 2.25C19.6425 2.325 21.0195 2.5875 22.0725 3.5625C23.1255 4.5375 23.409 5.8125 23.49 7.1625C23.571 8.4375 23.571 8.8125 23.571 12C23.571 15.1875 23.571 15.6 23.49 16.8375C23.409 18.1875 23.1255 19.4625 22.0725 20.4375C21.0195 21.4125 19.6425 21.675 18.1845 21.75C16.8075 21.825 16.4025 21.825 12.96 21.825C9.5175 21.825 9.072 21.825 7.7355 21.75C6.2775 21.675 4.9005 21.4125 3.8475 20.4375C2.7945 19.4625 2.511 18.1875 2.43 16.8375C2.349 15.6 2.349 15.1875 2.349 12C2.349 8.8125 2.349 8.4 2.43 7.1625C2.511 5.8125 2.7945 4.5375 3.8475 3.5625C4.9005 2.5875 6.2775 2.325 7.7355 2.25C9.072 2.175 9.5175 2.175 12.96 2.175ZM12.96 0C9.4365 0 8.991 0 7.614 0.075C5.508 0.15 3.645 0.6375 2.187 2.025C0.6885 3.375 0.162 5.1 0.081 7.05C0 8.325 0 8.7375 0 12C0 15.2625 0 15.675 0.081 16.95C0.162 18.9 0.6885 20.625 2.187 21.975C3.6855 23.3625 5.508 23.8125 7.614 23.925C8.991 24 9.4365 24 12.96 24C16.4835 24 16.929 24 18.306 23.925C20.412 23.85 22.275 23.3625 23.733 21.975C25.2315 20.5875 25.7175 18.9 25.839 16.95C25.92 15.675 25.92 15.2625 25.92 12C25.92 8.7375 25.92 8.325 25.839 7.05C25.758 5.1 25.2315 3.375 23.733 2.025C22.275 0.6375 20.412 0.15 18.306 0.075C16.929 0 16.4835 0 12.96 0Z" fill="url(#paint0_linear)"/>
<path d="M12.9584 5.84961C9.27291 5.84961 6.31641 8.62461 6.31641 11.9996C6.31641 15.3746 9.27291 18.1496 12.9584 18.1496C16.6439 18.1496 19.6004 15.4121 19.6004 11.9996C19.6004 8.58711 16.6439 5.84961 12.9584 5.84961ZM12.9584 16.0121C10.5689 16.0121 8.62491 14.2121 8.62491 11.9996C8.62491 9.78711 10.5689 7.98711 12.9584 7.98711C15.3479 7.98711 17.2919 9.78711 17.2919 11.9996C17.2919 14.2121 15.3479 16.0121 12.9584 16.0121Z" fill="url(#paint1_linear)"/>
<path d="M19.8867 7.01211C20.7366 7.01211 21.4257 6.37411 21.4257 5.58711C21.4257 4.8001 20.7366 4.16211 19.8867 4.16211C19.0367 4.16211 18.3477 4.8001 18.3477 5.58711C18.3477 6.37411 19.0367 7.01211 19.8867 7.01211Z" fill="url(#paint2_linear)"/>
<defs>
<linearGradient id="paint0_linear" x1="12.96" y1="0" x2="12.96" y2="24" gradientUnits="userSpaceOnUse">
<stop stop-color="#F1000C"/>
<stop offset="0.463542" stop-color="#D7005B"/>
<stop offset="1" stop-color="#BC00AB"/>
</linearGradient>
<linearGradient id="paint1_linear" x1="12.9584" y1="5.84961" x2="12.9584" y2="18.1496" gradientUnits="userSpaceOnUse">
<stop stop-color="#F1000C"/>
<stop offset="0.463542" stop-color="#D7005B"/>
<stop offset="1" stop-color="#BC00AB"/>
</linearGradient>
<linearGradient id="paint2_linear" x1="19.8867" y1="4.16211" x2="19.8867" y2="7.01211" gradientUnits="userSpaceOnUse">
<stop stop-color="#F1000C"/>
<stop offset="0.463542" stop-color="#D7005B"/>
<stop offset="1" stop-color="#BC00AB"/>
</linearGradient>
</defs>
</svg>
