<svg xmlns="http://www.w3.org/2000/svg" width="20" height="20" fill="none" viewBox="0 0 20 20">
    <path fill="#FC4945" d="M18.226 4.318A10.025 10.025 0 0 0 9.99 0C7.96 0 5.993.611 4.316 1.771c-4.538 3.135-5.682 9.373-2.547 13.91a10.004 10.004 0 0 0 13.91 2.548c4.538-3.135 5.674-9.373 2.547-13.91zM15.1 17.39a8.908 8.908 0 0 1-5.094 1.591 8.99 8.99 0 0 1-7.398-3.88C-.206 11.028.82 5.424 4.896 2.61A8.908 8.908 0 0 1 9.99 1.019a8.989 8.989 0 0 1 7.398 3.88c2.813 4.074 1.787 9.678-2.289 12.491z"/>
    <path fill="#FC4945" d="M5.14 6.536a1.09 1.09 0 1 0 0-2.179 1.09 1.09 0 0 0 0 2.18zM5.14 10.183a1.09 1.09 0 1 0 0-2.18 1.09 1.09 0 0 0 0 2.18zM8.593 6.726a1.09 1.09 0 1 0 0-2.18 1.09 1.09 0 0 0 0 2.18z"/>
</svg>
