<svg xmlns="http://www.w3.org/2000/svg" width="12" height="15" fill="none" viewBox="0 0 12 15">
    <path fill="#686565" d="M2.633 5.567a2.932 2.932 0 0 0 2.925 2.93 2.932 2.932 0 0 0 2.925-2.93 2.932 2.932 0 0 0-2.925-2.93 2.932 2.932 0 0 0-2.925 2.93zm2.925-2.344a2.345 2.345 0 0 1 0 4.687 2.345 2.345 0 0 1 0-4.687zM5.85.293a.294.294 0 0 1-.292.293.294.294 0 0 1 0-.586c.161 0 .293.132.293.293z"/>
    <path fill="#686565" d="M4.18.173A5.562 5.562 0 0 0 0 5.566c0 2.32.796 3.27 5.324 9.317a.296.296 0 0 0 .234.117c.09 0 .178-.044.234-.117 4.528-6.044 5.323-6.996 5.323-9.317A5.562 5.562 0 0 0 6.935.173.294.294 0 0 0 6.79.74a4.973 4.973 0 0 1 3.741 4.825c0 2.077-.652 2.886-4.972 8.652C1.24 8.455.585 7.646.585 5.566A4.974 4.974 0 0 1 4.323.741a.292.292 0 0 0 .21-.358.29.29 0 0 0-.353-.21z"/>
</svg>
