<svg xmlns="http://www.w3.org/2000/svg" width="22" height="22" fill="none" viewBox="0 0 22 22">
    <path fill="#fff" d="M11.023 0C4.91 0 0 4.537 0 10.175c0 3.208 1.575 6.05 4.076 7.93V22l3.751-2.063a12.12 12.12 0 0 0 3.15.413C17.044 20.35 22 15.812 22 10.175 22 4.537 17.09 0 11.023 0zm1.158 13.658l-2.825-2.933-5.512 3.025 6.021-6.325 2.825 2.933 5.466-3.025-5.975 6.325z"/>
    <path fill="#0086FF" d="M12.181 13.658l-2.825-2.933-5.512 3.025 6.021-6.325 2.826 2.933 5.465-3.025-5.975 6.325z"/>
</svg>
