<svg xmlns="http://www.w3.org/2000/svg" width="22" height="24" fill="none" viewBox="0 0 22 24">
    <path fill="#686565" d="M21.544 12.229l-.002-.014-.006-.038-.004-.015-.012-.037-.005-.013c-.004-.012-.01-.024-.016-.035l-.005-.012-.023-.04-.002-.004c-.01-.013-.02-.029-.031-.04l-.01-.012-.025-.027c-.004-.004-.01-.007-.013-.011-.01-.008-.018-.016-.027-.021-.002-.002-.006-.004-.008-.008l-4.96-3.608V1.219A1.22 1.22 0 0 0 15.177 0h-5.059a.469.469 0 1 0 0 .939h5.059c.151 0 .28.128.28.28v14.574l-.561.41V1.97c0-.26-.21-.47-.469-.47H7.12c-.26 0-.469.21-.469.47v14.233l-.56-.41V1.219c0-.152.128-.28.28-.28h.517a.469.469 0 1 0 0-.939H6.37a1.22 1.22 0 0 0-1.219 1.22v7.074L.194 11.902l-.008.006a.335.335 0 0 0-.026.023l-.014.011c-.01.008-.017.018-.025.027l-.01.012a.54.54 0 0 0-.03.04l-.002.004-.023.04-.006.012c-.006.011-.012.023-.015.035l-.006.013-.012.037-.004.015-.007.038-.002.014A.471.471 0 0 0 0 12.28v10.5C0 23.45.546 24 1.218 24h19.11c.305 0 .581-.112.795-.296 0 0 .002 0 .002-.002.259-.223.422-.554.422-.921v-10.5a.453.453 0 0 0-.003-.052zM20.61 22.61l-6.463-4.704 6.463-4.705v9.41zM.94 13.202l6.463 4.705L.94 22.61v-9.409zm9.503 3.649c.17-.123.506-.114.692.023l8.502 6.187H1.91l8.533-6.21zm5.952-7.4l3.888 2.83-3.888 2.83V9.45zM7.589 2.438h6.37v14.447l-.61.442-1.664-1.212c-.512-.373-1.3-.383-1.795-.023l-1.695 1.233-.61-.443V2.437h.004zM5.154 9.452v5.658l-3.888-2.83 3.888-2.828z"/>
    <path fill="#686565" d="M8.235.937h.013A.469.469 0 1 0 8.246 0h-.013a.468.468 0 0 0 .002.937zM10.185 8.693l.82.338a.418.418 0 1 1-.321.771l-.41-.169a.469.469 0 0 0-.358.866l.389.161v.581a.469.469 0 1 0 .938 0v-.529a1.356 1.356 0 0 0 .12-2.546l-.818-.339a.413.413 0 0 1-.225-.227.42.42 0 0 1 .546-.546l.41.17a.469.469 0 0 0 .357-.866l-.389-.162v-.58a.469.469 0 1 0-.937 0v.528a1.354 1.354 0 0 0-.852 1.814c.139.335.398.596.73.735zM10.024 14.889c0 .26.21.47.469.47h1.921a.469.469 0 1 0 0-.94h-1.921c-.26 0-.47.21-.47.47zM9.135 15.358h.011a.469.469 0 1 0 0-.938h-.011a.468.468 0 1 0 0 .938z"/>
</svg>
