<svg xmlns="http://www.w3.org/2000/svg" width="27" height="26" fill="none" viewBox="0 0 27 26">
    <ellipse cx="13.5" cy="13" fill="#C4C4C4" rx="13.5" ry="13"/>
    <path fill="#fff" d="M20.381 9.573a.723.723 0 0 0-.197.024l-.76.204-.784-1.85C18.417 7.425 17.76 7 17.174 7h-7.36c-.587 0-1.244.426-1.467.95L7.563 9.8l-.747-.197a.724.724 0 0 0-.197-.024C6.26 9.573 6 9.838 6 10.202v.432c0 .425.357.77.797.77h.083l-.127.297c-.205.494-.37 1.32-.37 1.845v3.683c0 .425.357.771.797.771h1.04c.44 0 .797-.346.797-.771v-.92h8.96v.92c0 .425.357.771.797.771h1.04c.44 0 .797-.346.797-.771v-3.683c0-.525-.166-1.351-.376-1.839l-.128-.296h.096c.44 0 .797-.345.797-.771v-.432c0-.37-.262-.635-.619-.635zM8.136 10.985l1.187-2.8c.134-.315.529-.574.88-.574h6.581c.351 0 .747.259.88.574l1.187 2.8c.134.315-.045.574-.396.574H8.532c-.35 0-.53-.259-.396-.574zm2.654 3.548a.315.315 0 0 1-.32.308H8.214a.315.315 0 0 1-.319-.308v-1.049c0-.173.147-.309.319-.309h2.258c.178 0 .319.142.319.309v1.049zm8.284 0a.315.315 0 0 1-.319.308h-2.258a.315.315 0 0 1-.318-.308v-1.049c0-.173.146-.309.318-.309h2.258c.179 0 .319.142.319.309v1.049z"/>
</svg>
