<svg xmlns="http://www.w3.org/2000/svg" width="27" height="27" fill="none" viewBox="0 0 27 27">
    <ellipse cx="13.5" cy="13.018" fill="#C4C4C4" rx="13.5" ry="13.018"/>
    <path fill="#fff" d="M16.46 14.032c-.917-1.117-2.08-1.731-3.269-1.731s-2.351.614-3.268 1.731c-.827 1.004-1.318 2.269-1.318 3.383 0 .542.166.953.488 1.227.32.268.744.36 1.213.36.502 0 1.059-.103 1.606-.205.477-.088.93-.171 1.277-.171.301 0 .725.08 1.173.163 1.048.196 2.237.42 2.922-.155.325-.274.49-.682.49-1.216.006-1.117-.487-2.382-1.314-3.386zM16.553 7.967c-.336-.496-.816-.783-1.32-.783-.504 0-.984.287-1.32.783-.309.46-.48 1.06-.48 1.694 0 .634.171 1.238.48 1.694.336.5.82.784 1.32.784.504 0 .984-.287 1.32-.784.31-.459.48-1.06.48-1.694 0-.633-.17-1.234-.48-1.694zM12.467 7.967c-.336-.496-.816-.783-1.32-.783-.504 0-.983.287-1.32.783-.309.46-.48 1.06-.48 1.694 0 .634.171 1.238.48 1.694.337.5.82.784 1.32.784.502 0 .984-.287 1.32-.784.31-.459.48-1.06.48-1.694 0-.633-.17-1.234-.48-1.694zM19.937 11.86c-.136-.464-.427-.8-.819-.95a1.284 1.284 0 0 0-1.002.057c-.456.215-.83.657-1.024 1.216-.157.456-.179.94-.056 1.358.136.465.427.8.819.95.136.052.28.079.424.079.192 0 .389-.046.578-.135.456-.215.83-.658 1.024-1.216.16-.456.178-.937.056-1.358zM9.287 12.184c-.194-.558-.568-1.001-1.024-1.216a1.272 1.272 0 0 0-1.002-.056c-.39.147-.68.483-.816.947-.123.419-.104.902.056 1.359.195.558.568 1 1.024 1.216.19.088.386.134.578.134.147 0 .288-.027.424-.078.392-.148.683-.486.819-.95.12-.416.099-.9-.059-1.356z"/>
</svg>
