<svg xmlns="http://www.w3.org/2000/svg" width="27" height="27" fill="none" viewBox="0 0 27 27">
    <ellipse cx="13.5" cy="13.018" fill="#C4C4C4" rx="13.5" ry="13.018"/>
    <path fill="#fff" d="M19.648 17.13l-4.897-4.894-5.724-5.72h-.446l-.09.231c-.242.612-.347 1.239-.3 1.812.053.654.3 1.217.717 1.634l4.467 4.465.59-.59 4.131 4.615c.41.41 1.118.435 1.555 0a1.1 1.1 0 0 0-.003-1.553zM11.305 13.621l-3.499 3.5c-.429.428-.429 1.123 0 1.553.408.407 1.11.44 1.555 0l3.498-3.497-1.554-1.556zM19.442 8.593l-1.986 1.983-.518-.517 1.986-1.983-.517-.517-1.986 1.983-.517-.517 1.986-1.983-.52-.517-2.589 2.588a1.823 1.823 0 0 0-.532 1.182 1.029 1.029 0 0 1-.075.33l1.68 1.68c.106-.042.218-.069.33-.076a1.82 1.82 0 0 0 1.184-.532l2.588-2.587-.514-.517z"/>
</svg>
