<svg width="24" height="24" viewBox="0 0 24 24" fill="none" xmlns="http://www.w3.org/2000/svg">
<g clip-path="url(#clip0)">
<path d="M22.3411 1.65737C20.1156 -0.568082 16.5374 -0.568082 14.312 1.65737L10.2974 5.67192C9.94833 6.02101 9.94833 6.54464 10.2974 6.89374C10.6465 7.24283 11.1701 7.24283 11.5192 6.89374L15.5338 2.87919C16.2756 2.13737 17.2792 1.74464 18.3265 1.74464C19.3738 1.74464 20.3774 2.13737 21.1192 2.87919C21.8611 3.62101 22.2538 4.62464 22.2538 5.67192C22.2538 6.71919 21.8611 7.72283 21.1192 8.46464L15.8829 13.701C14.3556 15.2283 11.8683 15.2283 10.3411 13.701C9.99197 13.3519 9.46833 13.3519 9.11924 13.701C8.77015 14.0501 8.77015 14.5737 9.11924 14.9228C10.2101 16.0137 11.6938 16.581 13.1338 16.581C14.5738 16.581 16.0574 16.0137 17.1483 14.9228L22.3847 9.68646C23.432 8.63919 24.0429 7.19919 24.0429 5.67192C23.9992 4.14464 23.3883 2.70464 22.3411 1.65737Z" fill="#686565"/>
<path d="M11.8255 17.7159L8.42182 21.1195C7.72364 21.8177 6.72 22.254 5.67273 22.254C4.62545 22.254 3.62182 21.8613 2.88 21.1195C1.35273 19.5922 1.35273 17.105 2.88 15.5777L7.81091 10.6468C8.55273 9.90495 9.55636 9.51222 10.6036 9.51222C11.6509 9.51222 12.6545 9.90495 13.3964 10.6468C13.7455 10.9959 14.2691 10.9959 14.6182 10.6468C14.9673 10.2977 14.9673 9.77404 14.6182 9.42495C12.3927 7.1995 8.81455 7.1995 6.58909 9.42495L1.65818 14.3122C0.567273 15.3595 0 16.7995 0 18.3268C0 19.854 0.567273 21.2504 1.65818 22.3413C2.70545 23.3886 4.14545 23.9995 5.67273 23.9995C7.2 23.9995 8.59636 23.4322 9.68727 22.3413L13.0909 18.9377C13.44 18.5886 13.44 18.065 13.0909 17.7159C12.7418 17.3668 12.1745 17.3668 11.8255 17.7159Z" fill="#686565"/>
</g>
<defs>
<clipPath id="clip0">
<rect width="24" height="24" fill="white"/>
</clipPath>
</defs>
</svg>
