<svg xmlns="http://www.w3.org/2000/svg" width="24" height="24" viewBox="0 0 24 24">
    <defs>
        <linearGradient id="a" x1="0%" y1="4.442%" y2="95.558%">
            <stop offset="0%" stop-color="#FF7B2D"/>
            <stop offset="100%" stop-color="#E95484"/>
        </linearGradient>
    </defs>
    <path fill="url(#a)" fill-rule="evenodd" d="M12 17.99l-6.35 4.44a.385.385 0 0 1-.546-.11.42.42 0 0 1-.049-.35l2.26-7.378-6.153-4.628a.417.417 0 0 1-.087-.568.39.39 0 0 1 .311-.168l7.718-.134L11.63 1.77a.39.39 0 0 1 .74 0l2.526 7.324 7.718.134a.4.4 0 0 1 .386.414.412.412 0 0 1-.162.322l-6.153 4.628 2.26 7.378a.41.41 0 0 1-.256.51.382.382 0 0 1-.338-.05L12 17.99z"/>
</svg>
