<svg xmlns="http://www.w3.org/2000/svg" width="19" height="18" fill="none" viewBox="0 0 19 18">
    <g clip-path="url(#a)">
        <path fill="#fff" d="M9.872.245l2.726 5.441 6.03.86a.44.44 0 0 1 .372.45c0 .081-.041.163-.124.245l-4.378 4.295 1.032 6.014c.042.204-.123.45-.33.49-.083 0-.165 0-.248-.04L9.5 15.136 4.09 17.96c-.207.123-.455.04-.58-.164a.514.514 0 0 1-.04-.245l1.032-6.014L.124 7.282a.393.393 0 0 1 0-.573c.083-.082.165-.123.248-.123l6.071-.859L9.17.287C9.252.081 9.5 0 9.707.081c.04 0 .123.082.165.163z"/>
    </g>
    <defs>
        <clipPath id="a">
            <path fill="#fff" d="M0 0h19v18H0z"/>
        </clipPath>
    </defs>
</svg>
