<svg xmlns="http://www.w3.org/2000/svg" width="27" height="26" fill="none" viewBox="0 0 27 26">
    <ellipse cx="13.5" cy="13" fill="#C4C4C4" rx="13.5" ry="13"/>
    <path fill="#fff" d="M19.704 8.967h-8.359c-.283 0-.425.2-.34.484l1.332 3.906c.056.2.283.371.51.371h5.469a.556.556 0 0 0 .51-.37l1.161-3.992c.057-.228-.085-.4-.283-.4zM12.083 19.458a1.25 1.25 0 0 0 1.246-1.254 1.25 1.25 0 0 0-1.246-1.255 1.25 1.25 0 0 0-1.247 1.255 1.25 1.25 0 0 0 1.247 1.254zM17.38 19.487a1.25 1.25 0 0 0 1.246-1.254 1.25 1.25 0 0 0-1.246-1.255 1.25 1.25 0 0 0-1.247 1.255 1.25 1.25 0 0 0 1.247 1.254z"/>
    <path fill="#fff" d="M18.883 14.983h-7.31L8.625 6.516H6.359a.704.704 0 0 0-.709.712c0 .4.312.713.709.713h1.275l2.918 8.468h8.33a.704.704 0 0 0 .71-.713c0-.4-.312-.713-.71-.713z"/>
</svg>
