<svg xmlns="http://www.w3.org/2000/svg" width="16" height="18" fill="none" viewBox="0 0 16 18">
    <path fill="#70396d" d="M10.703 4.3h.517c.19 0 .345-.194.345-.43 0-.237-.155-.43-.345-.43h-.518c-.19 0-.345.193-.345.43 0 .236.156.43.346.43z"/>
    <path fill="#70396d" d="M15.81.473C15.69.172 15.448 0 15.19 0H.694c-.259 0-.5.194-.621.473-.121.301-.087.645.069.903l6.091 9.549v6.215c0 .322.138.602.362.752a.608.608 0 0 0 .328.108.582.582 0 0 0 .397-.15l1.916-1.656c.276-.258.43-.646.43-1.054v-4.237l6.075-9.527c.155-.258.19-.602.07-.903zM9.046 10.495a.54.54 0 0 0-.07.258v4.365a.51.51 0 0 1-.137.366L6.923 17.14v-6.387c0-.15-.052-.28-.138-.344L2.885 4.3H9.15c.19 0 .345-.193.345-.43s-.155-.43-.345-.43H2.35L.694.86h14.495l-6.143 9.634z"/>
</svg>
