<svg xmlns="http://www.w3.org/2000/svg" width="23" height="23" fill="none" viewBox="0 0 23 23">
    <path fill="#3F3F3F" d="M22.483 9.5l-2.636-.652a9.09 9.09 0 0 0-.606-1.45l1.226-2.049a.672.672 0 0 0-.103-.822l-1.905-1.904a.673.673 0 0 0-.822-.103L15.59 3.746a8.801 8.801 0 0 0-1.441-.602L13.5.508A.678.678 0 0 0 12.845 0H10.15c-.31 0-.579.211-.65.512 0 0-.45 1.841-.648 2.636a8.487 8.487 0 0 0-1.527.652L5.201 2.524a.673.673 0 0 0-.822.103L2.475 4.532a.673.673 0 0 0-.104.822L3.687 7.55c-.21.418-.39.853-.53 1.298l-2.636.651A.667.667 0 0 0 0 10.15v2.695c0 .31.211.58.512.651l2.636.652c.162.507.369 1.001.62 1.473l-1.177 1.963a.672.672 0 0 0 .104.821l1.904 1.905c.216.215.557.26.822.103l1.967-1.177c.467.252.957.454 1.46.616l.647 2.636c.076.3.345.512.65.512h2.696c.31 0 .579-.211.65-.512l.648-2.636a8.795 8.795 0 0 0 1.495-.634l1.994 1.2a.672.672 0 0 0 .822-.104l1.905-1.904c.22-.22.26-.557.103-.822l-1.213-2.017c.238-.453.436-.93.593-1.414l2.636-.647a.676.676 0 0 0 .512-.651v-2.695a.655.655 0 0 0-.503-.665zm-10.985 6.714a4.721 4.721 0 0 1-4.716-4.716c0-2.6 2.115-4.716 4.716-4.716 2.6 0 4.716 2.115 4.716 4.716 0 2.6-2.116 4.716-4.716 4.716z"/>
</svg>
