<svg width="31" height="25" viewBox="0 0 31 25" fill="none" xmlns="http://www.w3.org/2000/svg">
<g clip-path="url(#clip0)">
<path d="M28.5992 6.40039H27.7992V15.7004C27.7992 17.1004 26.9992 18.4004 25.2992 18.4004H8.69922V18.8004C8.69922 20.1004 10.0992 21.4004 11.5992 21.4004H24.1992L28.9992 24.2004L28.2992 21.4004H28.4992C29.9992 21.4004 30.6992 20.1004 30.6992 18.8004V8.60039C30.6992 7.40039 30.0992 6.40039 28.5992 6.40039Z" fill="#686565"/>
<path d="M22.8 0H3.6C1.9 0 0 1.5 0 2.9V14.5C0 15.8 1.6 16.8 3.2 16.9L2.2 20.8L8.8 17H22.8C24.5 17 26 16 26 14.5V5.2V2.9C26 1.5 24.4 0 22.8 0ZM6.5 9.8C5.5 9.8 4.8 9 4.8 8.1C4.8 7.2 5.6 6.4 6.5 6.4C7.5 6.4 8.2 7.2 8.2 8.1C8.2 9 7.5 9.8 6.5 9.8ZM13 9.8C12 9.8 11.3 9 11.3 8.1C11.3 7.2 12 6.3 13 6.3C14 6.3 14.7 7.1 14.7 8C14.7 8.9 14 9.8 13 9.8ZM19.5 9.8C18.5 9.8 17.8 9 17.8 8.1C17.8 7.2 18.6 6.4 19.5 6.4C20.5 6.4 21.2 7.2 21.2 8.1C21.2 9 20.4 9.8 19.5 9.8Z" fill="#686565"/>
</g>
<defs>
<clipPath id="clip0">
<rect width="30.7" height="24.3" fill="white"/>
</clipPath>
</defs>
</svg>
