<svg xmlns="http://www.w3.org/2000/svg" width="22" height="22" fill="none" viewBox="0 0 22 22">
    <path fill="#72B6B1" d="M11.43.43c0 .236-.194.43-.43.43a.431.431 0 0 1-.43-.43c0-.237.194-.43.43-.43s.43.193.43.43z"/>
    <path fill="#72B6B1" d="M13.007.192a.43.43 0 0 0-.503.34.427.427 0 0 0 .34.502c.485.095.966.228 1.434.4l-1.194 3.682a5.744 5.744 0 0 0-4.168 0L7.721 1.434c.469-.168.954-.3 1.436-.4a.43.43 0 0 0-.164-.842C3.957 1.176 0 5.748 0 11c0 5.904 5.027 11 11 11 5.985 0 11-5.11 11-11 0-5.212-3.919-9.814-8.993-10.807zm7.558 14.085l-3.683-1.194a5.744 5.744 0 0 0 0-4.168l3.683-1.195a9.63 9.63 0 0 1 0 6.557zm-.327-7.356l-3.72 1.207a6.787 6.787 0 0 0-2.648-2.646l1.208-3.722a10.507 10.507 0 0 1 5.16 5.161zm-3.824 4.078c0 2.827-2.56 5.414-5.414 5.414-2.827 0-5.414-2.557-5.414-5.414 0-2.845 2.574-5.414 5.414-5.414 2.827 0 5.414 2.556 5.414 5.414zM1.435 14.277a9.633 9.633 0 0 1 0-6.557l3.683 1.195a5.744 5.744 0 0 0 0 4.168l-3.683 1.194zM6.922 1.76L8.13 5.482a6.786 6.786 0 0 0-2.647 2.646L1.762 6.921a10.507 10.507 0 0 1 5.16-5.16zm-5.16 13.316l3.72-1.207a6.786 6.786 0 0 0 2.648 2.647l-1.208 3.721a10.507 10.507 0 0 1-5.16-5.16zm5.96 5.488l1.194-3.683a5.744 5.744 0 0 0 4.168 0l1.194 3.683a9.633 9.633 0 0 1-6.557 0zm7.356-.327l-1.208-3.721a6.786 6.786 0 0 0 2.647-2.647l3.721 1.207a10.507 10.507 0 0 1-5.16 5.161z"/>
    <path fill="#72B6B1" stroke="#72B6B1" d="M3.666 3.871l-2.037 3.26 3.87 1.018L8.147 5.5 6.721 1.834 3.666 3.871zM18.13 3.667l-3.056-1.833-1.222 3.667 2.851 2.648 3.667-1.222-2.24-3.26zM13.648 16.5l2.852-2.648 3.87 1.222-2.24 3.667-3.056 1.63-1.426-3.871zM8.147 16.5L5.5 13.852l-3.87 1.222 1.833 2.852 3.463 2.444 1.222-3.87z"/>
</svg>
