<svg xmlns="http://www.w3.org/2000/svg" width="27" height="27" fill="none" viewBox="0 0 27 27">
    <circle cx="13.5" cy="13.5" r="13.5" fill="#C4C4C4"/>
    <path fill="#fff" d="M13.674 21.025c.835 0 1.512-.68 1.512-1.517 0-.838-.677-1.518-1.512-1.518s-1.512.68-1.512 1.518.677 1.517 1.512 1.517zM21.835 10.495C19.61 8.24 16.727 7 13.717 7c-3.01 0-5.89 1.241-8.117 3.49a.924.924 0 0 0 .004 1.301.915.915 0 0 0 1.297-.005c1.878-1.898 4.297-2.947 6.816-2.947 2.515 0 4.939 1.049 6.817 2.947.179.18.417.272.65.272a.918.918 0 0 0 .65-1.563zM18.17 14.303c-1.192-1.187-2.9-1.922-4.458-1.922h-.064c-1.558 0-3.267.736-4.458 1.922a.924.924 0 0 0-.004 1.301c.178.18.417.271.65.271a.907.907 0 0 0 .646-.266c.848-.846 2.094-1.389 3.17-1.389h.064c1.077 0 2.323.547 3.17 1.389a.916.916 0 0 0 1.297-.005.932.932 0 0 0-.014-1.301z"/>
</svg>
