<svg xmlns="http://www.w3.org/2000/svg" width="66" height="66" fill="none" viewBox="0 0 66 66">
    <path fill="url(#a)" d="M33 5.981c8.766 0 9.9 0 13.303.207 3.713.206 7.219.928 9.9 3.609s3.403 6.187 3.61 9.9c.206 3.506.206 4.537.206 13.303 0 8.766 0 9.9-.206 13.303-.207 3.713-.929 7.219-3.61 9.9s-6.187 3.403-9.9 3.61c-3.506.206-4.537.206-13.303.206-8.766 0-9.9 0-13.303-.206-3.713-.207-7.219-.929-9.9-3.61s-3.403-6.187-3.61-9.9C5.981 42.9 5.981 41.766 5.981 33c0-8.766 0-9.9.207-13.303.206-3.713.928-7.219 3.609-9.9s6.187-3.403 9.9-3.61C23.1 5.981 24.234 5.981 33 5.981zM33 0c-8.972 0-10.106 0-13.613.206C14.025.412 9.281 1.753 5.57 5.57 1.753 9.28.412 14.025.206 19.388 0 22.893 0 24.027 0 33c0 8.972 0 10.106.206 13.612.206 5.363 1.547 10.107 5.363 13.82 3.815 3.815 8.456 5.052 13.819 5.362C22.893 66 24.027 66 33 66c8.972 0 10.106 0 13.612-.206 5.363-.206 10.107-1.547 13.82-5.363 3.815-3.815 5.052-8.456 5.362-13.819C66 43.106 66 41.972 66 33c0-8.972 0-10.106-.206-13.613-.206-5.362-1.547-10.106-5.363-13.818C56.72 1.753 51.975.412 46.612.206 43.106 0 41.972 0 33 0z"/>
    <path fill="url(#b)" d="M33 16.087c-9.384 0-16.913 7.632-16.913 16.913S23.616 49.913 33 49.913A16.857 16.857 0 0 0 49.912 33 16.857 16.857 0 0 0 33 16.087zm0 27.947c-6.084 0-11.035-4.95-11.035-11.034 0-6.084 4.95-11.034 11.035-11.034 6.084 0 11.034 4.95 11.034 11.034 0 6.084-4.95 11.034-11.034 11.034z"/>
    <path fill="url(#c)" d="M50.634 19.284a3.919 3.919 0 1 0 0-7.837 3.919 3.919 0 0 0 0 7.837z"/>
    <defs>
        <linearGradient id="a" x1="33" x2="33" y2="66" gradientUnits="userSpaceOnUse">
            <stop stop-color="#F1000C"/>
            <stop offset=".464" stop-color="#D7005B"/>
            <stop offset="1" stop-color="#BC00AB"/>
        </linearGradient>
        <linearGradient id="b" x1="33" x2="33" y1="16.087" y2="49.913" gradientUnits="userSpaceOnUse">
            <stop stop-color="#F1000C"/>
            <stop offset=".464" stop-color="#D7005B"/>
            <stop offset="1" stop-color="#BC00AB"/>
        </linearGradient>
        <linearGradient id="c" x1="50.634" x2="50.634" y1="11.447" y2="19.284" gradientUnits="userSpaceOnUse">
            <stop stop-color="#F1000C"/>
            <stop offset=".464" stop-color="#D7005B"/>
            <stop offset="1" stop-color="#BC00AB"/>
        </linearGradient>
    </defs>
</svg>
