<?xml version="1.0" encoding="UTF-8"?>
<svg width="32px" height="38px" viewBox="0 0 32 38" version="1.1" xmlns="http://www.w3.org/2000/svg" xmlns:xlink="http://www.w3.org/1999/xlink">
    <!-- Generator: Sketch 52.2 (67145) - http://www.bohemiancoding.com/sketch -->
    <title>logo_apple</title>
    <desc>Created with Sketch.</desc>
    <g id="Symbols" stroke="none" stroke-width="1" fill="none" fill-rule="evenodd">
        <g id="Footer-Copy" transform="translate(-966.000000, -66.000000)" fill="#FFFFFF">
            <g id="Appstore" transform="translate(948.000000, 57.000000)">
                <g id="logo_apple" transform="translate(18.000000, 9.000000)">
                    <path d="M26.7273321,20.1056761 C26.6826223,15.2772538 30.79592,12.9282106 30.9840093,12.8188483 C28.6544768,9.51850253 25.0437784,9.06757013 23.7749464,9.03161539 C20.7423914,8.72150574 17.8007977,10.7948959 16.2559985,10.7948959 C14.680365,10.7948959 12.3014976,9.06157768 9.73762427,9.11251356 C6.43835252,9.16195133 3.35183754,11.0181149 1.65903363,13.9004868 C-1.83449431,19.777589 0.771005343,28.4142178 4.11807028,33.1647382 C5.79237361,35.4928077 7.74881092,38.0890398 10.3096008,37.9976548 C12.8148889,37.8987793 13.7507104,36.4456084 16.774015,36.4456084 C19.7695688,36.4456084 20.6483468,37.9976548 23.2600133,37.9377302 C25.9487656,37.8987793 27.6415695,35.6021701 29.2572876,33.2531269 C31.1921409,30.5894797 31.9691657,27.9602892 32,27.8254589 C31.9383314,27.8059834 26.7797504,25.8928915 26.7273321,20.1056761" id="Fill-2"></path>
                    <path d="M21.9303471,6.24677416 C23.2866196,4.5769957 24.2145956,2.30530257 23.9569969,0 C21.9939708,0.0855513214 19.5390244,1.3367394 18.1253353,2.96985301 C16.8745851,4.40894846 15.7572896,6.7677206 16.0459243,8.98594415 C18.251031,9.14788058 20.5151061,7.8905817 21.9303471,6.24677416" id="Fill-3"></path>
                </g>
            </g>
        </g>
    </g>
</svg>
