<svg xmlns="http://www.w3.org/2000/svg" width="182" height="36" viewBox="0 0 182 36">
    <g fill="#1C0920" fill-rule="evenodd">
        <path d="M6 22.653l2.177-1.298c1.533 2.79 3.301 4.185 5.306 4.185.864 0 1.676-.199 2.436-.598.76-.399 1.336-.928 1.728-1.589.392-.66.588-1.366.588-2.118 0-.843-.288-1.674-.864-2.494-.807-1.127-2.276-2.278-4.407-3.45-2.143-1.595-3.468-2.75-3.974-3.468-.91-1.185-1.366-2.477-1.366-3.878 0-1.105.265-2.107.795-3.007.53-.9 1.282-1.614 2.255-2.144A6.532 6.532 0 0 1 13.846 2c1.197 0 2.32.299 3.37.897 1.048.597 2.16 1.688 3.335 3.271L18.46 7.723c-.957-1.253-1.775-2.081-2.454-2.486a4.284 4.284 0 0 0-2.23-.606c-1.025 0-1.866.31-2.523.93a3.018 3.018 0 0 0-.985 2.281c0 .547.116 1.082.346 1.606.23.524.657 1.082 1.279 1.674.334.33 1.44 1.179 3.318 2.546 2.212 1.616 3.73 2.955 4.553 4.014.824 1.06 1.236 2.22 1.236 3.485 0 1.845-.706 3.445-2.117 4.8C17.472 27.323 15.758 28 13.742 28c-1.567 0-2.984-.41-4.251-1.23C8.223 25.95 7.06 24.578 6 22.653"/>
        <path d="M21.89 21.45a7.05 7.05 0 0 1-.587 2.399h2.877c-.341 2.293-1.415 4.161-3.221 5.604-1.806 1.443-4.007 2.164-6.605 2.164-2.142 0-4.116-.478-5.92-1.434-1.807-.957-3.222-2.277-4.247-3.96-1.026-1.683-1.538-3.465-1.538-5.344 0-1.477.495-3.031 1.486-4.665.983-1.618 2.36-2.905 4.13-3.865-.013-.019-.032-.04-.045-.058A7.308 7.308 0 0 1 7.012 10c-.081.042-.165.08-.245.124-2.108 1.152-3.762 2.65-4.964 4.496C.6 16.466 0 18.57 0 20.93c0 3.165 1.054 5.956 3.161 8.372C5.896 32.434 9.598 34 14.27 34c3.873 0 6.958-1.13 9.253-3.39 2.296-2.259 3.455-5.312 3.478-9.16h-5.11M12.182 10.042c.083.086.267.256.679.596.227-.013.455-.022.685-.022 1.595 0 3.227.371 4.895 1.114 1.67.742 3.205 1.832 4.608 3.27L25 13.073c-1.799-1.767-3.637-3.055-5.515-3.862C17.607 8.404 15.605 8 13.478 8c-.855 0-1.68.07-2.478.199.04.147.086.295.148.443.172.414.52.885 1.034 1.4M54.675 13.01l-1.208 1.142c-.868-.853-1.818-1.5-2.85-1.94-1.033-.44-2.042-.66-3.029-.66-1.218 0-2.378.3-3.48.901-1.103.602-1.958 1.413-2.567 2.433-.61 1.02-.914 1.992-.914 2.915 0 1.174.315 2.287.945 3.34a6.655 6.655 0 0 0 2.61 2.474c1.108.597 2.321.896 3.637.896 1.596 0 2.948-.45 4.058-1.352 1.109-.902 1.769-2.07 1.979-3.502H48.89v-1.5h6.698c-.014 2.405-.726 4.313-2.136 5.725C52.042 25.294 50.146 26 47.767 26c-2.87 0-5.145-.978-6.825-2.936C39.647 21.554 39 19.81 39 17.832c0-1.474.37-2.789 1.108-3.942.738-1.153 1.755-2.09 3.05-2.81 1.294-.72 2.757-1.08 4.388-1.08 1.316 0 2.555.24 3.717.718 1.161.48 2.299 1.243 3.412 2.291zm7.078-2.737h1.564v14.05h5.985v1.499h-7.549v-15.55zm19.404 3.292l-2.688 5.64h5.334l-2.646-5.64zm.189-3.292L88.6 25.822h-1.66l-2.445-5.127h-6.72l-2.425 5.127h-1.743l7.36-15.55h.378zm12.18 15.59l2.216-15.548h.252l6.33 12.75 6.258-12.75h.252l2.247 15.549h-1.544l-1.522-11.125-5.501 11.125h-.4L96.54 14.666l-1.512 11.198h-1.501zm22.229-3.145l1.323-.797c.93 1.713 2.005 2.57 3.223 2.57.525 0 1.018-.123 1.48-.368.462-.244.812-.57 1.05-.975s.357-.839.357-1.3c0-.517-.175-1.028-.525-1.53-.49-.693-1.382-1.399-2.677-2.119-1.302-.978-2.107-1.688-2.415-2.128-.553-.727-.83-1.52-.83-2.38 0-.678.161-1.293.484-1.846.321-.552.778-.99 1.37-1.315a3.936 3.936 0 0 1 1.926-.488c.728 0 1.41.183 2.047.55.637.367 1.313 1.037 2.027 2.008l-1.27.954c-.582-.768-1.079-1.277-1.491-1.525a2.584 2.584 0 0 0-1.355-.372c-.623 0-1.134.19-1.533.571a1.86 1.86 0 0 0-.598 1.4c0 .335.07.664.21.985.14.322.399.665.777 1.028.203.203.875.723 2.016 1.562 1.343.993 2.265 1.814 2.766 2.464.5.65.75 1.363.75 2.139 0 1.132-.428 2.115-1.285 2.946-.858.832-1.9 1.248-3.124 1.248a4.617 4.617 0 0 1-2.582-.755c-.77-.503-1.477-1.345-2.121-2.527zm14.07-10.894v-1.51h8.546v1.51h-3.485v14.04H133.3v-14.04h-3.475zm12.769-1.51h1.806l3.979 6.396 3.905-6.395h1.796l-4.924 8.115v7.434h-1.533V18.43l-5.03-8.115zm17.252-.041h1.564v14.05h5.985v1.499h-7.55v-15.55zm13.23.042H182v1.53h-7.37v4.865h4.493v1.51h-4.492v6.102h7.306v1.542h-8.86v-15.55z"/>
    </g>
</svg>
