<svg xmlns="http://www.w3.org/2000/svg" width="47" height="58" fill="none" viewBox="0 0 47 58">
    <path fill="#70396D" d="M38.212 42.382c-4.536 6.482-14.633 14.06-14.633 14.06l-7.094-5.273s-5.535-6.142-8.424-10.545c-3.082-4.697-5.67-7.225-6.651-12.742-.97-5.45-.706-9.103 1.773-14.061C5.74 8.711 8.58 6.063 13.825 3.715c4.307-1.928 7.27-2.237 11.972-1.758 4.576.467 7.394 1.231 11.084 3.955 3.778 2.788 5.381 5.319 7.095 9.667 1.774 4.5 1.985 7.514 1.33 12.303-.853 6.236-3.476 9.328-7.094 14.5z"/>
    <path fill="#70396D" d="M23.488 0C10.54 0 0 10.433 0 23.249c0 1.459.135 2.93.418 4.365.012.085.061.34.16.778a22.737 22.737 0 0 0 1.572 4.584c2.53 5.897 8.095 14.956 20.306 24.66a1.679 1.679 0 0 0 2.088 0c12.199-9.704 17.776-18.763 20.306-24.66a22.475 22.475 0 0 0 1.732-5.362c.27-1.435.418-2.906.418-4.365C46.975 10.433 36.435 0 23.488 0zM43.29 27.042c0 .025-.012.049-.012.073-.012.061-.05.244-.11.523v.024a19.17 19.17 0 0 1-1.364 3.964c-.013.013-.013.037-.025.05-2.297 5.386-7.334 13.605-18.291 22.567C12.53 45.28 7.493 37.062 5.196 31.675c-.012-.012-.012-.036-.024-.049a20.45 20.45 0 0 1-1.364-3.963v-.025c-.074-.28-.098-.462-.11-.523 0-.024-.013-.048-.013-.085a19.661 19.661 0 0 1-.368-3.794c0-11.004 9.053-19.965 20.17-19.965 11.118 0 20.172 8.961 20.172 19.965 0 1.29-.123 2.566-.369 3.806z"/>
</svg>
