<svg xmlns="http://www.w3.org/2000/svg" width="20" height="23" fill="none" viewBox="0 0 20 23">
    <path fill="#686565" d="M14.515 1.62h-2.914a1.195 1.195 0 0 0-1.125-.81H9.65A2.01 2.01 0 0 0 8.053 0a2.01 2.01 0 0 0-1.596.81H5.63c-.52 0-.963.341-1.124.81H1.592C.713 1.62 0 2.335 0 3.216v17.009c0 .88.713 1.596 1.592 1.596h8.077a.38.38 0 0 0 0-.758H1.592a.834.834 0 0 1-.832-.833V3.216c0-.46.374-.834.832-.834h2.853v1.241c0 .209.17.38.378.38h6.461a.38.38 0 0 0 .378-.38V2.378h2.853c.458 0 .831.374.831.833v9.053c0 .208.17.379.378.379a.38.38 0 0 0 .378-.38V3.217a1.588 1.588 0 0 0-1.587-1.596zm-3.609 1.62H5.2V2.004c0-.237.194-.431.43-.431h1.03a.37.37 0 0 0 .326-.19c.227-.388.623-.62 1.063-.62.439 0 .84.232 1.062.62.067.118.194.19.326.19h1.03c.236 0 .43.194.43.43v.005l.01 1.232z"/>
    <path fill="#686565" d="M11.617 7.072H3.409a.38.38 0 0 0 0 .758h8.21a.38.38 0 0 0 0-.758zM17.274 19.994L15.7 18.416v-2.543a.38.38 0 0 0-.378-.379.38.38 0 0 0-.378.379v2.7c0 .1.038.199.109.27l1.681 1.686a.39.39 0 0 0 .538 0 .38.38 0 0 0 0-.535z"/>
    <path fill="#686565" d="M15.322 14.143c-2.438 0-4.417 1.99-4.417 4.428 0 2.44 1.984 4.429 4.417 4.429 2.432 0 4.416-1.99 4.416-4.429s-1.98-4.428-4.416-4.428zm0 8.104a3.672 3.672 0 0 1 0-7.342 3.672 3.672 0 0 1 0 7.342zM7.447 12.12H3.408a.38.38 0 0 0 0 .758h4.039a.38.38 0 0 0 0-.758zM11.617 9.5H3.409a.38.38 0 0 0 0 .757h8.21a.38.38 0 0 0 0-.757z"/>
</svg>
