<?xml version="1.0" encoding="UTF-8"?>
<svg width="200px" height="59px" viewBox="0 0 200 59" version="1.1" xmlns="http://www.w3.org/2000/svg" xmlns:xlink="http://www.w3.org/1999/xlink">
    <!-- Generator: Sketch 52.2 (67145) - http://www.bohemiancoding.com/sketch -->
    <title>Playstore</title>
    <desc>Created with Sketch.</desc>
    <defs>
        <linearGradient x1="50%" y1="0%" x2="50%" y2="38.9125982%" id="linearGradient-1">
            <stop stop-color="#FBDA09" offset="0%"></stop>
            <stop stop-color="#FFBC00" offset="100%"></stop>
        </linearGradient>
        <path d="M14.9008881,3.52588244 C16.0601248,1.49199874 17.9389324,1.4907464 19.0989166,3.52588244 L35.5094273,32.3173278 C36.6686977,34.3512115 35.7031725,36 33.3720584,36 L0.628283788,36 C-1.71142284,36 -2.66909655,34.3524638 -1.50914604,32.3173278 L14.9008881,3.52588244 Z" id="path-2"></path>
        <linearGradient x1="0%" y1="58.4755255%" x2="69.3064856%" y2="39.0830098%" id="linearGradient-4">
            <stop stop-color="#01E2FF" offset="0%"></stop>
            <stop stop-color="#01C4FF" offset="100%"></stop>
        </linearGradient>
        <linearGradient x1="20.2810876%" y1="20.1019903%" x2="83.820166%" y2="83.6214476%" id="linearGradient-5">
            <stop stop-color="#28D781" offset="0%"></stop>
            <stop stop-color="#02F076" offset="100%"></stop>
        </linearGradient>
        <linearGradient x1="74.4881466%" y1="17.4301299%" x2="10.1079427%" y2="91.1838038%" id="linearGradient-6">
            <stop stop-color="#F2414E" offset="0%"></stop>
            <stop stop-color="#E02554" offset="100%"></stop>
        </linearGradient>
    </defs>
    <g id="Symbols" stroke="none" stroke-width="1" fill="none" fill-rule="evenodd">
        <g id="Footer-Copy" transform="translate(-1176.000000, -57.000000)">
            <g id="Playstore" transform="translate(1176.000000, 57.000000)">
                <rect id="background" stroke-opacity="0.2" stroke="#FFFFFF" stroke-width="1.34498991" fill="#000000" x="0.672494956" y="0.672494956" width="198.65501" height="57.6550101" rx="6.72494956"></rect>
                <g id="get-it-on" transform="translate(61.000000, 10.000000)" fill="#FFFFFF">
                    <path d="M45,10 C42.2385763,10 40,7.76142375 40,5 C40,2.23857625 42.2385763,0 45,0 C47.7614237,0 50,2.23857625 50,5 C50,7.76142375 47.7614237,10 45,10 Z M44.5,8 C46.4329966,8 48,6.43299662 48,4.5 C48,2.56700338 46.4329966,1 44.5,1 C42.5670034,1 41,2.56700338 41,4.5 C41,6.43299662 42.5670034,8 44.5,8 Z" id="o"></path>
                    <path d="M11,4 L15,4 L15,5 L11,5 L11,8 L15,8 L15,9 L11,9 L10,9 L10,0 L11,0 L15,0 L15,1 L11,1 L11,4 Z" id="e"></path>
                    <path d="M20,1 L20,9 L19,9 L19,1 L17,1 L17,0 L23,0 L23,1 L20,1 Z" id="t"></path>
                    <path d="M33,1 L33,9 L32,9 L32,1 L30,1 L30,0 L36,0 L36,1 L33,1 Z" id="t"></path>
                    <rect id="i" x="28" y="0" width="1" height="9"></rect>
                    <path d="M52,0 L52.4807692,0 L57,7.36933798 L57,0 L58,0 L58,9 L57,9 L56.5192308,9 L52,1.63066202 L52,9 L51,9 L51,0 L52,0 Z" id="n"></path>
                    <g id="g">
                        <polygon id="Rectangle-1" points="5 4 9 4 8.96039604 5 5 5"></polygon>
                        <path d="M8.05395384,1.29328875 L7.18659208,2.0620292 C6.57584248,1.37766957 5.66413424,1 4.60097204,1 C2.6122101,1 1,2.56700338 1,4.5 C1,6.43299662 2.6122101,8 4.60097204,8 C6.58973399,8 8.00172556,6.88250411 7.99876424,4.5 C8.00269562,4.32790939 7.99721295,4.16116638 7.98279865,4 L9.19019146,4 C9.19807934,4.11845071 9.20207579,4.23889027 9.20207579,4.36122842 C9.64716696,7.61602088 7.42131945,9.49016723 4.75265246,9.46621772 C2.12783751,9.46246955 0,7.3471327 0,4.73310886 C0,2.11908502 2.12783498,0 4.75265246,0 C6.11741659,0 7.26584818,0.472346541 8.05395384,1.29328875 Z" id="Oval-1"></path>
                    </g>
                </g>
                <g id="googleplay" transform="translate(61.000000, 26.000000)" fill="#FFFFFF">
                    <g id="big-P" transform="translate(84.000000, 1.000000)">
                        <path d="M1,4.71281511e-07 L8.625137,0 C8.625137,0 13.0147182,0.7445712 13.0147178,5.76990482 C13.0147175,10.7952384 8.625137,11.5398096 8.625137,11.5398096 L1,11.5398101 L1,4.71281511e-07 Z M2.4794889,2.79135876 L2.4794889,8.98409091 L7.65580444,8.98409091 C7.65580444,8.98409091 10.0114324,8.98409091 10.0114324,5.88772483 C10.0114324,2.79135876 7.65580444,2.79135876 7.65580444,2.79135876 L2.4794889,2.79135876 Z" id="Combined-Shape"></path>
                        <rect id="Rectangle-6" x="0" y="0" width="3" height="19"></rect>
                    </g>
                    <rect id="y" x="98" y="1" width="3" height="19"></rect>
                    <path d="M111,17.5570546 C110.292399,18.2136775 109.111458,18.8619493 107.170005,18.9868554 C103.004671,19.2548381 103.002501,15.339375 103.002501,15.0753376 C103.002501,14.8113002 102.797052,11.6181933 106.110466,11.1106309 C108.085156,10.8081397 109.561902,11.1844363 110.432855,11.5378866 C110.247408,10.8211334 109.677868,9.52061437 107.986407,9.52061437 C105.65154,9.52061437 105.135923,10.8119825 105.135923,10.8119825 L103,9.52061437 C103,9.52061437 104.195224,7 107.781567,7 C111.980169,7 112.898603,9.78935888 112.99163,11 L114,11 L114,19 L111,19 L111,17.5570546 Z M110.936037,14.2864127 C110.936037,14.2864127 106.169919,13.0919905 106.004244,15.58147 C105.838568,18.0709495 110.576661,16.8755726 111,15.1108107 C111,14.5496248 110.936037,14.2864127 110.936037,14.2864127 Z" id="a"></path>
                    <path d="M118.546439,18.0709823 L114,7 L116.704779,7 L119.92913,14.8515824 L123.301286,7 L126,7 L118.698714,24 L116,24 L118.546439,18.0709823 Z" id="y"></path>
                    <path d="M77.7317212,11.7904857 L69.2241267,15.2958223 C69.2241267,15.2958223 69.7735785,17.2346184 72.3314479,17.2476131 C74.3343549,17.2577883 75.4650074,15.4777076 75.4650074,15.4777076 L77.6234983,16.9350664 C77.6234983,16.9350664 75.8817145,19.7435148 72.3144461,19.7435148 C67.9307651,19.7435148 66,15.9219727 66,13.4401372 C66,11.0489527 67.532531,7 72.0424176,7 C76.5523042,7 77.7317212,11.7904857 77.7317212,11.7904857 Z M75,10.471477 C75,10.471477 73.8860116,8.71611534 72.1775474,9.03984282 C68.5636034,9.72462916 69.0183876,13 69.0183876,13 L75,10.471477 Z" id="e"></path>
                    <rect id="i" x="62" y="1" width="3" height="19"></rect>
                    <path d="M57.5682442,7.40713524 L60.1989433,7.42979269 L60.1989433,19.2499236 C60.1989433,22.2699347 58.3954464,25.4578461 54.1495779,25.4578461 C49.9037093,25.4578461 48.5324501,21.7073668 48.5324501,21.7073668 L50.9485016,20.6943545 C50.9485016,20.6943545 51.6853818,23.0057722 54.2751295,23.0057691 C57.2242851,23.0057656 57.5685712,20.3308279 57.5685712,19.4151889 L57.5685712,18.1324309 C57.5685712,18.1324309 56.5481372,19.7246756 54.0135636,19.7246791 C51.2655686,19.7246829 48,17.3774078 48,13.3757692 C48,9.37413056 51.0749524,7.08523815 54.0453602,7.00197909 C56.4246294,6.93528935 57.5682442,8.57619972 57.5682442,8.57619972 L57.5682442,7.40713524 Z M54.5,17 C56.4329966,17 58,15.209139 58,13 C58,10.790861 56.4329966,9 54.5,9 C52.5670034,9 51,10.790861 51,13 C51,15.209139 52.5670034,17 54.5,17 Z" id="g"></path>
                    <path d="M40.4031333,19.7386364 C36.8667804,19.7386364 34,16.8869955 34,13.3693182 C34,9.85164088 36.8667804,7 40.4031333,7 C43.9394862,7 46.8062666,9.85164088 46.8062666,13.3693182 C46.8062666,16.8869955 43.9394862,19.7386364 40.4031333,19.7386364 Z M40.5,17 C42.4329966,17 44,15.209139 44,13 C44,10.790861 42.4329966,9 40.5,9 C38.5670034,9 37,10.790861 37,13 C37,15.209139 38.5670034,17 40.5,17 Z" id="o"></path>
                    <path d="M26.4031333,19.7386364 C22.8667804,19.7386364 20,16.8869955 20,13.3693182 C20,9.85164088 22.8667804,7 26.4031333,7 C29.9394862,7 32.8062666,9.85164088 32.8062666,13.3693182 C32.8062666,16.8869955 29.9394862,19.7386364 26.4031333,19.7386364 Z M26.5,17 C28.4329966,17 30,15.209139 30,13 C30,10.790861 28.4329966,9 26.5,9 C24.5670034,9 23,10.790861 23,13 C23,15.209139 24.5670034,17 26.5,17 Z" id="o"></path>
                    <g id="big-g">
                        <polygon id="Rectangle-1" points="10 9 18 9 17.9207921 12 10 12"></polygon>
                        <path d="M16.9502015,2.84741078 L15.0613985,4.80045876 C13.8512437,3.63678098 12.1542756,3 10.2019441,3 C6.2244202,3 3,6.13400675 3,10 C3,13.8659932 6.2244202,17 10.2019441,17 C14.179468,17 17.0034511,14.7650082 16.9975285,10 C17.0053912,9.65581878 16.9944259,9.32233276 16.9655973,9 L19.203977,9 C19.2042136,9.03028069 19.2043321,9.06061792 19.2043321,9.09101136 C20.133218,15.8756492 15.487971,19.7823204 9.91857904,19.7323975 C4.44070438,19.7245844 0,15.3151499 0,9.86619875 C0,4.41724764 4.4406991,0 9.91857904,0 C12.8498323,0 15.3028961,1.04286666 16.9502015,2.84741078 Z" id="Oval-1"></path>
                    </g>
                </g>
                <g id="logo_play" transform="translate(15.000000, 10.000000)">
                    <mask id="mask-3" fill="white">
                        <use xlink:href="#path-2"></use>
                    </mask>
                    <use id="yellow" fill="url(#linearGradient-1)" transform="translate(17.000000, 19.000000) rotate(-270.000000) translate(-17.000000, -19.000000) " xlink:href="#path-2"></use>
                    <polygon id="blue" fill="url(#linearGradient-4)" mask="url(#mask-3)" points="0.242283877 0 19 18.6317902 0 38"></polygon>
                    <polygon id="green" fill="url(#linearGradient-5)" mask="url(#mask-3)" points="-4 -4 18.3539193 18 25 11.7252124"></polygon>
                    <polygon id="red" fill="url(#linearGradient-6)" mask="url(#mask-3)" points="18.6231008 19 29 29.5 -2 40"></polygon>
                </g>
            </g>
        </g>
    </g>
</svg>