<svg xmlns="http://www.w3.org/2000/svg" width="23" height="24" fill="none" viewBox="0 0 23 24">
    <g stroke="#FC4945" stroke-linecap="square" stroke-miterlimit="10" stroke-width="1.5" clip-path="url(#a)">
        <path d="M11.52 15.6c1.968 0 3.563-1.612 3.563-3.6s-1.595-3.6-3.563-3.6c-1.968 0-3.563 1.612-3.563 3.6s1.595 3.6 3.563 3.6z"/>
        <path d="M19.833 12c0-.6-.08-1.2-.198-1.8l2.85-2.16-2.098-3.64-3.285 1.4c-.871-.84-1.94-1.44-3.088-1.8L13.578.4H9.422l-.436 3.56c-1.148.36-2.217 1-3.088 1.8l-3.285-1.4L.515 8l2.85 2.16a7.898 7.898 0 0 0 0 3.6l-2.85 2.16 2.098 3.64 3.285-1.4c.871.84 1.94 1.44 3.088 1.8l.436 3.56h4.156l.436-3.56c1.148-.36 2.217-1 3.088-1.8l3.285 1.4 2.098-3.64-2.81-2.16c.119-.56.158-1.16.158-1.76z"/>
    </g>
    <defs>
        <clipPath id="a">
            <path fill="#fff" d="M0 0h23v24H0z"/>
        </clipPath>
    </defs>
</svg>
