<svg width="22" height="21" viewBox="0 0 22 21" fill="none" xmlns="http://www.w3.org/2000/svg">
<g clip-path="url(#clip0)">
<path d="M11.3305 0.286325L14.4594 6.63405L21.381 7.63633C21.6655 7.68405 21.8077 7.92269 21.8077 8.16133C21.8077 8.25678 21.7603 8.35223 21.6655 8.44769L16.6402 13.4591L17.8254 20.475C17.8728 20.7136 17.6832 21 17.4462 21.0477C17.3513 21.0477 17.2565 21.0477 17.1617 21L10.9038 17.6591L4.69339 20.9522C4.45635 21.0954 4.17191 21 4.02968 20.7613C3.98227 20.6659 3.98227 20.5704 3.98227 20.475L5.16747 13.4591L0.142224 8.49542C-0.047408 8.30451 -0.047408 8.01814 0.142224 7.82723C0.23704 7.73178 0.331856 7.68405 0.426672 7.68405L7.39565 6.68178L10.5246 0.334053C10.6194 0.0954164 10.9038 -3.81451e-05 11.1409 0.0954164C11.1883 0.0954164 11.2831 0.190871 11.3305 0.286325Z" fill="#FC4945"/>
</g>
<defs>
<clipPath id="clip0">
<rect width="21.8077" height="21" fill="white"/>
</clipPath>
</defs>
</svg>
