<?xml version="1.0" encoding="UTF-8"?>
<svg width="82px" height="82px" viewBox="0 0 82 82" version="1.1" xmlns="http://www.w3.org/2000/svg" xmlns:xlink="http://www.w3.org/1999/xlink">
    <!-- Generator: Sketch 52.2 (67145) - http://www.bohemiancoding.com/sketch -->
    <title>Buttons/btn_google_login</title>
    <desc>Created with Sketch.</desc>
    <g id="iGlam" stroke="none" stroke-width="1" fill="none" fill-rule="evenodd">
        <g id="1.-Đăng-nhập" transform="translate(-1073.000000, -616.000000)">
            <g id="Login-2" transform="translate(214.000000, 174.000000)">
                <g id="Group-12" transform="translate(615.000000, 155.000000)">
                    <g id="Group-10" transform="translate(61.000000, 248.000000)">
                        <g id="Group-6" transform="translate(13.000000, 40.000000)">
                            <g id="Buttons/btn_google_login" transform="translate(171.000000, 0.000000)">
                                <circle id="Oval-Copy" stroke="#786D7A" fill-rule="nonzero" cx="40" cy="40" r="40"></circle>
                                <g id="icons/ic_google" transform="translate(25.000000, 25.000000)" fill="#392E3B" fill-rule="evenodd">
                                    <g id="search">
                                        <path d="M6.48197334,18.7515379 C7.89802471,21.8015935 10.9884054,23.9167969 14.5728125,23.9167969 C16.2161914,23.9167969 17.7558008,23.4725391 19.0769141,22.6969922 C20.8308594,21.6684375 22.2014844,20.0588086 22.9234766,18.1318945 L14.9025781,18.1318945 L14.9025781,12.1978125 L23.0404883,12.1978125 L29.3107227,12.1978125 C29.4829883,13.1051953 29.5728125,14.0422852 29.5728125,15 C29.5728125,16.0739063 29.4599023,17.1214453 29.2448047,18.1318945 C28.5146094,21.5703516 26.6066211,24.5728125 23.9635156,26.6975391 L23.963457,26.6975391 C21.3928906,28.7637305 18.1274609,30 14.5728125,30 C8.86044922,30 3.89398438,26.807168 1.36044922,22.1085352 L1.65886312,21.8642603 C0.59842132,19.8073488 2.54907206e-13,17.4738298 2.54907206e-13,15 C2.54907206e-13,12.6111091 0.5579734,10.352956 1.5520435,8.34824799 L1.25082031,8.10164063 L1.25,8.10164063 C3.74644531,3.28845703 8.77554688,9.68114477e-14 14.5728125,9.68114477e-14 C18.2123633,9.68114477e-14 21.5494531,1.29644531 24.1472656,3.45328125 L19.2879102,7.4315625 C17.920625,6.57691406 16.304375,6.08320313 14.5728125,6.08320313 C10.8596482,6.08320313 7.6764711,8.35328624 6.33490298,11.5812286 L6.56449219,12.1021875 C6.25294922,13.0104492 6.08314453,13.9854492 6.08314453,15 C6.08326172,16.1010938 6.28271484,17.1560742 6.64863281,18.129375 L6.48197334,18.7515379 Z" id="Combined-Shape" fill-rule="nonzero"></path>
                                    </g>
                                </g>
                            </g>
                        </g>
                    </g>
                </g>
            </g>
        </g>
    </g>
</svg>
