<svg xmlns="http://www.w3.org/2000/svg" width="34" height="34" fill="none" viewBox="0 0 34 34">
    <rect width="34" height="34" fill="#DE4D3B" rx="2"/>
    <g fill="#fff" clip-path="url(#a)">
        <path d="M29.364 15.69h-2.06v-2.18h-2.061v2.18h-2.06v2.183h2.06v2.181h2.06v-2.181h2.061V15.69zM21.689 15.691H13.91v3.273h4.43c-.257 1.363-1.545 3.927-4.945 3.927-2.988 0-5.41-2.618-5.41-5.836 0-3.219 2.422-5.837 5.41-5.837 1.7 0 2.833.764 3.503 1.418l2.37-2.4c-1.546-1.581-3.504-2.509-5.873-2.509-4.843 0-8.758 4.146-8.758 9.273s3.915 9.273 8.758 9.273c6.027 0 9.118-5.291 8.294-10.582z"/>
    </g>
    <defs>
        <clipPath id="a">
            <path fill="#fff" d="M0 0h24.339v18.254H0z" transform="translate(4.637 7.727) scale(1.01595)"/>
        </clipPath>
    </defs>
</svg>
