<svg width="30" height="22" viewBox="0 0 30 22" fill="none" xmlns="http://www.w3.org/2000/svg">
<g clip-path="url(#clip0)">
<path d="M15.9031 9.04114L17.3758 9.04114C18.495 9.04114 19.4375 10.0055 19.4375 11.1507C19.4375 12.2959 18.495 13.2603 17.3758 13.2603L15.9031 13.2603" fill="white"/>
<path d="M15.3144 13.2603L16.198 13.2603C17.3173 13.2603 18.2598 14.2246 18.2598 15.3698C18.2598 16.515 17.3173 17.4794 16.198 17.4794L14.7253 17.4794" fill="white"/>
<path d="M15.0201 17.4795C16.1394 17.4795 17.0819 18.4439 17.0819 19.5891C17.0819 20.674 16.1394 21.5781 15.0201 21.3973L0.587925 19.2877L0.587926 4.82196C2.82639 4.82196 6.06628 0.602782 8.8349 0.602782L12.9584 0.602783C13.9598 0.602783 14.7256 1.38634 14.7256 2.411L14.7256 4.82196L26.8015 4.82196C27.9208 4.82196 28.8633 5.78635 28.8633 6.93155C28.8633 8.07676 27.9208 9.04114 26.8015 9.04114L16.4928 9.04114" fill="white"/>
</g>
<defs>
<clipPath id="clip0">
<rect width="22" height="29.4535" fill="white" transform="translate(29.4531) rotate(90)"/>
</clipPath>
</defs>
</svg>
