<svg xmlns="http://www.w3.org/2000/svg" width="37" height="35" fill="none" viewBox="0 0 37 35">
    <path fill="url(#a)" d="M18.5 3.172c4.914 0 5.55 0 7.458.11 2.081.109 4.047.491 5.55 1.913 1.503 1.422 1.908 3.282 2.023 5.25.116 1.86.116 2.407.116 7.055s0 5.25-.116 7.055c-.115 1.968-.52 3.828-2.023 5.25-1.503 1.422-3.469 1.804-5.55 1.914-1.966.11-2.544.11-7.458.11s-5.55 0-7.458-.11c-2.081-.11-4.047-.492-5.55-1.914-1.503-1.422-1.908-3.282-2.023-5.25-.116-1.805-.116-2.407-.116-7.055s0-5.25.116-7.055c.115-1.968.52-3.828 2.023-5.25 1.503-1.422 3.469-1.804 5.55-1.914 1.908-.11 2.544-.11 7.458-.11zM18.5 0c-5.03 0-5.666 0-7.631.11-3.006.109-5.666.82-7.747 2.843C.982 4.922.232 7.438.116 10.281 0 12.141 0 12.742 0 17.5c0 4.758 0 5.36.116 7.219.115 2.843.867 5.36 3.006 7.328 2.139 2.023 4.74 2.68 7.747 2.844C12.834 35 13.47 35 18.5 35s5.666 0 7.631-.11c3.006-.109 5.666-.82 7.747-2.843 2.14-2.024 2.833-4.484 3.006-7.328C37 22.859 37 22.258 37 17.5c0-4.758 0-5.36-.116-7.219-.115-2.844-.867-5.36-3.006-7.328C31.797.93 29.138.22 26.131.11 24.166 0 23.53 0 18.5 0z"/>
    <path fill="url(#b)" d="M18.499 8.531c-5.261 0-9.481 4.047-9.481 8.969s4.22 8.969 9.48 8.969c5.262 0 9.482-3.992 9.482-8.969 0-4.977-4.22-8.969-9.481-8.969zm0 14.82c-3.411 0-6.186-2.624-6.186-5.851s2.775-5.852 6.186-5.852c3.41 0 6.186 2.625 6.186 5.852 0 3.227-2.775 5.852-6.186 5.852z"/>
    <path fill="url(#c)" d="M28.386 10.227c1.214 0 2.197-.93 2.197-2.079 0-1.147-.983-2.078-2.197-2.078-1.213 0-2.197.93-2.197 2.078 0 1.148.984 2.079 2.197 2.079z"/>
    <defs>
        <linearGradient id="a" x1="18.5" x2="18.5" y2="35" gradientUnits="userSpaceOnUse">
            <stop stop-color="#F1000C"/>
            <stop offset=".464" stop-color="#D7005B"/>
            <stop offset="1" stop-color="#BC00AB"/>
        </linearGradient>
        <linearGradient id="b" x1="18.499" x2="18.499" y1="8.531" y2="26.469" gradientUnits="userSpaceOnUse">
            <stop stop-color="#F1000C"/>
            <stop offset=".464" stop-color="#D7005B"/>
            <stop offset="1" stop-color="#BC00AB"/>
        </linearGradient>
        <linearGradient id="c" x1="28.386" x2="28.386" y1="6.07" y2="10.227" gradientUnits="userSpaceOnUse">
            <stop stop-color="#F1000C"/>
            <stop offset=".464" stop-color="#D7005B"/>
            <stop offset="1" stop-color="#BC00AB"/>
        </linearGradient>
    </defs>
</svg>
