<svg xmlns="http://www.w3.org/2000/svg" width="34" height="34" fill="none" viewBox="0 0 34 34">
    <rect width="34" height="34" fill="#BD081C" rx="2"/>
    <path fill="#fff" d="M17.006 4.943c-6.865 0-12.472 5.55-12.472 12.415 0 5.263 3.318 9.783 7.895 11.613-.114-.972-.229-2.517.057-3.547.23-.972 1.488-6.178 1.488-6.178s-.4-.801-.4-1.888c0-1.717 1.03-3.032 2.23-3.032 1.088 0 1.602.8 1.602 1.773 0 1.087-.686 2.689-1.03 4.12-.285 1.258.63 2.23 1.831 2.23 2.232 0 3.89-2.345 3.89-5.72 0-2.975-2.116-5.035-5.206-5.035-3.546 0-5.606 2.632-5.606 5.378 0 1.087.4 2.23.915 2.86.115.115.115.23.115.344-.115.4-.286 1.258-.344 1.43-.057.229-.171.286-.4.171-1.545-.743-2.517-2.975-2.517-4.805 0-3.948 2.86-7.552 8.238-7.552 4.29 0 7.666 3.09 7.666 7.208 0 4.291-2.689 7.724-6.465 7.724-1.258 0-2.46-.63-2.86-1.43 0 0-.63 2.402-.801 2.975-.286 1.087-1.03 2.46-1.545 3.26 1.144.344 2.403.573 3.662.573 6.865 0 12.414-5.55 12.414-12.415A12.331 12.331 0 0 0 17.006 4.943z"/>
</svg>
