<svg xmlns="http://www.w3.org/2000/svg" width="48" height="34" fill="none" viewBox="0 0 48 34">
    <path fill="#F00" d="M47.55 7.275s-.45-3.3-1.875-4.8c-1.8-1.875-3.9-1.95-4.8-2.025C34.05 0 24 0 24 0S13.95 0 7.2.45c-.975.075-3 .15-4.8 2.025C.975 3.9.525 7.275.525 7.275S0 11.175 0 15.075v3.675c0 3.9.45 7.8.45 7.8s.45 3.3 1.875 4.8c1.8 1.875 4.2 1.875 5.325 2.025 3.825.375 16.35.45 16.35.45s10.05 0 16.8-.525c.975-.075 3-.15 4.8-2.025 1.425-1.425 1.875-4.8 1.875-4.8s.525-3.9.525-7.8V15c0-3.825-.45-7.725-.45-7.725zM19.05 23.1V9.6l12.975 6.75L19.05 23.1z"/>
</svg>
