<svg xmlns="http://www.w3.org/2000/svg" width="21" height="25" fill="none" viewBox="0 0 21 25">
    <path fill="#ffffff" d="M18.098 20.269l-1.23-2.29v-5.65c0-3.496-2.367-6.45-5.59-7.378V2.13A2.139 2.139 0 0 0 9.133 0C7.952 0 6.987.957 6.987 2.129V4.95c-3.222.928-5.59 3.882-5.59 7.378v5.654l-1.23 2.29a1.408 1.408 0 0 0 1.25 2.07h4.881C6.382 23.824 7.622 25 9.133 25c1.51 0 2.75-1.177 2.834-2.656h4.88c.503 0 .96-.254 1.216-.684.26-.43.276-.947.035-1.391zM8.123 2.129c0-.552.453-1.001 1.009-1.001.556 0 1.008.45 1.008 1v2.589a7.663 7.663 0 0 0-1.008-.064c-.345 0-.68.025-1.009.064V2.129zm-5.59 10.2c0-3.613 2.962-6.548 6.599-6.548 3.636 0 6.598 2.94 6.598 6.548v5.186H2.534v-5.186zm6.599 11.543A1.696 1.696 0 0 1 7.44 22.34h3.39a1.704 1.704 0 0 1-1.697 1.533zm7.956-2.793a.282.282 0 0 1-.241.137H1.422a.282.282 0 0 1-.24-.137.277.277 0 0 1-.006-.278l1.157-2.158h13.61l1.156 2.158a.276.276 0 0 1-.01.278z"/>
    <path fill="#ffffff" d="M9.133 7.281c-2.805 0-5.088 2.266-5.088 5.05a.567.567 0 0 0 1.132 0c0-2.164 1.77-3.922 3.95-3.922a.564.564 0 0 0 .566-.561.555.555 0 0 0-.56-.567z"/>
    <circle cx="16" cy="7" r="5" fill="#fff"/>
    <circle cx="16" cy="7" r="3" fill="#FC4945"/>
</svg>
