<svg xmlns="http://www.w3.org/2000/svg" width="19" height="23" fill="none" viewBox="0 0 19 23">
    <path fill="#ffffff" d="M12.535 8.334a.54.54 0 0 0-.539.539v10.18a.54.54 0 0 0 1.079 0V8.873a.54.54 0 0 0-.54-.539zM6.172 8.334a.54.54 0 0 0-.54.539v10.18a.54.54 0 0 0 1.08 0V8.873a.54.54 0 0 0-.54-.539z"/>
    <path fill="#ffffff" d="M1.533 6.846v13.272c0 .787.286 1.52.793 2.053.501.527 1.197.829 1.925.829h10.204c.728 0 1.424-.302 1.925-.83.502-.527.793-1.265.793-2.052V6.846a2.059 2.059 0 0 0 1.516-2.257 2.06 2.06 0 0 0-2.044-1.788h-2.762v-.673a2.108 2.108 0 0 0-.62-1.508A2.112 2.112 0 0 0 11.748 0h-4.79a2.112 2.112 0 0 0-1.515.62c-.399.398-.626.942-.62 1.508V2.8H2.062a2.056 2.056 0 1 0-.529 4.045zm12.922 15.077H4.25c-.922 0-1.64-.792-1.64-1.805V6.895h13.483v13.223c0 1.013-.717 1.805-1.64 1.805zM5.9 2.128c-.005-.28.108-.55.308-.749.2-.2.47-.307.75-.302h4.789c.28-.005.55.103.75.302.199.2.307.469.307.749V2.8H5.9v-.673zm-3.84 1.75h14.584c.533 0 .97.437.97.97 0 .533-.437.97-.97.97H2.062a.973.973 0 0 1-.971-.97c0-.533.437-.97.97-.97z"/>
    <path fill="#ffffff" d="M9.354 8.334a.54.54 0 0 0-.54.539v10.18a.54.54 0 0 0 1.08 0V8.873a.54.54 0 0 0-.54-.539z"/>
</svg>
