<svg xmlns="http://www.w3.org/2000/svg" width="27" height="24" fill="none" viewBox="0 0 27 24">
    <path fill="#686565" d="M9.704.03h4.262c1.466 0 2.981-.093 4.447.049 5.257.611 9.136 5.48 8.523 10.768-.618 5.054-4.923 8.498-9.895 8.547-.854 0-1.707 0-2.555.049a.35.35 0 0 1-.192.093c-.333.234-.662.425-.995.66-1.422.944-2.84 1.889-4.261 2.789-.378.235-.898-.093-.898-.519v-3.258C3.501 18.357.093 14.487 0 9.668.098 4.423 4.36.128 9.704.03zm-.99 18.185c.333.049.613.235.569.567v2.647c.71-.475 1.466-.944 2.177-1.419.804-.518 1.844-1.512 2.795-1.702 1.28-.235 2.653.049 3.977-.093 2.555-.284 4.924-1.796 6.297-3.968 2.785-4.486.657-10.626-4.316-12.47-1.466-.52-2.981-.52-4.497-.52h-4.972c-1.942 0-3.786.236-5.492 1.278-2.51 1.56-3.977 4.295-4.07 7.226.049 4.295 3.222 7.886 7.532 8.454z"/>
    <path fill="#686565" d="M6.58 11.508h14.201c.756 0 .756 1.179 0 1.179h-14.2c-.756 0-.756-1.18-.001-1.18zM6.58 7.021h14.201c.756 0 .756 1.18 0 1.18h-14.2c-.756 0-.756-1.18-.001-1.18z"/>
</svg>
